<?xml version="1.0" encoding="UTF-8"?>
<svg viewBox="0 0 35 50" version="1.1" xmlns="http://www.w3.org/2000/svg" xmlns:xlink="http://www.w3.org/1999/xlink">
    <title>ethereum</title>
    <g id="Argon-Desktop" stroke="none" stroke-width="1" fill="none" fill-rule="evenodd">
        <path d="M33.8637853,30.0525603 L17.5285134,49.7157865 L1.18314207,30.0521858 L17.2648332,38.4580949 L17.5287083,38.5960226 L17.7925417,38.4580342 L33.8637853,30.0525603 Z M7.09593896,34.7616302 L8.57454644,36.5376195 L14.4268869,43.5669996 L15.3558044,44.6827437 L15.3558044,39.0786573 L15.1060583,38.9481272 L9.2537178,35.8893955 L7.09593896,34.7616302 Z M27.9618243,34.7616302 L25.8040455,35.8893955 L19.951705,38.9481272 L19.7019589,39.0786573 L19.7019589,44.6827437 L20.6308764,43.5669996 L26.4832169,36.5376195 L27.9618243,34.7616302 Z M17.5003618,0.715786493 L35.0004204,25.7872827 L17.5092731,34.9767004 L0.000420418843,25.7871137 L17.5003618,0.715786493 Z M15.3214106,20.4518518 L14.5639558,20.8088247 L4.2805007,25.6552057 L3.48798347,26.0287028 L4.25979885,26.4338962 L14.5434121,31.8326647 L15.3215926,32.2411997 L15.3215926,31.4484659 L15.3214222,21.2033164 L15.3214106,20.4518518 Z M19.6676966,20.4849051 L19.6676966,32.2412242 L20.4458796,31.832657 L30.6952647,26.4514503 L31.4669941,26.0462713 L30.6745685,25.6727771 L20.4251834,20.8419315 L19.6676966,20.4849051 Z M19.6676966,6.60894263 L19.6676966,18.917548 L19.9372654,19.0445988 L30.829113,24.1780477 L32.5015386,24.9662804 L31.511401,23.5500023 L20.6195534,7.97046449 L19.6676966,6.60894263 Z M15.3216046,6.6089357 L14.369726,7.97046103 L3.5126014,23.5000152 L2.52250302,24.9162085 L4.1948705,24.1280718 L15.0518369,19.0115093 L15.3214181,18.8844638 L15.3214222,18.6170157 L15.3216046,8.20402408 L15.3216046,6.6089357 Z" id="ethereum" fill="currentColor" fill-rule="nonzero"></path>
    </g>
</svg>