<?xml version="1.0" encoding="UTF-8"?>
<svg viewBox="0 0 29 28" version="1.1" xmlns="http://www.w3.org/2000/svg" xmlns:xlink="http://www.w3.org/1999/xlink">
    <title>argon</title>
    <g id="Argon-Treasury" stroke="none" stroke-width="1" fill="none" fill-rule="evenodd">
        <g id="Frame-6" transform="translate(-893.177, -135.5455)" fill="currentColor">
            <g id="argon" transform="translate(889.1161, 129.6818)">
                <path d="M13.021809,5.95008474 L23.7029064,5.9781432 L23.8997703,6.56497859 L27.8855538,18.4463166 L32.2590212,18.4578387 L32.2695055,22.4126185 L29.2133734,22.4045702 L29.5377262,23.3711891 L32.2720659,23.3783787 L32.2825502,27.3331584 L30.8655456,27.329336 L32.3586385,31.7801886 L32.7352573,32.9028589 L23.4545196,32.8784791 L23.2679227,32.2707991 L21.7430963,27.305372 L15.0945827,27.2879068 L13.5962059,32.2453923 L13.4128284,32.8521004 L4.13209082,32.8277206 L4.50276219,31.7070132 L5.97224111,27.2639431 L4.5552729,27.2603209 L4.54478855,23.3055412 L7.27909228,23.3127173 L7.59821678,22.3477888 L4.54222832,22.339781 L4.531744,18.3850012 L8.9051754,18.3964565 L12.8280538,6.53589401 L13.021809,5.95008474 Z M13.9597156,7.23354803 L9.77260172,19.8932345 L6.0439406,19.883473 L6.04650063,20.8491398 L9.45347689,20.8580563 L8.1465186,24.8094953 L6.05698515,24.804013 L6.05954528,25.7696798 L7.82739367,25.7743171 L5.91672485,31.5514092 L12.4492121,31.5685696 L14.1954834,25.7910456 L22.6342715,25.8132137 L24.4112362,31.5999929 L30.9437235,31.6171533 L29.0023612,25.8299421 L30.7703533,25.8345932 L30.7677933,24.8689264 L28.6781163,24.8634303 L27.3501887,20.9050697 L30.7573087,20.9140533 L30.7547487,19.9483865 L27.0259438,19.9385578 L22.771684,7.25669638 L13.9597156,7.23354803 Z M17.962526,13.3279764 L18.8012392,13.3301797 L18.8945376,13.6340197 L20.8253758,19.9222694 L15.9731697,19.909523 L17.8708372,13.6313306 L17.962526,13.3279764 Z M18.3882385,15.7468872 L17.4986116,18.965627 L19.3894014,18.970594 L18.3882385,15.7468872 Z" fill-rule="nonzero"></path>
            </g>
        </g>
    </g>
</svg>