<?xml version="1.0" encoding="UTF-8"?>
<svg viewBox="0 0 41 36" version="1.1" xmlns="http://www.w3.org/2000/svg">
    <title>arrows</title>
    <g id="arrows" fill="currentColor" fill-rule="nonzero">
        <path d="M36.7805625,18.4822619 C36.7805625,24.5440001 34.6231262,30.55885 30.3624932,36.4997122 L25.3599852,36.4995867 L26.4074578,35.122635 C30.6776391,29.5018759 32.7805625,23.9657992 32.7805625,18.4822619 C32.7805625,12.9987245 30.6776391,7.46264788 26.4074578,1.84188876 L25.3879852,0.499586715 L30.3875567,0.499793882 C34.631587,6.42928539 36.7805625,12.4324214 36.7805625,18.4822619 Z" id="arrow3" class="arrow3"/>
        <path d="M22.5,18.4822619 C22.5,24.5516644 19.9360947,30.5625899 14.8720136,36.5005085 L10.8304034,36.4997714 L10.9119968,36.4155623 C16.6664887,30.35228 19.5,24.3811606 19.5,18.4822619 C19.5,12.5833632 16.6664887,6.6122437 10.9119968,0.5489614 L10.8654034,0.499771443 L14.9027002,0.500033842 C19.9464521,6.42624112 22.5,12.4251311 22.5,18.4822619 Z" id="arrow2" class="arrow2"/>
        <path d="M9,18.4822619 C9,24.5447715 6.0679827,30.5509832 0.2600612,36.4999549 L-2.5909638,36.4998973 C3.8265751,30.4275602 7,24.4220773 7,18.4822619 C7,12.5538455 3.8387435,6.56001338 -2.5540522,0.499585729 L0.2941694,0.499539931 C6.0794618,6.43707874 9,12.4316315 9,18.4822619 Z" id="arrow1" class="arrow1"/>
    </g>
</svg>