<?xml version="1.0" encoding="UTF-8"?>
<svg viewBox="0 0 52 35" version="1.1" xmlns="http://www.w3.org/2000/svg" xmlns:xlink="http://www.w3.org/1999/xlink">
    <title>arrows</title>
    <g id="Argon-Commander" stroke="none" stroke-width="1" fill="none" fill-rule="evenodd">
        <g id="Frame-8" transform="translate(-546, -440.5)" fill="currentColor">
            <g id="OVERLAY" transform="translate(276.5, 408)">
                <g id="arrows" transform="translate(259, 32)" fill-rule="nonzero">
                    <path d="M44.7224537,0.999453685 L60.3287277,16.3463572 L62.0103986,18.0000002 L60.3287277,19.6536432 L44.7224537,34.9994537 L38.7004537,34.9994537 L39.6712723,34.0463558 L55.99,18.0000002 L39.6712723,1.95364454 L38.7004537,0.999453685 L44.7224537,0.999453685 Z" id="arrow3" class="arrow3"></path>
                    <path d="M28.2499457,0.999945925 L46.0001923,16.8821382 L47.2495674,18.0000002 L46.0001923,19.1178622 L28.2479457,34.9999459 L24.0103986,35.0000002 L24.0099457,34.7669459 L24.9998077,33.8821382 L42.75,17.9990002 L24.9998077,2.11786216 L24.0099457,1.23194593 L24.0103986,1.00000018 L28.2499457,0.999945925 Z" id="arrow2" class="arrow2"></path>
                    <path d="M13.6067411,0.999741307 L31.6689647,17.256706 L32.4948471,18.0000002 L31.6689647,18.7432943 L13.6057411,34.9997413 L10.6147411,34.9997413 L29.505,17.9990002 L10.6167411,0.999741307 L13.6067411,0.999741307 Z" id="arrow1" class="arrow1"></path>
                </g>
            </g>
        </g>
    </g>
</svg>