<?xml version="1.0" encoding="UTF-8"?>
<svg viewBox="0 0 456 270" version="1.1" xmlns="http://www.w3.org/2000/svg" xmlns:xlink="http://www.w3.org/1999/xlink">
    <g id="Page-1" stroke="none" stroke-width="1" fill="none" fill-rule="evenodd">
        <path d="M286.18952,1.05621773 C288.440164,-0.0204408817 291.112517,0.285178873 293.062831,1.84542972 L453.062831,129.84543 C456.111719,132.278123 456.111719,137.56613 453.064337,139.99762 L293.060456,268.000727 C291.111919,269.566052 288.435252,269.871957 286.187888,268.787246 C283.932465,267.708273 282.499873,265.429233 282.499873,262.930127 L282.499873,204.430127 L14.9998735,204.430127 C7.00430062,204.430127 0.499873491,197.925699 0.499873491,189.930127 L0.499873491,79.9301265 C0.499873491,71.9345536 7.00430062,65.4301265 14.9998735,65.4301265 L282.499873,65.4301265 L282.499873,6.93012651 C282.499873,4.4316667 283.932479,2.14896384 286.18952,1.05621773 Z M295.499873,20.4572173 L295.499873,71.9301265 C295.499873,75.5176994 292.587446,78.4301265 288.999873,78.4301265 L13.4998735,78.4301265 L13.4998735,191.430127 L288.999873,191.430127 C292.587446,191.430127 295.499873,194.342554 295.499873,197.930127 L295.499873,249.403036 L297.936908,247.453436 L437.128908,136.101436 L438.593066,134.930127 L437.128908,133.758817 L297.936908,22.4068167 L295.499873,20.4572173 Z" id="arrow" fill="currentColor" fill-rule="nonzero"></path>
    </g>
</svg>