<?xml version="1.0" encoding="UTF-8"?>
<svg viewBox="0 0 407 120" version="1.1" xmlns="http://www.w3.org/2000/svg" xmlns:xlink="http://www.w3.org/1999/xlink">
    <title>bankless-top</title>
    <g id="Argon-Commander" stroke="none" stroke-width="1" fill="none" fill-rule="evenodd">
        <g id="bankless-finished" transform="translate(-1, 1)">
            <g id="bankless-top" transform="translate(1.0832, 0)">
                <rect id="bg" fill-opacity="0" fill="#FFFFFF" x="0" y="0" width="406" height="119"></rect>
                <path d="M89.9168036,103.788899 L82.4925381,116.790696 C82.1365355,117.414148 81.4736799,117.798955 80.7557451,117.798955 L43.0778621,117.798955 C42.3599273,117.798955 41.6970716,117.414148 41.341069,116.790696 L33.9168036,103.788899" class="hasStroke" stroke="#000000" stroke-width="2"></path>
                <path d="M371.916804,103.788899 L364.492539,116.790643 C364.136536,117.414093 363.473681,117.798899 362.755747,117.798899 L325.07786,117.798899 C324.359926,117.798899 323.697072,117.414093 323.341068,116.790643 L315.916804,103.788899" class="hasStroke" stroke="#000000" stroke-width="2"></path>
                <path d="M202.56073,21.8779006 C202.778029,21.7810126 203.053851,21.7810122 203.271305,21.8779701 L346.658,85.782 L59.269,85.957 Z" class="hasStroke" stroke="#000000" stroke-width="2"></path>
                <path d="M200.785041,1.96968939 C202.079537,1.39336551 203.557778,1.39336551 204.852274,1.96968939 L383.102274,81.3285731 C384.004307,81.7301682 384.745903,82.3784117 385.26199,83.1731042 C385.778078,83.9677968 386.068658,84.9089385 386.068658,85.8963301 L386.068658,98.7886717 C386.068658,100.169384 385.509014,101.419384 384.604191,102.324206 C383.699369,103.229028 382.449369,103.788672 381.068658,103.788672 L24.5686576,103.788672 C23.1879457,103.788672 21.9379457,103.229028 21.0331237,102.324206 C20.1283016,101.419384 19.5686576,100.169384 19.5686576,98.7886717 L19.5686576,85.8963301 C19.5686576,84.9089385 19.859237,83.9677968 20.3753247,83.1731042 C20.8914124,82.3784117 21.6330083,81.7301682 22.5350413,81.3285731 Z" class="hasStroke" stroke="#000000" stroke-width="2"></path>
            </g>
        </g>
    </g>
</svg>