<?xml version="1.0" encoding="UTF-8"?>
<svg viewBox="0 0 407 156" version="1.1" xmlns="http://www.w3.org/2000/svg" xmlns:xlink="http://www.w3.org/1999/xlink">
    <title>bankless-top1</title>
    <g id="Argon-Commander" stroke="none" stroke-width="1" fill="none" fill-rule="evenodd">
        <g id="Stack" transform="translate(-1, 2)">
            <g id="bankless-finished" transform="translate(0, 49)">
                <g id="bankless-top1" transform="translate(1.0832, -50.0303)">
                    <polygon id="bg" fill-opacity="0" fill="#FFFFFF" points="0 0.490928868 406 0.490928868 406 154.819 0 154.819"></polygon>
                    <path d="M202.541643,23.8782216 C202.717394,23.8213431 202.919469,23.8213431 203.09522,23.8782218 L356.96,135.811 L48.689,135.988 Z" class="hasStroke" stroke="#000000" stroke-width="2"></path>
                    <path d="M202.818658,2.38143673 C203.839556,2.38143673 204.860455,2.69335359 205.731024,3.3171873 L383.981024,131.047848 C385.2914,131.98684 386.068658,133.500022 386.068658,135.112098 L386.068658,148.819 C386.068658,150.199712 385.509014,151.449712 384.604191,152.354534 C383.699369,153.259356 382.449369,153.819 381.068658,153.819 L24.5686576,153.819 C23.1879457,153.819 21.9379457,153.259356 21.0331237,152.354534 C20.1283016,151.449712 19.5686576,150.199712 19.5686576,148.819 L19.5686576,135.112098 C19.5686576,133.500022 20.3459153,131.98684 21.6562914,131.047848 L199.906291,3.3171873 C200.77686,2.69335359 201.797759,2.38143673 202.818658,2.38143673 Z" class="hasStroke" stroke="#000000" stroke-width="2"></path>
                </g>
            </g>
        </g>
    </g>
</svg>