<?xml version="1.0" encoding="UTF-8"?>
<svg viewBox="0 0 407 16" version="1.1" xmlns="http://www.w3.org/2000/svg" xmlns:xlink="http://www.w3.org/1999/xlink">
    <title>bankless-bottom1</title>
    <g id="Argon-Commander" stroke="none" stroke-width="1" fill="none" fill-rule="evenodd">
        <g id="Stack" transform="translate(-1, -387)">
            <g id="bankless-bottom1" transform="translate(1.0832, 387.7771)">
                <rect id="bg" fill-opacity="0" fill="#FFFFFF" x="0" y="0" width="406.07" height="13.325269"></rect>
                <path d="M89.9168036,1.01175137 L82.4925387,13.0134952 C82.1365356,13.6369456 81.4736809,14.0217514 80.7557474,14.0217514 L43.0778598,14.0217514 C42.3599262,14.0217514 41.6970715,13.6369456 41.3410684,13.0134952 L33.9168036,1.01175137" class="hasStroke" stroke="#000000" stroke-width="2" transform="translate(61.9168, 7.5168) scale(1, -1) translate(-61.9168, -7.5168)"></path>
                <path d="M371.916804,1.01175137 L364.492539,13.0134952 C364.136536,13.6369456 363.473681,14.0217514 362.755747,14.0217514 L325.07786,14.0217514 C324.359926,14.0217514 323.697072,13.6369456 323.341068,13.0134952 L315.916804,1.01175137" class="hasStroke" stroke="#000000" stroke-width="2" transform="translate(343.9168, 7.5168) scale(1, -1) translate(-343.9168, -7.5168)"></path>
            </g>
        </g>
    </g>
</svg>