<?xml version="1.0" encoding="UTF-8"?>
<svg viewBox="0 0 407 46" version="1.1" xmlns="http://www.w3.org/2000/svg" xmlns:xlink="http://www.w3.org/1999/xlink">
    <title>bankless-bottom</title>
    <g id="Argon-Commander" stroke="none" stroke-width="1" fill="none" fill-rule="evenodd">
        <g id="bankless-finished" transform="translate(-1, -338)">
            <g id="bankless-bottom" transform="translate(0.0832, 338.7789)">
                <rect id="bg" fill-opacity="0" fill="#FFFFFF" x="1" y="0.221100998" width="406.07" height="44.5"></rect>
                <path d="M90.9168036,1.01 L83.4925387,13.0117438 C83.1365356,13.6351942 82.4736809,14.02 81.7557474,14.02 L44.0778598,14.02 C43.3599262,14.02 42.6970715,13.6351942 42.3410684,13.0117438 L34.9168036,1.01" class="hasStroke" stroke="#000000" stroke-width="2" transform="translate(62.9168, 7.515) scale(1, -1) translate(-62.9168, -7.515)"></path>
                <path d="M372.916804,1.01 L365.492539,13.0117438 C365.136536,13.6351942 364.473681,14.02 363.755747,14.02 L326.07786,14.02 C325.359926,14.02 324.697072,13.6351942 324.341068,13.0117438 L316.916804,1.01" class="hasStroke" stroke="#000000" stroke-width="2" transform="translate(344.9168, 7.515) scale(1, -1) translate(-344.9168, -7.515)"></path>
                <path d="M15.4210136,29.152903 L15.4210136,15.319628 C15.4210136,14.7673433 15.8687288,14.319628 16.4210136,14.319628 L391.305899,14.319628 C391.858184,14.319628 392.305899,14.7673433 392.305899,15.319628 L392.305899,29.152903" class="hasStroke" stroke="#000000" stroke-width="2"></path>
                <rect class="hasStroke" stroke="#000000" stroke-width="2" x="2" y="29.319628" width="404.071465" height="14.411473" rx="1"></rect>
            </g>
        </g>
    </g>
</svg>