<?xml version="1.0" encoding="UTF-8"?>
<svg width="408px" height="384px" viewBox="0 0 408 384" version="1.1" xmlns="http://www.w3.org/2000/svg" xmlns:xlink="http://www.w3.org/1999/xlink">
    <title>Group</title>
    <defs>
        <path d="M0,0 L1402,0 L1402,1001 L0,1001 L0,0 Z" id="path-1"></path>
        <filter x="-0.4%" y="-0.5%" width="100.9%" height="101.3%" filterUnits="objectBoundingBox" id="filter-2">
            <feOffset dx="1" dy="1" in="SourceAlpha" result="shadowOffsetOuter1"></feOffset>
            <feGaussianBlur stdDeviation="2" in="shadowOffsetOuter1" result="shadowBlurOuter1"></feGaussianBlur>
            <feComposite in="shadowBlurOuter1" in2="SourceAlpha" operator="out" result="shadowBlurOuter1"></feComposite>
            <feColorMatrix values="0 0 0 0 0   0 0 0 0 0   0 0 0 0 0  0 0 0 0.153846154 0" type="matrix" in="shadowBlurOuter1"></feColorMatrix>
        </filter>
    </defs>
    <g id="Argon-Commander" stroke="none" stroke-width="1" fill="none" fill-rule="evenodd">
        <g id="Frame-7" transform="translate(-457, -425.5)" xlink:href="#path-1">
            <use fill="black" fill-opacity="1" filter="url(#filter-2)" xlink:href="#path-1"></use>
            <path stroke="#979797" stroke-width="1" d="M1401.5,0.5 L1401.5,1000.5 L0.5,1000.5 L0.5,0.5 L1401.5,0.5 Z" stroke-linejoin="square"></path>
            <g id="OVERLAY" stroke-width="1" fill-rule="evenodd" transform="translate(10, 54.5)" fill="#000000">
                <g id="Group" transform="translate(446, 370.5)" fill-rule="nonzero">
                    <path d="M200.942655,1.83387698 C203.437919,0.72199464 206.562393,0.722089382 209.057331,1.83387094 L386.088381,80.731096 C388.587213,81.8451556 390.09952,83.8883055 390.09952,86.0381425 L390.09952,99.8869773 C390.09952,103.215821 386.523939,106.033446 382.030616,106.033446 L374.588147,106.033446 L374.298456,106.528049 L368.215614,116.913552 C367.805305,117.613478 367.088967,118.205266 366.177341,118.58838 L365.564772,118.845815 L365.564772,339.775782 L366.177341,340.033217 C367.089263,340.416455 367.805297,341.007917 368.215135,341.707664 L374.298465,352.093564 L374.588159,352.588151 L393.909288,352.588151 C394.714516,352.588151 395.285213,353.037933 395.285213,353.460424 L395.285213,367.421802 L407.6236,367.421802 C408.428961,367.421802 409,367.871729 409,368.294075 L409,383.127726 C409,383.550218 408.429303,384 407.624075,384 L2.37592458,384 C1.57069653,384 1,383.550218 1,383.127726 L1,368.294075 C1,367.871375 1.57051148,367.421802 2.37592458,367.421802 L14.7147871,367.421802 L14.7147871,353.460424 C14.7147871,353.037933 15.2854836,352.588151 16.0907116,352.588151 L35.4118632,352.588151 L35.7015521,352.093534 L41.7843942,341.707657 C42.1942282,341.007917 42.9102619,340.416455 43.8221838,340.033217 L44.4347525,339.775782 L44.4347525,118.845815 L43.8221838,118.58838 C42.9105576,118.205266 42.1942193,117.613478 41.7837186,116.913223 L35.7015614,106.528079 L35.4118754,106.033446 L27.9693842,106.033446 C23.4758914,106.033446 19.9004801,103.216056 19.9004801,99.8869773 L19.9004801,86.0381425 C19.9004801,83.8879998 21.4126117,81.8446922 23.9111676,80.7310854 Z M406.247676,369.166349 L3.75137398,369.166349 L3.75137398,382.255452 L406.247676,382.255452 L406.247676,369.166349 Z M392.532413,354.332698 L17.4652107,354.332698 L17.4652107,367.421802 L392.532413,367.421802 L392.532413,354.332698 Z M81.9009715,341.323017 L46.1261998,341.323017 C45.4080397,341.323017 44.7230349,341.668346 44.3722149,342.26637 L39.2085029,351.08276 L38.3268039,352.588151 L89.6999359,352.588151 L88.8181823,351.082742 L83.6543479,342.266579 C83.3040626,341.668511 82.6188459,341.323017 81.9009715,341.323017 Z M363.87285,341.323017 L328.098078,341.323017 C327.379853,341.323017 326.695024,341.668448 326.344691,342.266597 L321.180867,351.082742 L320.299114,352.588151 L371.672371,352.588151 L370.790516,351.082707 L365.626206,342.266544 C365.275941,341.668511 364.590724,341.323017 363.87285,341.323017 Z M317.383732,106.033 L92.6157937,106.033 L92.3261023,106.528049 L86.2432602,116.913552 C85.832952,117.613478 85.1166137,118.205266 84.2049875,118.58838 L83.5924188,118.845815 L83.5924188,339.775782 L84.2049875,340.033217 C85.1169094,340.416455 85.8329431,341.007917 86.2427811,341.707664 L92.3261116,352.093564 L92.6158045,352.588527 L317.38373,352.588527 L317.673422,352.093922 L323.756265,341.70842 C324.166306,341.008037 324.882386,340.416384 325.794393,340.033277 L326.407106,339.775895 L326.407106,118.846288 L325.794664,118.588808 C324.882126,118.205164 324.166158,117.613681 323.756359,116.913714 L317.673422,106.528049 L317.383732,106.033 Z M80.8405697,119.043503 L47.1861265,119.043503 L47.1861265,339.578095 L80.8405697,339.578095 L80.8405697,119.043503 Z M362.812923,119.043503 L329.158955,119.043503 L329.158955,339.578095 L362.812923,339.578095 L362.812923,119.043503 Z M89.7003674,106.033446 L38.327279,106.033446 L39.208978,107.538837 L44.3723373,116.354625 C44.72351,116.953251 45.4085149,117.298581 46.126675,117.298581 L81.9014466,117.298581 C82.6192445,117.298581 83.3041992,116.953144 83.6549564,116.355227 L88.8186685,107.538837 L89.7003674,106.033446 Z M371.672802,106.033821 L320.299589,106.033821 L321.181342,107.53923 L326.345177,116.355393 C326.695499,116.953524 327.380328,117.298955 328.098553,117.298955 L363.873325,117.298955 C364.591123,117.298955 365.276078,116.953519 365.626835,116.355602 L370.791002,107.539246 L371.672802,106.033821 Z M204.999525,2.74159877 C204.117058,2.74159877 203.245264,2.91965255 202.467154,3.26622424 L25.4358595,82.1635583 C23.7435031,82.9183162 22.651854,84.3933606 22.651854,86.0381425 L22.651854,99.8869773 C22.651854,102.374588 25.0816778,104.288899 27.9698594,104.288899 L382.030616,104.288899 C384.91834,104.288899 387.347671,102.37454 387.347671,99.8869773 L387.347671,86.0381425 C387.347671,84.3931213 386.255769,82.9178313 384.562594,82.1635045 L207.5321,3.26631524 C206.753786,2.91965255 205.881991,2.74159877 204.999525,2.74159877 Z M204.236847,21.464574 C204.703268,21.2566096 205.295307,21.2566096 205.761727,21.464574 L350.274645,85.8693645 C350.77154,86.0908803 350.961472,86.4456092 350.861315,86.7454714 C350.733912,87.1270782 350.188841,87.4582436 349.512286,87.4582436 L60.4867632,87.4582436 C59.8102446,87.4582436 59.2650701,87.1270784 59.1377349,86.7458458 C59.0375367,86.4457233 59.2274119,86.0911006 59.7242019,85.8698293 Z M204.999525,23.2369271 L204.592452,23.4183468 L69.1072538,83.7999257 L64.8139441,85.7133216 L345.185106,85.7133216 L340.891796,83.7999257 L205.406597,23.4183468 L204.999525,23.2369271 Z" id="Combined-Shape"></path>
                </g>
            </g>
        </g>
    </g>
</svg>