<?xml version="1.0" encoding="UTF-8"?>
<svg viewBox="0 0 21 20" version="1.1" xmlns="http://www.w3.org/2000/svg" xmlns:xlink="http://www.w3.org/1999/xlink">
    <title>bank</title>
    <g id="Argon-Commander" stroke="none" stroke-width="1" fill="none" fill-rule="evenodd">
        <g id="Frame-10" transform="translate(-712, -37)" fill="currentColor">
            <path d="M714.874615,45.3430156 L719.872675,45.3430156 L719.872675,46.2562465 C719.872675,46.4442621 719.673782,46.5987106 719.431662,46.5987106 L718.843661,46.5987106 L718.843661,51.353856 L719.431662,51.353856 C719.673782,51.353856 719.872675,51.5049445 719.872675,51.6963004 L719.872675,52.6095314 L714.874615,52.6095314 L714.874615,51.6963004 C714.874615,51.5049445 715.073483,51.353856 715.315629,51.353856 L715.90363,51.353856 L715.90363,46.5987106 L715.315629,46.5987106 C715.073483,46.5987106 714.874615,46.4442621 714.874615,46.2562465 L714.874615,45.3430156 Z M729.305584,51.353856 L729.893585,51.353856 C730.135705,51.353856 730.334598,51.5049445 730.334598,51.6963004 L730.334598,52.6095314 L725.336538,52.6095314 L725.336538,51.6963004 C725.336538,51.5049445 725.535431,51.353856 725.777551,51.353856 L726.365552,51.353856 L726.365552,46.5987106 L725.777551,46.5987106 C725.535431,46.5987106 725.336538,46.4442621 725.336538,46.2562465 L725.336538,45.3430156 L730.334598,45.3430156 L730.334598,46.2562465 C730.334598,46.4442621 730.135701,46.5987106 729.893581,46.5987106 L729.305584,46.5987106 L729.305584,51.353856 Z M731.453246,53.6939746 L731.453246,54.5736187 L713.759212,54.5736187 L713.759212,53.6939746 C713.759212,53.4656718 713.937544,53.2810162 714.158028,53.2810162 L731.054411,53.2810162 C731.274915,53.2810162 731.453246,53.4656718 731.453246,53.6939746 Z M732.60512,56.3906831 L732.60512,55.6574517 C732.60512,55.4289421 732.426221,55.2436992 732.205537,55.2436992 L713.004703,55.2436992 C712.784019,55.2436992 712.60512,55.4289421 712.60512,55.6574517 L712.60512,56.3906831 C712.60512,56.6191926 712.784019,56.8044356 713.004703,56.8044356 L732.205534,56.8044356 C732.426221,56.8044356 732.60512,56.6191926 732.60512,56.3906831 Z M722.210373,37.9094717 L713.635626,42.7581748 C713.507917,42.8303885 713.428476,42.9690378 713.428476,43.1197062 L713.428476,44.2595993 C713.428476,44.4870982 713.606586,44.6715242 713.826297,44.6715242 L731.386145,44.6715242 C731.605856,44.6715242 731.783963,44.4870982 731.783963,44.2595993 L731.783963,43.1196668 C731.783963,42.9690181 731.704544,42.8303885 731.576864,42.758165 L723.005276,37.909534 C722.757587,37.7694246 722.458081,37.7694017 722.210373,37.9094717 Z" id="bank"></path>
        </g>
    </g>
</svg>