<?xml version="1.0" encoding="UTF-8"?>
<svg viewBox="0 0 93 89" version="1.1" xmlns="http://www.w3.org/2000/svg" xmlns:xlink="http://www.w3.org/1999/xlink">
    <title>Combined Shape</title>
    <g id="Argon-Commander" stroke="none" stroke-width="1" fill="none" fill-rule="evenodd" opacity="0.5">
        <g id="Frame-9" transform="translate(-967, -134)" fill="#000000" fill-rule="nonzero">
            <path d="M1014.55953,134.80799 L1054.02186,152.461444 C1055.01055,152.903732 1055.64791,153.891938 1055.64791,154.982572 L1055.64791,155.810982 C1055.64791,157.259143 1054.48365,158.43311 1053.04746,158.43311 L1052.572,158.433017 L1050.87298,161.423539 C1050.77615,161.593925 1050.62985,161.725442 1050.45824,161.804071 L1050.45824,212.132717 C1050.62985,212.211346 1050.77615,212.342863 1050.87298,212.513249 L1052.473,215.112017 L1056.38931,215.112946 C1056.76722,215.112946 1057.07422,215.42142 1057.07422,215.802753 L1057.074,218.794017 L1059.54412,218.794355 C1059.79589,218.794355 1060,219.000162 1060,219.254038 L1060,222.111333 C1060,222.365209 1059.79589,222.571017 1059.54412,222.571017 L967.455882,222.571017 C967.204105,222.571017 967,222.365209 967,222.111333 L967,219.254038 C967,219.000162 967.204105,218.794355 967.455882,218.794355 L969.846,218.794017 L969.846872,215.802753 C969.846872,215.42142 970.153873,215.112946 970.531778,215.112946 L974.472,215.112017 L976.080765,212.499353 C976.172477,212.33763 976.31632,212.209694 976.486569,212.132364 L976.487036,161.80397 C976.315538,161.725328 976.169324,161.593854 976.072542,161.423551 L974.373,158.433017 L973.853108,158.43311 C972.416922,158.43311 971.252663,157.259143 971.252663,155.810982 L971.252663,154.982572 C971.252663,153.891938 971.890024,152.903732 972.878707,152.461444 L1012.34103,134.80799 C1013.04734,134.492025 1013.85323,134.492025 1014.55953,134.80799 Z M1059.08824,219.713722 L967.911765,219.713722 L967.911765,221.651649 L1059.08824,221.651649 L1059.08824,219.713722 Z M1056.16245,216.032313 L970.758637,216.032313 L970.758,218.794017 L1056.162,218.794017 L1056.16245,216.032313 Z M1038.957,158.433017 L987.987,158.433017 L986.288292,161.423551 C986.19151,161.593854 986.045296,161.725328 985.873798,161.80397 L985.873798,212.132831 C986.045295,212.211472 986.19151,212.342946 986.288292,212.513249 L987.888,215.112017 L1039.057,215.112017 L1040.66546,212.499353 C1040.75731,212.337388 1040.90144,212.209312 1041.07202,212.132017 L1041.07173,161.803957 C1040.90023,161.725316 1040.75402,161.593842 1040.65723,161.423539 L1038.957,158.433017 Z M1050.07967,212.969458 L1041.44832,212.970346 L1040.129,215.112017 L1051.4,215.112017 L1050.09012,212.984242 C1050.08589,212.977095 1050.08357,212.973399 1050.08216,212.97149 Z M985.494982,212.969458 L976.863629,212.970346 L975.545,215.112017 L986.815,215.112017 L985.505428,212.984242 C985.501203,212.977095 985.498881,212.973399 985.497471,212.97149 Z M1049.546,161.886017 L1041.984,161.886017 L1041.984,212.050017 L1049.546,212.050017 L1049.546,161.886017 Z M984.961,161.886017 L977.399,161.886017 L977.399,212.050017 L984.961,212.050017 L984.961,161.886017 Z M986.936,158.433017 L975.424,158.433017 L976.863629,160.966455 L985.494982,160.967343 L986.936,158.433017 Z M1051.521,158.433017 L1040.008,158.433017 L1041.44832,160.966442 L1050.07967,160.96733 L1051.521,158.433017 Z M1012.71078,135.648366 L973.248457,153.30182 L973.127663,153.361299 C972.537881,153.679296 972.164428,154.300926 972.164428,154.982572 L972.164428,155.810982 C972.164428,156.751391 972.920476,157.513743 973.853108,157.513743 L1053.04746,157.513743 C1053.98009,157.513743 1054.73614,156.751391 1054.73614,155.810982 L1054.73614,154.982572 C1054.73614,154.255482 1054.31123,153.596678 1053.65211,153.30182 L1014.18978,135.648366 C1013.71891,135.437723 1013.18165,135.437723 1012.71078,135.648366 Z M1013.64722,139.143183 L1046.7441,153.964224 C1046.8579,154.0152 1046.9014,154.096831 1046.87846,154.165836 C1046.84929,154.253653 1046.72445,154.329862 1046.5695,154.329862 L980.375802,154.329862 C980.220864,154.329862 980.096006,154.253653 980.066843,154.165922 C980.043895,154.096857 980.087381,154.01525 980.201158,153.964331 L1013.29798,139.143183 C1013.4048,139.095326 1013.54039,139.095326 1013.64722,139.143183 Z M1013.4726,140.070942 L983.684296,153.410494 L1043.26117,153.410494 L1013.4726,140.070942 Z" id="Combined-Shape"></path>
        </g>
    </g>
</svg>