<?xml version="1.0" encoding="UTF-8"?>
<svg viewBox="0 0 406 155" preserveAspectRatio="none"  version="1.1" xmlns="http://www.w3.org/2000/svg" xmlns:xlink="http://www.w3.org/1999/xlink">
    <g id="Argon-Commander" stroke="none" stroke-width="1" fill="none" fill-rule="evenodd">
        <polygon id="bg" fill-opacity="0" fill="#FFFFFF" points="0 0.490928868 406 0.490928868 406 154.819 0 154.819"></polygon>
        <path d="M206.313497,2.50433741 L384.563498,130.234998 C386.135948,131.361789 387.068658,133.177607 387.068658,135.112098 L387.068658,148.819 C387.068658,150.431082 386.428606,151.944334 385.311298,153.061641 C384.19399,154.178948 382.680738,154.819 381.068658,154.819 L24.5686576,154.819 C22.9565767,154.819 21.4433245,154.178948 20.326017,153.061641 C19.2087093,151.944333 18.5686576,150.431081 18.5686576,148.819 L18.5686576,135.112098 C18.5686576,133.177607 19.5013668,131.361789 21.0738182,130.234998 L199.323818,2.50433743 C200.350368,1.76873066 201.57131,1.38143673 202.818658,1.38143673 C204.066005,1.38143673 205.286947,1.76873075 206.313497,2.50433741 Z" id="Path" fill="currentColor" fill-rule="nonzero"></path>
    </g>
</svg>