<?xml version="1.0" encoding="UTF-8"?>
<svg viewBox="0 0 71 71" version="1.1" xmlns="http://www.w3.org/2000/svg" xmlns:xlink="http://www.w3.org/1999/xlink">
    <g id="Argon-Treasury" stroke="none" stroke-width="1" fill="none" fill-rule="evenodd" opacity="0.5">
        <g id="Frame-2" transform="translate(-853.177, -266.5455)" fill="#A601D4">
            <g id="Group" transform="translate(854, 267)">
                <path d="M66.5,0 L3.5,0 C1.56791955,0.00221004584 0.00221004584,1.56791955 0,3.5 L0,66.5 C0.00221004584,68.4320805 1.56791955,69.99779 3.5,70 L66.5,70 C68.4320805,69.99779 69.99779,68.4320805 70,66.5 L70,3.5 C69.99779,1.56791955 68.4320805,0.00221004584 66.5,0 L66.5,0 Z M67.6666667,66.5 C67.6659297,67.1440267 67.1440267,67.6659297 66.5,67.6666667 L3.5,67.6666667 C2.85597329,67.6659297 2.33407028,67.1440267 2.33333333,66.5 L2.33333333,3.5 C2.33407028,2.85597329 2.85597329,2.33407028 3.5,2.33333333 L66.5,2.33333333 C67.1440267,2.33407028 67.6659297,2.85597329 67.6666667,3.5 L67.6666667,66.5 Z M60.6666667,5.97916667 L60.6666667,4.66666667 L9.33333333,4.66666667 L9.33333333,5.97916667 C9.3312534,7.83075954 7.83075954,9.3312534 5.97916667,9.33333333 L4.66666667,9.33333333 L4.66666667,60.6666667 L5.97916667,60.6666667 C7.83075954,60.6687466 9.3312534,62.1692405 9.33333333,64.0208333 L9.33333333,65.3333333 L60.6666667,65.3333333 L60.6666667,64.0208333 C60.6687466,62.1692405 62.1692405,60.6687466 64.0208333,60.6666667 L65.3333333,60.6666667 L65.3333333,9.33333333 L64.0208333,9.33333333 C62.1692405,9.3312534 60.6687466,7.83075954 60.6666667,5.97916667 L60.6666667,5.97916667 Z M63,58.4251194 C60.673886,58.8538479 58.8538134,60.6738925 58.4250494,63 L11.5749506,63 C11.1461866,60.6738925 9.32611401,58.8538479 7,58.4251194 L7,11.5748806 C9.32611401,11.1461521 11.1461866,9.32610745 11.5749506,7 L58.4250494,7 C58.8538134,9.32610745 60.673886,11.1461521 63,11.5748806 L63,58.4251194 Z M24.5,26.8333333 L23.3333333,26.8333333 L23.3333333,33.8333333 L46.6666667,33.8333333 L46.6666667,26.8333333 L45.5,26.8333333 L45.5,18.9420977 L47.0894973,15.7631017 L35,10.3899848 L22.9105027,15.7631017 L24.5,18.9420977 L24.5,26.8333333 Z M35,12.9433485 L43.9105027,16.903565 L43.6122837,17.5 L26.3877162,17.5 L26.0894973,16.903565 L35,12.9433485 Z M43.1666667,19.8333333 L43.1666667,26.8333333 L40.8333333,26.8333333 L40.8333333,19.8333333 L43.1666667,19.8333333 Z M38.5,19.8333333 L38.5,26.8333333 L36.1666667,26.8333333 L36.1666667,19.8333333 L38.5,19.8333333 Z M33.8333333,19.8333333 L33.8333333,26.8333333 L31.5,26.8333333 L31.5,19.8333333 L33.8333333,19.8333333 Z M29.1666667,19.8333333 L29.1666667,26.8333333 L26.8333333,26.8333333 L26.8333333,19.8333333 L29.1666667,19.8333333 Z M25.6666667,29.1666667 L44.3333333,29.1666667 L44.3333333,31.5 L25.6666667,31.5 L25.6666667,29.1666667 Z M10.5,42 L24.5,42 L24.5,44.3333333 L10.5,44.3333333 L10.5,42 Z M10.5,37.3333333 L24.5,37.3333333 L24.5,39.6666667 L10.5,39.6666667 L10.5,37.3333333 Z M19.8333333,52.5 L31.5,52.5 L31.5,54.8333333 L19.8333333,54.8333333 L19.8333333,52.5 Z M38.5,52.5 L50.1666667,52.5 L50.1666667,54.8333333 L38.5,54.8333333 L38.5,52.5 Z M53.6666667,15.1666667 L59.5,15.1666667 L59.5,17.5 L53.6666667,17.5 L53.6666667,15.1666667 Z M10.5,15.1666667 L16.3333333,15.1666667 L16.3333333,17.5 L10.5,17.5 L10.5,15.1666667 Z M10.5,19.8333333 L19.8333333,19.8333333 L19.8333333,22.1666667 L10.5,22.1666667 L10.5,19.8333333 Z M22.1666667,57.1666667 L29.1666667,57.1666667 L29.1666667,59.5 L22.1666667,59.5 L22.1666667,57.1666667 Z M40.8333333,57.1666667 L47.8333333,57.1666667 L47.8333333,59.5 L40.8333333,59.5 L40.8333333,57.1666667 Z M10.5,46.6666667 L59.5,46.6666667 L59.5,49 L10.5,49 L10.5,46.6666667 Z M26.8333333,37.3333333 L36.1666667,37.3333333 L36.1666667,39.6666667 L26.8333333,39.6666667 L26.8333333,37.3333333 Z M26.8333333,42 L36.1666667,42 L36.1666667,44.3333333 L26.8333333,44.3333333 L26.8333333,42 Z M38.5,37.3333333 L59.5,37.3333333 L59.5,39.6666667 L38.5,39.6666667 L38.5,37.3333333 Z M38.5,42 L59.5,42 L59.5,44.3333333 L38.5,44.3333333 L38.5,42 Z" id="Combined-Shape" fill-rule="nonzero"></path>
            </g>
        </g>
    </g>
</svg>