<?xml version="1.0" encoding="UTF-8"?>
<svg viewBox="0 0 25 16" version="1.1" xmlns="http://www.w3.org/2000/svg" xmlns:xlink="http://www.w3.org/1999/xlink">
    <title>cloud-server</title>
    <g id="Argon-Operations" stroke="none" stroke-width="1" fill="none" fill-rule="evenodd">
        <path d="M10.3209943,11.8095238 C10.2728006,12.0427119 10.2489274,12.2801338 10.2497462,12.5180952 C10.2491908,12.7759483 10.2755789,13.0331741 10.3284941,13.2857143 L7.99980475,13.2857143 C7.79270336,13.2857143 7.62481451,13.4509425 7.62481451,13.6547619 C7.62481451,13.8585813 7.79270336,14.0238095 7.99980475,14.0238095 L10.5722378,14.0238095 C10.8336904,14.607818 11.2429691,15.1160737 11.7609568,15.5 L1.62497071,15.5 C1.00443582,15.4981761 0.501853277,15.0035582 0.5,14.3928571 L0.5,12.9166667 C0.501853277,12.3059656 1.00443582,11.8113477 1.62497071,11.8095238 L10.3209943,11.8095238 Z M18.8745216,5.79773513 C20.7480198,5.80972775 22.2579528,7.31224342 22.2494338,9.15607143 C22.2493434,9.31093883 22.2379393,9.46559944 22.2153097,9.61885714 C23.6913564,9.98966056 24.6594425,11.3798201 24.4782503,12.8684114 C24.297058,14.3570027 23.0227285,15.4827965 21.4994533,15.5 L13.9996485,15.5 C12.5568751,15.4837016 11.3251831,14.4700339 11.053575,13.0754169 C10.7819669,11.6808 11.5455269,10.2907662 12.8799277,9.75060714 C12.9557459,8.58343328 13.9362495,7.67295494 15.1246193,7.66622619 C15.3531752,7.66590715 15.5803038,7.70166684 15.7973517,7.77214286 C16.3335856,6.57094635 17.541383,5.79598721 18.8745216,5.79773513 Z M1.99996095,13.2857143 C1.79285956,13.2857143 1.62497071,13.4509425 1.62497071,13.6547619 C1.62497071,13.8585813 1.79285956,14.0238095 1.99996095,14.0238095 C2.20706234,14.0238095 2.37495119,13.8585813 2.37495119,13.6547619 C2.37495119,13.4509425 2.20706234,13.2857143 1.99996095,13.2857143 Z M3.12493166,13.2857143 C2.91783027,13.2857143 2.74994142,13.4509425 2.74994142,13.6547619 C2.74994142,13.8585813 2.91783027,14.0238095 3.12493166,14.0238095 C3.33203305,14.0238095 3.4999219,13.8585813 3.4999219,13.6547619 C3.4999219,13.4509425 3.33203305,13.2857143 3.12493166,13.2857143 Z M4.24990237,13.2857143 C4.04280098,13.2857143 3.87491214,13.4509425 3.87491214,13.6547619 C3.87491214,13.8585813 4.04280098,14.0238095 4.24990237,14.0238095 C4.45700376,14.0238095 4.62489261,13.8585813 4.62489261,13.6547619 C4.62489261,13.4509425 4.45700376,13.2857143 4.24990237,13.2857143 Z M10.9734773,10.3333333 C10.8041468,10.5626911 10.6619797,10.8103266 10.5497384,11.0714286 L2.37495119,11.0714286 L2.37495119,10.3333333 Z M16.24959,5.9047619 C16.2847585,5.90340838 16.3199713,5.90588372 16.3545872,5.91214286 C15.979717,6.19934863 15.6575724,6.5475927 15.402112,6.94178571 C15.3083645,6.93440476 15.2183668,6.92702381 15.1246193,6.92702381 C14.5627626,6.92668602 14.0124771,7.08416234 13.5384106,7.38095238 L7.99980475,7.38095238 C7.79270336,7.38095238 7.62481451,7.54618063 7.62481451,7.75 C7.62481451,7.95381937 7.79270336,8.11904762 7.99980475,8.11904762 L12.7246817,8.11904762 C12.4682949,8.45661337 12.2880373,8.84412751 12.1959455,9.25571429 C12.0159734,9.35554367 11.8442048,9.46906396 11.6822089,9.5952381 L1.62497071,9.5952381 C1.00443582,9.59341419 0.501853277,9.09879627 0.5,8.48809524 L0.5,7.01190476 C0.501853277,6.40120373 1.00443582,5.90658581 1.62497071,5.9047619 L16.24959,5.9047619 Z M4.24990237,7.38095238 C4.04280098,7.38095238 3.87491214,7.54618063 3.87491214,7.75 C3.87491214,7.95381937 4.04280098,8.11904762 4.24990237,8.11904762 C4.45700376,8.11904762 4.62489261,7.95381937 4.62489261,7.75 C4.62489261,7.54618063 4.45700376,7.38095238 4.24990237,7.38095238 Z M3.12493166,7.38095238 C2.91783027,7.38095238 2.74994142,7.54618063 2.74994142,7.75 C2.74994142,7.95381937 2.91783027,8.11904762 3.12493166,8.11904762 C3.33203305,8.11904762 3.4999219,7.95381937 3.4999219,7.75 C3.4999219,7.54618063 3.33203305,7.38095238 3.12493166,7.38095238 Z M1.99996095,7.38095238 C1.79285956,7.38095238 1.62497071,7.54618063 1.62497071,7.75 C1.62497071,7.95381937 1.79285956,8.11904762 1.99996095,8.11904762 C2.20706234,8.11904762 2.37495119,7.95381937 2.37495119,7.75 C2.37495119,7.54618063 2.20706234,7.38095238 1.99996095,7.38095238 Z M2.37495119,4.42857143 L15.4996095,4.42857143 L15.4996095,5.16666667 L2.37495119,5.16666667 L2.37495119,4.42857143 Z M1.62497071,3.69047619 L16.24959,3.69047619 C16.8701249,3.68865228 17.3727074,3.19403437 17.3745607,2.58333333 L17.3745607,1.10714286 C17.3727074,0.496441824 16.8701249,0.00182390776 16.24959,0 L1.62497071,0 C1.00443582,0.00182390776 0.501853277,0.496441824 0.5,1.10714286 L0.5,2.58333333 C0.501853277,3.19403437 1.00443582,3.68865228 1.62497071,3.69047619 L1.62497071,3.69047619 Z M7.99980475,1.47619048 L15.8745997,1.47619048 C16.0817011,1.47619048 16.24959,1.64141872 16.24959,1.8452381 C16.24959,2.04905747 16.0817011,2.21428571 15.8745997,2.21428571 L7.99980475,2.21428571 C7.79270336,2.21428571 7.62481451,2.04905747 7.62481451,1.8452381 C7.62481451,1.64141872 7.79270336,1.47619048 7.99980475,1.47619048 Z M4.24990237,1.47619048 C4.45700376,1.47619048 4.62489261,1.64141872 4.62489261,1.8452381 C4.62489261,2.04905747 4.45700376,2.21428571 4.24990237,2.21428571 C4.04280098,2.21428571 3.87491214,2.04905747 3.87491214,1.8452381 C3.87491214,1.64141872 4.04280098,1.47619048 4.24990237,1.47619048 Z M3.12493166,1.47619048 C3.33203305,1.47619048 3.4999219,1.64141872 3.4999219,1.8452381 C3.4999219,2.04905747 3.33203305,2.21428571 3.12493166,2.21428571 C2.91783027,2.21428571 2.74994142,2.04905747 2.74994142,1.8452381 C2.74994142,1.64141872 2.91783027,1.47619048 3.12493166,1.47619048 Z M1.99996095,1.47619048 C2.20706234,1.47619048 2.37495119,1.64141872 2.37495119,1.8452381 C2.37495119,2.04905747 2.20706234,2.21428571 1.99996095,2.21428571 C1.79285956,2.21428571 1.62497071,2.04905747 1.62497071,1.8452381 C1.62497071,1.64141872 1.79285956,1.47619048 1.99996095,1.47619048 Z" id="cloud-server" fill="currentColor"></path>
    </g>
</svg>