<?xml version="1.0" encoding="UTF-8"?>
<svg viewBox="0 0 513 336" version="1.1" xmlns="http://www.w3.org/2000/svg" xmlns:xlink="http://www.w3.org/1999/xlink">
    <title>Combined Shape</title>
    <g id="Page-1" stroke="none" stroke-width="1" fill="none" fill-rule="evenodd">
        <path d="M392,125.679936 C431.969001,125.939905 464.181744,158.510567 464,198.48 C463.998072,201.837126 463.754778,205.189769 463.272,208.512 C494.761817,216.550061 515.414859,246.685132 511.549324,278.95395 C507.683788,311.222769 480.497384,335.627072 448,336 L288,336 C257.220032,335.646693 230.943252,313.672993 225.148795,283.441296 C219.354338,253.209599 235.644043,223.077254 264.112,211.368 C265.729497,186.066683 286.647452,166.329862 312,166.184 C316.875986,166.177084 321.721524,166.952262 326.352,168.48 C337.791953,142.44116 363.558968,125.642045 392,125.679936 Z M336,-2.84217094e-14 C349.254834,-2.84217094e-14 360,10.745166 360,24 L360,72 C360,85.254834 349.254834,96 336,96 L328,96 L328,120 L336,120 C340.418278,120 344,123.581722 344,128 C344,132.418278 340.418278,136 336,136 L24,136 C19.581722,136 16,139.581722 16,144 L16,192 C16,196.418278 19.581722,200 24,200 L226.64,200 C231.058278,200 234.64,203.581722 234.64,208 C234.64,212.418278 231.058278,216 226.64,216 L48,216 L48,240 L203.2,240 C207.618278,240 211.2,243.581722 211.2,248 C211.2,252.418278 207.618278,256 203.2,256 L24,256 C19.581722,256 16,259.581722 16,264 L16,312 C16,316.418278 19.581722,320 24,320 L220.4,320 C224.818278,320 228.4,323.581722 228.4,328 C228.4,332.418278 224.818278,336 220.4,336 L24,336 C10.745166,336 0,325.254834 0,312 L0,264 C0,250.745166 10.745166,240 24,240 L32,240 L32,216 L24,216 C10.745166,216 0,205.254834 0,192 L0,144 C0,130.745166 10.745166,120 24,120 L32,120 L32,96 L24,96 C10.745166,96 0,85.254834 0,72 L0,24 C0,10.745166 10.745166,-2.84217094e-14 24,-2.84217094e-14 L336,-2.84217094e-14 Z M392,141.712 C367.342567,141.722166 345.609814,157.901426 338.528,181.52 C337.820975,183.817381 336.118417,185.675094 333.891253,186.579298 C331.664088,187.483502 329.148391,187.338353 327.04,186.184 C322.447152,183.596429 317.271478,182.21992 312,182.184 C294.203433,182.338029 279.889066,196.867112 280,214.664 C280.103825,215.2866 280.175918,215.914077 280.216,216.544 C280.421017,220.244703 278.057249,223.601651 274.504,224.656 C251.549017,231.661702 237.111428,254.336644 240.475144,278.099988 C243.838859,301.863332 264.002462,319.640455 288,320 L448,320 C473.568902,319.520053 494.411808,299.34637 495.725636,273.806735 C497.039464,248.2671 478.376681,226.061137 452.992,222.96 C450.675876,222.717497 448.580386,221.477795 447.252662,219.564582 C445.924938,217.651368 445.496787,215.254573 446.08,213 C447.329665,208.271206 447.974808,203.403065 448,198.512 C448.195153,167.373603 423.138032,141.958523 392,141.712 Z M64,280 C68.418278,280 72,283.581722 72,288 C72,292.418278 68.418278,296 64,296 C59.581722,296 56,292.418278 56,288 C56,283.581722 59.581722,280 64,280 Z M40,280 C44.418278,280 48,283.581722 48,288 C48,292.418278 44.418278,296 40,296 C35.581722,296 32,292.418278 32,288 C32,283.581722 35.581722,280 40,280 Z M88,280 C92.418278,280 96,283.581722 96,288 C96,292.418278 92.418278,296 88,296 C83.581722,296 80,292.418278 80,288 C80,283.581722 83.581722,280 88,280 Z M201.6,280 C206.018278,280 209.6,283.581722 209.6,288 C209.6,292.418278 206.018278,296 201.6,296 L168,296 C163.581722,296 160,292.418278 160,288 C160,283.581722 163.581722,280 168,280 Z M257.04,160 C261.458278,160 265.04,163.581722 265.04,168 C265.04,172.418278 261.458278,176 257.04,176 L168,176 C163.581722,176 160,172.418278 160,168 C160,163.581722 163.581722,160 168,160 L257.04,160 Z M64,160 C68.418278,160 72,163.581722 72,168 C72,172.418278 68.418278,176 64,176 C59.581722,176 56,172.418278 56,168 C56,163.581722 59.581722,160 64,160 Z M40,160 C44.418278,160 48,163.581722 48,168 C48,172.418278 44.418278,176 40,176 C35.581722,176 32,172.418278 32,168 C32,163.581722 35.581722,160 40,160 Z M88,160 C92.418278,160 96,163.581722 96,168 C96,172.418278 92.418278,176 88,176 C83.581722,176 80,172.418278 80,168 C80,163.581722 83.581722,160 88,160 Z M312,96 L48,96 L48,120 L312,120 L312,96 Z M336,16 L24,16 C19.581722,16 16,19.581722 16,24 L16,72 C16,76.418278 19.581722,80 24,80 L336,80 C340.418278,80 344,76.418278 344,72 L344,24 C344,19.581722 340.418278,16 336,16 Z M64,40 C68.418278,40 72,43.581722 72,48 C72,52.418278 68.418278,56 64,56 C59.581722,56 56,52.418278 56,48 C56,43.581722 59.581722,40 64,40 Z M40,40 C44.418278,40 48,43.581722 48,48 C48,52.418278 44.418278,56 40,56 C35.581722,56 32,52.418278 32,48 C32,43.581722 35.581722,40 40,40 Z M88,40 C92.418278,40 96,43.581722 96,48 C96,52.418278 92.418278,56 88,56 C83.581722,56 80,52.418278 80,48 C80,43.581722 83.581722,40 88,40 Z M320,40 C324.418278,40 328,43.581722 328,48 C328,52.418278 324.418278,56 320,56 L168,56 C163.581722,56 160,52.418278 160,48 C160,43.581722 163.581722,40 168,40 Z" id="Combined-Shape" fill="currentColor" fill-rule="nonzero"></path>
    </g>
</svg>