<?xml version="1.0" encoding="UTF-8"?>
<svg viewBox="0 53 338 194" version="1.1" xmlns="http://www.w3.org/2000/svg" xmlns:xlink="http://www.w3.org/1999/xlink">
    <defs>
        <path d="M23.9951864,16.927235 L18.7117391,16.927235 C18.6118782,16.2446844 18.4126594,15.635363 18.1140829,15.0992709 C17.8155063,14.5631788 17.4339848,14.1055668 16.9695183,13.7264349 C16.5050519,13.347303 15.9693685,13.0583163 15.3624682,12.8594749 C14.7555679,12.6606334 14.0946811,12.5612127 13.3798077,12.5612127 C12.1048832,12.5612127 10.9921069,12.8767682 10.0414788,13.5078791 C9.09085066,14.13899 8.35352747,15.0558176 7.82950921,16.2583618 C7.30549096,17.4609061 7.04348183,18.92024 7.04348183,20.6363636 C7.04348183,22.4007827 7.30788058,23.8830696 7.83667807,25.0832242 C8.36547557,26.2833788 9.10399356,27.1881325 10.052232,27.7974854 C11.0004705,28.4068382 12.1000411,28.7115146 13.3509437,28.7115146 C14.0512277,28.7115146 14.6999778,28.6193256 15.2971939,28.4349476 C15.8944099,28.2505697 16.4264774,27.9796938 16.8933964,27.62232 C17.3603153,27.2649462 17.7503263,26.8282748 18.0634292,26.3123058 C18.3765322,25.7963368 18.5926355,25.2083333 18.7117391,24.5482955 L23.9951864,24.5773482 C23.8567142,25.7106564 23.516225,26.801706 22.9737186,27.8504972 C22.4312123,28.8992883 21.7039821,29.837025 20.7920281,30.6637074 C19.8800741,31.4903897 18.7938351,32.1427871 17.5333112,32.6208995 C16.2727872,33.099012 14.8496749,33.3380682 13.2639741,33.3380682 C11.0584817,33.3380682 9.08761209,32.8398327 7.35136535,31.8433616 C5.6151186,30.8468905 4.24592989,29.401234 3.24379921,27.506392 C2.24166853,25.6115501 1.74060319,23.3215406 1.74060319,20.6363636 C1.74060319,17.9415024 2.24770546,15.6478771 3.26191001,13.7554876 C4.27611455,11.8630981 5.65253501,10.4198627 7.39117137,9.42578125 C9.12980773,8.43169981 11.0874086,7.93465909 13.2639741,7.93465909 C14.6998835,7.93465909 16.0312156,8.13507265 17.2579705,8.53589977 C18.4847253,8.93672689 19.5721905,9.52149177 20.5203661,10.2901944 C21.4685418,11.0588971 22.2428726,11.9994636 22.8433586,13.1118941 C23.4438447,14.2243245 23.8277873,15.4961048 23.9951864,16.927235 Z" id="path-1"></path>
        <filter x="-4.5%" y="-3.9%" width="118.0%" height="115.7%" filterUnits="objectBoundingBox" id="filter-2">
            <feOffset dx="1" dy="1" in="SourceAlpha" result="shadowOffsetOuter1"></feOffset>
            <feGaussianBlur stdDeviation="0.5" in="shadowOffsetOuter1" result="shadowBlurOuter1"></feGaussianBlur>
            <feColorMatrix values="0 0 0 0 1   0 0 0 0 1   0 0 0 0 1  0 0 0 0.454063266 0" type="matrix" in="shadowBlurOuter1"></feColorMatrix>
        </filter>
        <path d="M50.4707581,20.6363636 C50.4707581,23.3312248 49.9612348,25.6248502 48.9421881,27.5172397 C47.9231414,29.4096291 46.5394892,30.8528646 44.7912315,31.846946 C43.0429738,32.8410275 41.0757201,33.3380682 38.8894704,33.3380682 C36.6936622,33.3380682 34.722824,32.8386064 32.9769559,31.8396828 C31.2310878,30.8407593 29.8498253,29.3951028 28.8331682,27.5027133 C27.8165112,25.6103238 27.3081826,23.3215406 27.3081826,20.6363636 C27.3081826,17.9415024 27.8165112,15.6478771 28.8331682,13.7554876 C29.8498253,11.8630981 31.2310878,10.4198627 32.9769559,9.42578125 C34.722824,8.43169981 36.6936622,7.93465909 38.8894704,7.93465909 C41.0757201,7.93465909 43.0429738,8.43169981 44.7912315,9.42578125 C46.5394892,10.4198627 47.9231414,11.8630981 48.9421881,13.7554876 C49.9612348,15.6478771 50.4707581,17.9415024 50.4707581,20.6363636 Z M45.1680681,20.6363636 C45.1680681,18.891313 44.9084486,17.4187104 44.3892096,16.2185558 C43.8699706,15.0184012 43.1398791,14.1088053 42.1989352,13.4897683 C41.2579914,12.8707312 40.1548364,12.5612127 38.8894704,12.5612127 C37.6241043,12.5612127 36.5209493,12.8707312 35.5800055,13.4897683 C34.6390616,14.1088053 33.9090016,15.0184012 33.3898255,16.2185558 C32.8706493,17.4187104 32.6110613,18.891313 32.6110613,20.6363636 C32.6110613,22.3814142 32.8706493,23.8540169 33.3898255,25.0541715 C33.9090016,26.2543261 34.6390616,27.1639219 35.5800055,27.782959 C36.5209493,28.401996 37.6241043,28.7115146 38.8894704,28.7115146 C40.1548364,28.7115146 41.2579914,28.401996 42.1989352,27.782959 C43.1398791,27.1639219 43.8699706,26.2543261 44.3892096,25.0541715 C44.9084486,23.8540169 45.1680681,22.3814142 45.1680681,20.6363636 Z" id="path-3"></path>
        <filter x="-4.3%" y="-3.9%" width="117.3%" height="115.7%" filterUnits="objectBoundingBox" id="filter-4">
            <feOffset dx="1" dy="1" in="SourceAlpha" result="shadowOffsetOuter1"></feOffset>
            <feGaussianBlur stdDeviation="0.5" in="shadowOffsetOuter1" result="shadowBlurOuter1"></feGaussianBlur>
            <feColorMatrix values="0 0 0 0 1   0 0 0 0 1   0 0 0 0 1  0 0 0 0.454063266 0" type="matrix" in="shadowBlurOuter1"></feColorMatrix>
        </filter>
        <polygon id="path-5" points="54.3344416 8.27272727 60.7769798 8.27272727 67.5866389 24.8865523 67.8764116 24.8865523 74.6860707 8.27272727 81.1286089 8.27272727 81.1286089 33 76.0673962 33 76.0673962 16.9078036 75.854783 16.9078036 69.4605403 32.8841664 66.0025102 32.8841664 59.6082675 16.8498868 59.3956543 16.8498868 59.3956543 33 54.3344416 33"></polygon>
        <filter x="-3.7%" y="-4.0%" width="114.9%" height="116.2%" filterUnits="objectBoundingBox" id="filter-6">
            <feOffset dx="1" dy="1" in="SourceAlpha" result="shadowOffsetOuter1"></feOffset>
            <feGaussianBlur stdDeviation="0.5" in="shadowOffsetOuter1" result="shadowBlurOuter1"></feGaussianBlur>
            <feColorMatrix values="0 0 0 0 1   0 0 0 0 1   0 0 0 0 1  0 0 0 0.454063266 0" type="matrix" in="shadowBlurOuter1"></feColorMatrix>
        </filter>
        <polygon id="path-7" points="90.6622094 8.27272727 90.6622094 33 85.436679 33 85.436679 8.27272727"></polygon>
        <filter x="-19.1%" y="-4.0%" width="176.5%" height="116.2%" filterUnits="objectBoundingBox" id="filter-8">
            <feOffset dx="1" dy="1" in="SourceAlpha" result="shadowOffsetOuter1"></feOffset>
            <feGaussianBlur stdDeviation="0.5" in="shadowOffsetOuter1" result="shadowBlurOuter1"></feGaussianBlur>
            <feColorMatrix values="0 0 0 0 1   0 0 0 0 1   0 0 0 0 1  0 0 0 0.454063266 0" type="matrix" in="shadowBlurOuter1"></feColorMatrix>
        </filter>
        <polygon id="path-9" points="115.650255 8.27272727 115.650255 33 111.129914 33 100.379082 17.4390536 100.19571 17.4390536 100.19571 33 94.9701793 33 94.9701793 8.27272727 99.5484375 8.27272727 110.231543 23.8240523 110.443967 23.8240523 110.443967 8.27272727"></polygon>
        <filter x="-4.8%" y="-4.0%" width="119.3%" height="116.2%" filterUnits="objectBoundingBox" id="filter-10">
            <feOffset dx="1" dy="1" in="SourceAlpha" result="shadowOffsetOuter1"></feOffset>
            <feGaussianBlur stdDeviation="0.5" in="shadowOffsetOuter1" result="shadowBlurOuter1"></feGaussianBlur>
            <feColorMatrix values="0 0 0 0 1   0 0 0 0 1   0 0 0 0 1  0 0 0 0.454063266 0" type="matrix" in="shadowBlurOuter1"></feColorMatrix>
        </filter>
        <path d="M136.354579,16.26072 C136.185545,15.6795395 135.947275,15.1615582 135.639769,14.706776 C135.332262,14.2519938 134.959985,13.8640266 134.522936,13.5428744 C134.085888,13.2217222 133.586017,12.9778239 133.023325,12.8111794 C132.460632,12.6445349 131.84367,12.5612127 131.172439,12.5612127 C129.910217,12.5612127 128.801403,12.8743471 127.845995,13.5006159 C126.890588,14.1268847 126.146851,15.0388701 125.614783,16.2365723 C125.082716,17.4342744 124.816682,18.8911873 124.816682,20.6073109 C124.816682,22.3331188 125.078282,23.7997159 125.601483,25.0071023 C126.124684,26.2144886 126.865214,27.1337373 127.823074,27.7648482 C128.780934,28.3959591 129.913487,28.7115146 131.220735,28.7115146 C132.400703,28.7115146 133.41126,28.5005993 134.252406,28.0787686 C135.093552,27.656938 135.737114,27.0588416 136.183092,26.2844793 C136.629071,25.510117 136.85206,24.598163 136.85206,23.5486173 L137.91456,23.69822 L131.549181,23.69822 L131.549181,19.7670455 L141.89403,19.7670455 L141.89403,22.8870073 C141.89403,25.0537627 141.434814,26.9175397 140.516383,28.4783381 C139.597952,30.0391365 138.334221,31.2392911 136.72519,32.0788019 C135.116159,32.9183128 133.271656,33.3380682 131.191682,33.3380682 C128.871865,33.3380682 126.835407,32.8253377 125.082307,31.7998768 C123.329207,30.7744159 121.962848,29.3142959 120.98323,27.4195168 C120.003612,25.5247377 119.513803,23.2733709 119.513803,20.6654164 C119.513803,18.65625 119.806406,16.8652621 120.391611,15.2924527 C120.976816,13.7196433 121.795826,12.3854814 122.848642,11.2899669 C123.901458,10.1944525 125.128967,9.36135587 126.53117,8.79067716 C127.933374,8.21999845 129.451473,7.93465909 131.08547,7.93465909 C132.486038,7.93465909 133.790424,8.13708496 134.998628,8.5419367 C136.206831,8.94678844 137.279802,9.51988821 138.217538,10.261236 C139.155275,11.0025838 139.921966,11.8819636 140.51761,12.8993752 C141.113253,13.9167869 141.494775,15.0372351 141.662174,16.26072 L136.354579,16.26072 Z" id="path-11"></path>
        <filter x="-4.5%" y="-3.9%" width="117.9%" height="115.7%" filterUnits="objectBoundingBox" id="filter-12">
            <feOffset dx="1" dy="1" in="SourceAlpha" result="shadowOffsetOuter1"></feOffset>
            <feGaussianBlur stdDeviation="0.5" in="shadowOffsetOuter1" result="shadowBlurOuter1"></feGaussianBlur>
            <feColorMatrix values="0 0 0 0 1   0 0 0 0 1   0 0 0 0 1  0 0 0 0.454063266 0" type="matrix" in="shadowBlurOuter1"></feColorMatrix>
        </filter>
        <path d="M167.113884,15.3817805 C167.017294,14.4094571 166.602349,13.6528283 165.86905,13.1118941 C165.135752,12.5709598 164.143714,12.3004927 162.892937,12.3004927 C162.039718,12.3004927 161.318084,12.4208226 160.728037,12.6614824 C160.13799,12.9021421 159.689213,13.2309663 159.381707,13.6479548 C159.074201,14.0649433 158.918058,14.53988 158.913279,15.072765 C158.903594,15.5154733 158.999776,15.9022457 159.201825,16.2330822 C159.403874,16.5639186 159.686823,16.8480632 160.050674,17.0855158 C160.414525,17.3229685 160.833903,17.5269979 161.308809,17.6976041 C161.783714,17.8682103 162.289181,18.0138827 162.82521,18.1346214 L165.046801,18.6658714 C166.1254,18.9073486 167.115457,19.2301358 168.016972,19.634233 C168.918487,20.0383301 169.700867,20.5345847 170.364112,21.1229969 C171.027357,21.7114091 171.5421,22.4040527 171.90834,23.2009277 C172.274581,23.9978027 172.460154,24.9105742 172.465059,25.9392423 C172.460154,27.4492298 172.076997,28.7580178 171.315589,29.8656061 C170.554181,30.9731945 169.459107,31.8304388 168.030366,32.4373391 C166.601626,33.0442394 164.879465,33.3476895 162.863884,33.3476895 C160.866037,33.3476895 159.129413,33.0426358 157.654012,32.4325284 C156.178611,31.822421 155.029205,30.9156864 154.205792,29.7123247 C153.38238,28.5089629 152.948916,27.0162058 152.905399,25.2340532 L157.966801,25.2340532 C158.023146,26.0616159 158.262988,26.7514926 158.686328,27.3036832 C159.109668,27.8558738 159.675913,28.2704098 160.385064,28.5472911 C161.094215,28.8241725 161.901183,28.9626132 162.805968,28.9626132 C163.693019,28.9626132 164.463357,28.8346114 165.116981,28.5786077 C165.770604,28.3226041 166.278524,27.9660164 166.64074,27.5088445 C167.002956,27.0516727 167.186453,26.5219949 167.191233,25.9198109 C167.186453,25.3644132 167.021067,24.8979659 166.695072,24.520469 C166.369078,24.1429721 165.89455,23.8210024 165.271488,23.5545599 C164.648427,23.2881174 163.887773,23.0462314 162.989528,22.8289018 L160.294604,22.1623868 C158.208215,21.6552845 156.561736,20.8612393 155.355168,19.7802512 C154.148599,18.6992631 153.547767,17.2459976 153.552672,15.4204545 C153.547767,13.9249305 153.950606,12.6165198 154.76119,11.4952226 C155.571774,10.3739254 156.68499,9.50017386 158.10084,8.87396795 C159.516689,8.24776204 161.126946,7.93465909 162.931611,7.93465909 C164.766713,7.93465909 166.369267,8.24857955 167.739273,8.87642045 C169.109279,9.50426136 170.177816,10.3780129 170.944884,11.4976751 C171.711951,12.6173373 172.105987,13.9120391 172.12699,15.3817805 L167.113884,15.3817805 Z" id="path-13"></path>
        <filter x="-5.1%" y="-3.9%" width="120.5%" height="115.7%" filterUnits="objectBoundingBox" id="filter-14">
            <feOffset dx="1" dy="1" in="SourceAlpha" result="shadowOffsetOuter1"></feOffset>
            <feGaussianBlur stdDeviation="0.5" in="shadowOffsetOuter1" result="shadowBlurOuter1"></feGaussianBlur>
            <feColorMatrix values="0 0 0 0 1   0 0 0 0 1   0 0 0 0 1  0 0 0 0.454063266 0" type="matrix" in="shadowBlurOuter1"></feColorMatrix>
        </filter>
        <path d="M198.689467,20.6363636 C198.689467,23.3312248 198.179943,25.6248502 197.160897,27.5172397 C196.14185,29.4096291 194.758198,30.8528646 193.00994,31.846946 C191.261683,32.8410275 189.294429,33.3380682 187.108179,33.3380682 C184.912371,33.3380682 182.941533,32.8386064 181.195665,31.8396828 C179.449797,30.8407593 178.068534,29.3951028 177.051877,27.5027133 C176.03522,25.6103238 175.526891,23.3215406 175.526891,20.6363636 C175.526891,17.9415024 176.03522,15.6478771 177.051877,13.7554876 C178.068534,11.8630981 179.449797,10.4198627 181.195665,9.42578125 C182.941533,8.43169981 184.912371,7.93465909 187.108179,7.93465909 C189.294429,7.93465909 191.261683,8.43169981 193.00994,9.42578125 C194.758198,10.4198627 196.14185,11.8630981 197.160897,13.7554876 C198.179943,15.6478771 198.689467,17.9415024 198.689467,20.6363636 Z M193.386777,20.6363636 C193.386777,18.891313 193.127157,17.4187104 192.607918,16.2185558 C192.088679,15.0184012 191.358588,14.1088053 190.417644,13.4897683 C189.4767,12.8707312 188.373545,12.5612127 187.108179,12.5612127 C185.842813,12.5612127 184.739658,12.8707312 183.798714,13.4897683 C182.85777,14.1088053 182.12771,15.0184012 181.608534,16.2185558 C181.089358,17.4187104 180.82977,18.891313 180.82977,20.6363636 C180.82977,22.3814142 181.089358,23.8540169 181.608534,25.0541715 C182.12771,26.2543261 182.85777,27.1639219 183.798714,27.782959 C184.739658,28.401996 185.842813,28.7115146 187.108179,28.7115146 C188.373545,28.7115146 189.4767,28.401996 190.417644,27.782959 C191.358588,27.1639219 192.088679,26.2543261 192.607918,25.0541715 C193.127157,23.8540169 193.386777,22.3814142 193.386777,20.6363636 Z" id="path-15"></path>
        <filter x="-4.3%" y="-3.9%" width="117.3%" height="115.7%" filterUnits="objectBoundingBox" id="filter-16">
            <feOffset dx="1" dy="1" in="SourceAlpha" result="shadowOffsetOuter1"></feOffset>
            <feGaussianBlur stdDeviation="0.5" in="shadowOffsetOuter1" result="shadowBlurOuter1"></feGaussianBlur>
            <feColorMatrix values="0 0 0 0 1   0 0 0 0 1   0 0 0 0 1  0 0 0 0.454063266 0" type="matrix" in="shadowBlurOuter1"></feColorMatrix>
        </filter>
        <path d="M225.271257,20.6363636 C225.271257,23.3312248 224.761733,25.6248502 223.742687,27.5172397 C222.72364,29.4096291 221.339988,30.8528646 219.59173,31.846946 C217.843472,32.8410275 215.876219,33.3380682 213.689969,33.3380682 C211.494161,33.3380682 209.523323,32.8386064 207.777455,31.8396828 C206.031586,30.8407593 204.650324,29.3951028 203.633667,27.5027133 C202.61701,25.6103238 202.108681,23.3215406 202.108681,20.6363636 C202.108681,17.9415024 202.61701,15.6478771 203.633667,13.7554876 C204.650324,11.8630981 206.031586,10.4198627 207.777455,9.42578125 C209.523323,8.43169981 211.494161,7.93465909 213.689969,7.93465909 C215.876219,7.93465909 217.843472,8.43169981 219.59173,9.42578125 C221.339988,10.4198627 222.72364,11.8630981 223.742687,13.7554876 C224.761733,15.6478771 225.271257,17.9415024 225.271257,20.6363636 Z M219.968567,20.6363636 C219.968567,18.891313 219.708947,17.4187104 219.189708,16.2185558 C218.670469,15.0184012 217.940378,14.1088053 216.999434,13.4897683 C216.05849,12.8707312 214.955335,12.5612127 213.689969,12.5612127 C212.424603,12.5612127 211.321448,12.8707312 210.380504,13.4897683 C209.43956,14.1088053 208.7095,15.0184012 208.190324,16.2185558 C207.671148,17.4187104 207.41156,18.891313 207.41156,20.6363636 C207.41156,22.3814142 207.671148,23.8540169 208.190324,25.0541715 C208.7095,26.2543261 209.43956,27.1639219 210.380504,27.782959 C211.321448,28.401996 212.424603,28.7115146 213.689969,28.7115146 C214.955335,28.7115146 216.05849,28.401996 216.999434,27.782959 C217.940378,27.1639219 218.670469,26.2543261 219.189708,25.0541715 C219.708947,23.8540169 219.968567,22.3814142 219.968567,20.6363636 Z" id="path-17"></path>
        <filter x="-4.3%" y="-3.9%" width="117.3%" height="115.7%" filterUnits="objectBoundingBox" id="filter-18">
            <feOffset dx="1" dy="1" in="SourceAlpha" result="shadowOffsetOuter1"></feOffset>
            <feGaussianBlur stdDeviation="0.5" in="shadowOffsetOuter1" result="shadowBlurOuter1"></feGaussianBlur>
            <feColorMatrix values="0 0 0 0 1   0 0 0 0 1   0 0 0 0 1  0 0 0 0.454063266 0" type="matrix" in="shadowBlurOuter1"></feColorMatrix>
        </filter>
        <polygon id="path-19" points="249.815016 8.27272727 249.815016 33 245.294675 33 234.543842 17.4390536 234.360471 17.4390536 234.360471 33 229.13494 33 229.13494 8.27272727 233.713198 8.27272727 244.396304 23.8240523 244.608728 23.8240523 244.608728 8.27272727"></polygon>
        <filter x="-4.8%" y="-4.0%" width="119.3%" height="116.2%" filterUnits="objectBoundingBox" id="filter-20">
            <feOffset dx="1" dy="1" in="SourceAlpha" result="shadowOffsetOuter1"></feOffset>
            <feGaussianBlur stdDeviation="0.5" in="shadowOffsetOuter1" result="shadowBlurOuter1"></feGaussianBlur>
            <feColorMatrix values="0 0 0 0 1   0 0 0 0 1   0 0 0 0 1  0 0 0 0.454063266 0" type="matrix" in="shadowBlurOuter1"></feColorMatrix>
        </filter>
    </defs>
    <g id="Argon-Treasury" stroke="none" stroke-width="1" fill="none" fill-rule="evenodd">
        <g id="Frame">
            <g id="coming-soon-banner">
                <path d="M376.537365,152.667065 L-8.13215592,152.8832 L94.1703673,93.8188108 L342.377458,93.5003707 Z" id="Rectangle" stroke="#ADB0B6" fill="#D2D6D9" transform="translate(183.7016, 123.1921) rotate(30) translate(-183.7016, -123.1921)"></path>
                <g id="COMING-SOON" transform="translate(204.1502, 136.0083) rotate(30) translate(-204.1502, -136.0083)translate(78.1502, 115.5083)" fill-rule="nonzero">
                    <g id="Path">
                        <use fill="black" fill-opacity="1" filter="url(#filter-2)" xlink:href="#path-1"></use>
                        <use fill="#88898C" xlink:href="#path-1"></use>
                    </g>
                    <g id="Shape">
                        <use fill="black" fill-opacity="1" filter="url(#filter-4)" xlink:href="#path-3"></use>
                        <use fill="#88898C" xlink:href="#path-3"></use>
                    </g>
                    <g id="Path">
                        <use fill="black" fill-opacity="1" filter="url(#filter-6)" xlink:href="#path-5"></use>
                        <use fill="#88898C" xlink:href="#path-5"></use>
                    </g>
                    <g id="Path">
                        <use fill="black" fill-opacity="1" filter="url(#filter-8)" xlink:href="#path-7"></use>
                        <use fill="#88898C" xlink:href="#path-7"></use>
                    </g>
                    <g id="Path">
                        <use fill="black" fill-opacity="1" filter="url(#filter-10)" xlink:href="#path-9"></use>
                        <use fill="#88898C" xlink:href="#path-9"></use>
                    </g>
                    <g id="Path">
                        <use fill="black" fill-opacity="1" filter="url(#filter-12)" xlink:href="#path-11"></use>
                        <use fill="#88898C" xlink:href="#path-11"></use>
                    </g>
                    <g id="Path">
                        <use fill="black" fill-opacity="1" filter="url(#filter-14)" xlink:href="#path-13"></use>
                        <use fill="#88898C" xlink:href="#path-13"></use>
                    </g>
                    <g id="Shape">
                        <use fill="black" fill-opacity="1" filter="url(#filter-16)" xlink:href="#path-15"></use>
                        <use fill="#88898C" xlink:href="#path-15"></use>
                    </g>
                    <g id="Shape">
                        <use fill="black" fill-opacity="1" filter="url(#filter-18)" xlink:href="#path-17"></use>
                        <use fill="#88898C" xlink:href="#path-17"></use>
                    </g>
                    <g id="Path">
                        <use fill="black" fill-opacity="1" filter="url(#filter-20)" xlink:href="#path-19"></use>
                        <use fill="#88898C" xlink:href="#path-19"></use>
                    </g>
                </g>
            </g>
        </g>
    </g>
</svg>
