<?xml version="1.0" encoding="UTF-8"?>
<svg viewBox="0 0 29 29" version="1.1" xmlns="http://www.w3.org/2000/svg" xmlns:xlink="http://www.w3.org/1999/xlink">
    <g id="Argon-Treasury" stroke="none" stroke-width="1" fill="none" fill-rule="evenodd">
        <g id="Frame-9" transform="translate(-835.177, -236.5455)" fill="currentColor">
            <g id="Group" transform="translate(403.0154, 189.5455)">
                <g id="CONNECT-BUTTON" transform="translate(426.823, 42.733)" fill-rule="nonzero">
                    <g id="Group" transform="translate(6.5, 5.5)">
                        <path d="M10.1274533,8.95951625 C10.7681965,8.95951625 11.3839664,9.21430193 11.8369712,9.66730706 C12.2900124,10.1204989 12.5441017,10.7350838 12.5441017,11.3761657 C12.5441017,12.0172741 12.2899921,12.6319279 11.8367858,13.0852097 L11.2117898,13.7097545 C10.8016339,14.1196428 10.3622242,14.5588121 9.92284486,14.9979818 L9.796,15.122 L11.376,16.702 L11.5008423,16.5795054 C11.7923657,16.2878562 12.0838875,15.9960932 12.368616,15.7109825 L12.789765,15.2891513 C13.0129848,15.0655014 13.2214387,14.8565266 13.41241,14.6649367 C13.8661573,14.2111879 14.4819271,13.9564022 15.1226703,13.9564022 C15.763451,13.9564022 16.379171,14.2111756 16.8321882,14.6641931 C17.2852294,15.1173849 17.5393187,15.7319698 17.5393187,16.3730517 C17.5393187,17.0141601 17.2852091,17.6288139 16.8320028,18.0820957 L16.207015,18.7066372 C15.7968665,19.1165241 15.3574686,19.5556922 14.918104,19.9948607 L14.792,20.119 L14.9595023,20.2856886 C15.1881009,20.5142773 15.2108266,20.870741 15.027772,21.1247557 L14.9591324,21.2053169 L14.9200453,21.2443479 L14.8083002,21.3559673 C14.6872544,21.4768972 14.5504759,21.6136011 14.4007948,21.7632704 C13.9731297,22.1909014 13.5278035,22.6367018 13.0874651,23.0781945 C11.2616359,24.9018174 8.39550828,25.0451305 6.40681555,23.5088277 L2.95965031,26.9594401 C2.70588982,27.2133986 2.29429561,27.2135377 2.04036357,26.9597507 L-0.459488085,24.4613269 C-0.71348441,24.2074757 -0.713506836,23.7957545 -0.459538167,23.5418756 L2.99146324,20.0911364 C1.4540913,18.103964 1.59788887,15.2375216 3.42290323,13.4147141 C3.86282012,12.9736664 4.30855734,12.52747 4.73662468,12.0994453 C4.88644984,11.9496351 5.02336793,11.8127937 5.14455,11.6917286 L5.25646871,11.5799365 L5.29570821,11.5407535 C5.54960631,11.2872745 5.9608631,11.2874399 6.21455726,11.541123 L6.378,11.705 L6.50400493,11.580065 C6.79695559,11.287251 7.08991847,10.9944369 7.37440949,10.7101053 L7.79373162,10.2910304 L8.41805428,9.6671333 C8.87089233,9.21429489 9.48666507,8.95951625 10.1274533,8.95951625 Z M3.88188518,21.0401394 L0.919451434,24.0015262 L2.49954107,25.5807133 L5.45887197,22.6190729 L3.88188518,21.0401394 Z M5.75477192,12.9197954 L5.65581764,13.01873 C5.22813291,13.4463721 4.78279388,13.8921699 4.34245263,14.3336414 C2.86890029,15.8054135 2.86890029,18.1899431 4.34157845,19.6607936 C5.33193481,20.6502126 6.12368913,21.4427296 6.83830618,22.1606039 C8.31015354,23.6306209 10.6947807,23.6306209 12.1679032,22.1592797 C12.6078105,21.7182176 13.0535399,21.2720135 13.4815926,20.8439949 L13.5804607,20.7451446 L13.43,20.595 L13.4128742,20.5800557 L11.296,18.461 L7.818,14.983 L5.91816026,13.0851558 C5.91377014,13.0807681 5.9094559,13.0763334 5.90521753,13.0718531 L5.75477192,12.9197954 Z M15.1226703,15.2564022 C14.8265308,15.2564022 14.5414731,15.3743499 14.3323915,15.5834316 C14.1419482,15.774493 13.9332974,15.9836652 13.7036317,16.2137734 C13.2952739,16.622914 12.8577747,17.0608619 12.4202792,17.498546 L12.296318,17.6225533 L13.873,19.2 L13.9990704,19.0754167 C14.2919983,18.7826196 14.5849413,18.4898222 14.8694641,18.2054598 L15.2888786,17.7862967 L15.912912,17.1627088 C16.1219328,16.9536527 16.2393187,16.669713 16.2393187,16.3730517 C16.2393187,16.0764037 16.1219406,15.7924926 15.9128729,15.5833553 C15.7038515,15.3743338 15.418842,15.2564022 15.1226703,15.2564022 Z M23.5403464,-0.45943684 C23.7941064,-0.713398433 24.2057031,-0.713538955 24.4596364,-0.459750693 L26.9594881,2.03867306 C27.2134857,2.29252558 27.2135067,2.70424926 26.9595349,2.95812764 L23.5077547,6.4078512 C25.0459613,8.39511433 24.9024222,11.2621622 23.0771023,13.0852749 C22.6371917,13.5263403 22.1914489,13.9725475 21.7633762,14.4005689 C21.6135491,14.550378 21.4766292,14.6872168 21.3554453,14.8082783 L21.2435243,14.9200672 L21.2042827,14.9592501 C20.9503822,15.2127154 20.5391367,15.2125434 20.2854482,14.958866 L11.5405032,6.21430039 C11.2865047,5.96031293 11.2866704,5.54845517 11.5408731,5.2946721 L11.5799612,5.25564024 L11.6917073,5.14402055 C11.8127539,5.02309082 11.9495333,4.886388 12.0992153,4.73672088 C12.5268829,4.309096 12.9722116,3.86330848 13.4125529,3.421837 C15.238057,1.59848068 18.1035332,1.45490485 20.092189,2.99043127 Z M10.1274533,10.2595163 C9.83126342,10.2595163 9.54620432,10.3774607 9.33711955,10.5865456 L8.71268505,11.2105545 C8.30186424,11.6211204 7.86243339,12.0603191 7.42302922,12.4995183 L7.297,12.624 L8.87746858,14.2048211 L9.00382545,14.0785236 C9.44322964,13.6393291 9.88266507,13.2001341 10.2928509,12.7902159 L10.917695,12.1658228 C11.1267158,11.9567667 11.2441017,11.672827 11.2441017,11.3761657 C11.2441017,11.0795177 11.1267236,10.7956066 10.9176558,10.5864693 C10.7086506,10.3774639 10.4235928,10.2595163 10.1274533,10.2595163 Z M14.3321096,4.34075699 C13.8921854,4.78181197 13.4464585,5.2279981 13.0184083,5.65600555 L12.9195473,5.75484693 L20.7452428,13.5802028 L20.8441925,13.481275 C21.2718718,13.0536469 21.7172053,12.6078495 22.1575404,12.1663602 C23.6311064,10.6945742 23.6311064,8.31009402 22.1584197,6.83918807 C21.1995528,5.88129353 20.3860621,5.06700604 19.6617304,4.33947123 C18.1898463,2.86937052 15.8052304,2.86937052 14.3321096,4.34075699 Z M24.0004622,0.919289995 L21.0411349,3.88096875 L22.618108,5.45981899 L25.5805453,2.49847058 L24.0004622,0.919289995 Z" id="connect"></path>
                    </g>
                </g>
            </g>
        </g>
    </g>
</svg>