<svg viewBox="148.5573 403.424279 50 31" xmlns="http://www.w3.org/2000/svg">
    <path d="M180.746968,403.424279 C182.22129,403.424279 183.420686,404.632446 183.420686,406.116546 C183.420686,407.165954 182.820999,408.077172 181.948464,408.520934 C182.967328,411.650403 185.627867,417.852004 188.835177,418.131589 C190.713855,418.287357 192.781591,416.318229 194.840794,412.402842 C193.882635,411.994317 193.210311,411.038098 193.210311,409.926951 C193.210311,408.442851 194.409707,407.235135 195.884029,407.235135 C197.357904,407.235135 198.5573,408.442851 198.5573,409.926951 C198.5573,411.157481 197.732744,412.198003 196.610848,412.517644 L191.5253,427.478279 L191.525882,433.637441 C191.525882,434.072273 191.176748,434.424279 190.744912,434.424279 L156.369688,434.424279 C155.937852,434.424279 155.588717,434.072273 155.588717,433.637441 L155.5883,427.475279 L150.493752,412.514774 C149.37696,412.191813 148.5573,411.153822 148.5573,409.926951 C148.5573,408.442851 149.756695,407.235135 151.230571,407.235135 C152.704893,407.235135 153.904289,408.442851 153.904289,409.926951 C153.904289,411.052368 153.214327,412.018852 152.238117,412.420283 C153.074728,414.215232 155.158976,418.085675 157.553884,418.085675 C157.586518,418.085675 157.619599,418.084775 157.653126,418.082974 C159.198253,418.013864 161.590119,416.267155 164.309457,408.4666 C163.490847,408.005746 162.937083,407.124828 162.937083,406.116096 C162.937083,404.631996 164.136479,403.424279 165.610354,403.424279 C167.084676,403.424279 168.284072,404.632446 168.284072,406.116546 C168.284072,407.338294 167.471242,408.372737 166.361344,408.700285 C167.602919,411.971239 170.532069,418.039311 173.562664,418.039311 C173.571605,418.039311 173.580099,418.038861 173.589486,418.038861 C175.118999,418.020211 177.440774,416.354226 179.946202,408.684652 C178.861886,408.341077 178.073697,407.319547 178.073697,406.116096 C178.073697,404.631996 179.273093,403.424279 180.746968,403.424279 Z M157.1503,428.130279 L157.151106,432.851052 L189.963494,432.851052 L189.9633,428.130279 L157.1503,428.130279 Z M165.309946,410.296063 C162.988939,416.463383 160.498059,419.529713 157.722417,419.654851 C156.299504,419.710218 155.060322,418.996301 153.993249,417.93713 L156.927588,426.557694 L190.186117,426.557694 L193.246968,417.552263 C191.767728,419.128641 190.26569,419.831755 188.699278,419.699414 C184.850305,419.362262 182.20922,413.777419 180.981214,410.494573 C178.812199,416.591222 176.390609,419.578778 173.607368,419.611638 C173.592169,419.611638 173.577863,419.612538 173.562664,419.612538 C169.67301,419.612538 166.670275,413.608167 165.309946,410.296063 Z M151.230571,408.808362 C150.618132,408.808362 150.119688,409.309814 150.119688,409.926951 C150.119688,410.544088 150.618132,411.04554 151.230571,411.04554 C151.843456,411.04554 152.3419,410.544088 152.3419,409.926951 C152.3419,409.309814 151.843456,408.808362 151.230571,408.808362 Z M195.884029,408.808362 C195.271144,408.808362 194.773146,409.309814 194.773146,409.926951 C194.773146,410.495913 195.196428,410.966546 195.742781,411.036557 C195.887878,410.973742 196.051297,410.957231 196.210972,410.993288 C196.664515,410.855164 196.994912,410.429399 196.994912,409.926951 C196.994912,409.309814 196.496467,408.808362 195.884029,408.808362 Z M165.610354,404.997957 C164.997916,404.997957 164.499471,405.499859 164.499471,406.116546 C164.499471,406.733683 164.997916,407.235135 165.610354,407.235135 C166.223239,407.235135 166.721237,406.733233 166.721237,406.116546 C166.721237,405.499409 166.223239,404.997957 165.610354,404.997957 Z M180.746968,404.997957 C180.13453,404.997957 179.636085,405.499859 179.636085,406.116546 C179.636085,406.733683 180.13453,407.235135 180.746968,407.235135 C181.359853,407.235135 181.858298,406.733683 181.858298,406.116546 C181.858298,405.499859 181.359853,404.997957 180.746968,404.997957 Z" fill="currentColor" fill-rule="nonzero" />
</svg>
