<?xml version="1.0" encoding="UTF-8"?>
<svg width="58px" height="58px" viewBox="0 0 58 58" version="1.1" xmlns="http://www.w3.org/2000/svg" xmlns:xlink="http://www.w3.org/1999/xlink">
    <title>debug</title>
    <g id="Page-1" stroke="none" stroke-width="1" fill="none" fill-rule="evenodd">
        <path d="M29,0.25 C30.5166,0.25 31.75,1.4834 31.75,3 L31.75,3.429 C43.6698,4.7015 53.299,14.3302 54.5715,26.25 L55,26.25 C56.5166,26.25 57.75,27.4834 57.75,29 C57.75,30.5166 56.5166,31.75 55,31.75 L54.5715,31.75 C53.299,43.6698 43.6698,53.2985 31.75,54.571 L31.75,55 C31.75,56.5166 30.5166,57.75 29,57.75 C27.4834,57.75 26.25,56.5166 26.25,55 L26.25,54.571 C14.3302,53.2985 4.7015,43.6698 3.429,31.75 L3,31.75 C1.4834,31.75 0.25,30.5166 0.25,29 C0.25,27.4834 1.4834,26.25 3,26.25 L3.429,26.25 C4.7015,14.3302 14.3302,4.7015 26.25,3.429 L26.25,3 C26.25,1.4834 27.4834,0.25 29,0.25 Z M29,47.75 C28.3105,47.75 27.75,48.3105 27.75,49 L27.75,55 C27.75,55.6895 28.3105,56.25 29,56.25 C29.6895,56.25 30.25,55.6895 30.25,55 L30.25,49 C30.25,48.3105 29.6895,47.75 29,47.75 Z M7.448,31.7499 L4.9387,31.7499 C6.1992,42.8479 15.1519,51.8007 26.2499,53.0611 L26.2499,50.5519 C16.4345,49.3147 8.6852,41.5655 7.448,31.7499 Z M53.0607,31.7501 L50.5529,31.7501 C49.3147,41.5655 41.5651,49.3152 31.75,50.552 L31.75,53.0613 C42.848,51.8008 51.8008,42.8481 53.0607,31.7501 Z M31.75,8.9608 L31.75,9 C31.75,10.5166 30.5166,11.75 29,11.75 C27.4834,11.75 26.25,10.5166 26.25,9 L26.25,8.9608 C17.2644,10.1788 10.1789,17.2643 8.9608,26.25 L9,26.25 C10.5166,26.25 11.75,27.4834 11.75,29 C11.75,30.5166 10.5166,31.75 9,31.75 L8.9608,31.75 C10.1788,40.7356 17.2643,47.8211 26.25,49.0392 L26.25,49 C26.25,47.4834 27.4834,46.25 29,46.25 C30.5166,46.25 31.75,47.4834 31.75,49 L31.75,49.0392 C40.7356,47.8212 47.8211,40.7357 49.0392,31.75 L49,31.75 C47.4834,31.75 46.25,30.5166 46.25,29 C46.25,27.4834 47.4834,26.25 49,26.25 L49.0392,26.25 C47.8212,17.2644 40.7357,10.1789 31.75,8.9608 Z M35.8173,14.2723 C36.2197,14.1746 36.6259,14.4149 36.7275,14.8172 C36.8281,15.2191 36.584,15.6263 36.1826,15.7274 C34.6125,16.1214 33.1994,16.9822 32.1207,18.1773 C33.7006,19.2033 34.75,20.9799 34.75,22.9999 L34.75,23.2499 L35,23.2499 C36.4668,23.2499 37.6579,24.4067 37.7353,25.8545 C39.2866,25.2909 40.5711,24.167 41.3301,22.6621 C41.5176,22.2925 41.9668,22.1436 42.3379,22.3306 C42.7078,22.5167 42.8562,22.9679 42.6697,23.3375 C41.6551,25.3461 39.881,26.8022 37.7498,27.4229 L37.7498,31.9996 C37.7498,32.8904 37.6143,33.75 37.3657,34.5604 C39.0144,35.1029 40.3441,36.3352 41.0057,37.9913 L41.6961,39.7218 C41.8504,40.1066 41.6629,40.5426 41.2781,40.6964 C41.1863,40.7325 41.0926,40.7497 40.9998,40.7497 C40.7019,40.7497 40.4207,40.5713 40.3035,40.2774 L39.6131,38.5474 C39.1046,37.2766 38.074,36.336 36.7976,35.9485 C35.3514,38.7924 32.4029,40.7497 28.9998,40.7497 C25.5967,40.7497 22.6483,38.7925 21.202,35.9485 C19.9257,36.3361 18.8945,37.2771 18.386,38.5485 L17.6965,40.2775 C17.5793,40.571 17.2976,40.7497 16.9997,40.7497 C16.907,40.7497 16.8132,40.7326 16.7219,40.6965 C16.3372,40.5427 16.1497,40.1067 16.303,39.7219 L16.9929,37.9919 C17.6558,36.3355 18.9853,35.1032 20.634,34.5606 C20.3854,33.7501 20.2498,32.8906 20.2498,31.9997 L20.2498,27.423 C18.1187,26.8024 16.3446,25.3462 15.3304,23.3376 C15.1438,22.968 15.2918,22.5168 15.6619,22.3303 C16.031,22.1432 16.4832,22.2912 16.6692,22.6618 C17.4291,24.1667 18.7136,25.2904 20.2645,25.8541 C20.3419,24.4064 21.5331,23.2497 22.9998,23.2497 L23.2498,23.2497 L23.2498,22.9997 C23.2498,20.9799 24.2991,19.2033 25.8789,18.1774 C24.8011,16.9824 23.3879,16.1217 21.8172,15.7273 C21.4154,15.6262 21.1717,15.2189 21.2723,14.8171 C21.3729,14.4153 21.7826,14.1731 22.1825,14.2722 C24.1875,14.7761 25.9744,15.9215 27.2815,17.5126 C27.8244,17.3422 28.4015,17.2498 28.9999,17.2498 C29.5983,17.2498 30.1755,17.3422 30.7184,17.5126 C32.0262,15.921 33.8127,14.7757 35.8173,14.2723 Z M28.25,24.75 L23,24.75 C22.3105,24.75 21.75,25.3105 21.75,26 L21.75,32 C21.75,35.7443 24.6035,38.8344 28.25,39.211 L28.25,24.75 Z M35,24.75 L29.75,24.75 L29.75,39.2111 C33.3969,38.8346 36.25,35.7443 36.25,32 L36.25,26 C36.25,25.3105 35.6895,24.75 35,24.75 Z M9,27.75 L3,27.75 C2.3105,27.75 1.75,28.3105 1.75,29 C1.75,29.6895 2.3105,30.25 3,30.25 L9,30.25 C9.6895,30.25 10.25,29.6895 10.25,29 C10.25,28.3105 9.6895,27.75 9,27.75 Z M55,27.75 L49,27.75 C48.3105,27.75 47.75,28.3105 47.75,29 C47.75,29.6895 48.3105,30.25 49,30.25 L55,30.25 C55.6895,30.25 56.25,29.6895 56.25,29 C56.25,28.3105 55.6895,27.75 55,27.75 Z M31.75,4.9389 L31.75,7.4481 C41.5651,8.6849 49.3147,16.4345 50.5529,26.2501 L53.0607,26.2501 C51.8007,15.1521 42.848,6.1993 31.75,4.9389 Z M26.2501,4.9387 C15.1521,6.1992 6.1993,15.1519 4.9389,26.2499 L7.4481,26.2499 C8.6853,16.4345 16.4345,8.6852 26.2501,7.448 Z M29,18.75 C26.6567,18.75 24.75,20.6567 24.75,23 L24.75,23.25 L33.25,23.25 L33.25,23 C33.25,20.6567 31.3433,18.75 29,18.75 Z M29,1.75 C28.3105,1.75 27.75,2.3105 27.75,3 L27.75,9 C27.75,9.6895 28.3105,10.25 29,10.25 C29.6895,10.25 30.25,9.6895 30.25,9 L30.25,3 C30.25,2.3105 29.6895,1.75 29,1.75 Z" id="debug" fill="#000000" fill-rule="nonzero"></path>
    </g>
</svg>