<?xml version="1.0" encoding="UTF-8"?>
<svg viewBox="0 0 683 634" version="1.1" xmlns="http://www.w3.org/2000/svg" xmlns:xlink="http://www.w3.org/1999/xlink">
    <title>Combined Shape</title>
    <g id="Page-1" stroke="none" stroke-width="1" fill="none" fill-rule="evenodd">
        <path d="M632.666651,0.66668645 C660.189498,0.66668645 682.66665,23.1438384 682.66665,50.6666852 L682.66665,490.666673 C682.66665,518.189521 660.189498,540.666673 632.666651,540.666673 L419.257,540.665686 L431.29258,582.791522 C436.109892,599.652646 455.130964,614.000004 472.666655,614.000004 L547.999986,614.000004 C553.522834,614.000004 557.999986,618.477157 557.999986,624.000004 C557.999986,629.522852 553.522834,634.000004 547.999986,634.000004 L134.666664,634.000004 C129.143816,634.000004 124.666664,629.522852 124.666664,624.000004 C124.666664,618.477157 129.143816,614.000004 134.666664,614.000004 L209.999995,614.000004 C227.535686,614.000004 246.556758,599.652646 251.374065,582.791541 L263.409,540.665686 L50,540.666673 C22.4771524,540.666673 -1.9706087e-13,518.189521 -2.00431447e-13,490.666673 L-2.54315904e-13,50.6666852 C-2.57686481e-13,23.1438383 22.4771524,0.66668645 50,0.66668645 L632.666651,0.66668645 Z M398.456,540.665686 L284.209,540.665686 L270.604584,588.285821 C267.869708,597.858189 262.361654,606.69753 255.145078,614.000834 L427.52157,614.00083 C420.304994,606.697523 414.796939,597.858178 412.062061,588.285803 L398.456,540.665686 Z M662.666,420.665686 L19.999,420.665686 L19.9999995,490.666673 C19.9999995,506.979054 33.2537424,520.395921 49.5065818,520.662627 L49.9999995,520.666673 L276.447691,520.666407 C276.572319,520.663718 276.697267,520.663372 276.822477,520.665401 L405.844771,520.665392 C405.969781,520.663374 406.094529,520.663723 406.218958,520.666407 L632.666651,520.666673 C649.143803,520.666673 662.66665,507.143826 662.66665,490.666673 L662.666,420.665686 Z M341.333326,440.666674 C357.901505,440.666674 371.333326,454.098494 371.333326,470.666674 C371.333326,487.234855 357.901505,500.666674 341.333326,500.666674 C324.765144,500.666674 311.333326,487.234855 311.333326,470.666674 C311.333326,454.098494 324.765145,440.666674 341.333326,440.666674 Z M341.333325,460.666674 C335.81084,460.666674 331.333325,465.144189 331.333325,470.666674 C331.333325,476.18916 335.810839,480.666674 341.333325,480.666674 C346.855811,480.666674 351.333325,476.18916 351.333325,470.666674 C351.333325,465.144189 346.85581,460.666674 341.333325,460.666674 Z M632.666651,20.6666859 L49.9999995,20.666686 C33.5228471,20.666686 19.9999995,34.1895332 19.9999995,50.6666852 L19.999,400.665686 L662.666,400.665686 L662.66665,50.6666852 C662.66665,34.3543046 649.412908,20.9374383 633.160069,20.6707322 L632.666651,20.6666859 Z M632.666651,40.6666769 C638.189498,40.6666769 642.666651,45.1438298 642.666651,50.6666769 L642.666651,370.666677 C642.666651,376.189525 638.189498,380.666677 632.666651,380.666677 L49.999999,380.666677 C44.4771514,380.666677 39.999999,376.189525 39.999999,370.666677 L39.999999,230.666677 C39.999999,225.14383 44.4771514,220.666677 49.999999,220.666677 C55.5228461,220.666677 59.999999,225.14383 59.999999,230.666677 L59.999999,360.666677 L622.666651,360.666677 L622.666651,60.6666769 L59.999999,60.666677 L59.999999,190.666677 C59.999999,196.189525 55.5228461,200.666677 49.999999,200.666677 C44.4771514,200.666677 39.999999,196.189525 39.999999,190.666677 L39.999999,50.666677 C39.999999,45.1438298 44.4771514,40.666677 49.999999,40.666677 L632.666651,40.6666769 Z" id="Combined-Shape" fill="currentColor" fill-rule="nonzero"></path>
    </g>
</svg>