<?xml version="1.0" encoding="UTF-8"?>
<svg viewBox="0 0 618 621" version="1.1" xmlns="http://www.w3.org/2000/svg" xmlns:xlink="http://www.w3.org/1999/xlink">
    <title>Combined Shape</title>
    <g id="Page-1" stroke="none" stroke-width="1" fill="none" fill-rule="evenodd">
        <path d="M240.989,540.338 C246.506,554.141 257.536,565.314 271.251,570.993 L271.906,571.264 C278.875,574.15 276.724,582.345 271.529,585.276 C257.791,590.876 246.701,601.986 241.108,615.755 C237.481,622.304 230.576,622.309 226.943,615.763 C221.346,601.986 210.256,590.876 196.513,585.274 C190.192,581.798 190.257,574.596 196.51,571.114 C210.257,565.511 221.347,554.401 226.94,540.632 C229.902,535.443 238.106,533.126 240.989,540.338 Z M234.025,559.049 C228.944,566.585 222.432,573.105 214.905,578.193 C222.431,583.281 228.942,589.801 234.024,597.336 C239.107,589.8 245.618,583.28 253.144,578.192 C245.616,573.103 239.108,566.585 234.025,559.049 Z M357.125,145.474 L434.512,218.791 C437.045,221.089 437.715,224.887 436.049,227.939 L410.272,276.11 L544.292,304.569 C546.553,305.007 548.502,306.477 549.544,308.524 L593.042,390.252 C594.662,393.153 594.114,396.342 592.057,398.929 C591.91,399.093 591.754,399.249 591.595,399.399 L499.903,485.853 C496.326,488.677 492.792,488.573 489.301,485.541 C486.46,482.527 486.599,477.781 489.613,474.939 L570.93,398.267 L500.124,383.231 L423.61,537.17 L458.702,504.082 C466.121,497.506 475.996,507.969 468.992,514.996 L403.4,576.841 C399.74,580.356 393.245,579.025 391.282,574.319 L329.011,427.968 L294.561,492.347 C292.179,496.885 285.589,497.627 282.25,493.772 L148.969,343.334 C142.539,336.075 153.765,326.13 160.197,333.387 L265.64,452.402 L190.694,260.37 L104.605,270.637 L134.364,304.227 C140.736,311.421 129.655,321.531 123.136,314.174 L83.876,269.86 C81.601,267.26 81.382,263.457 83.293,260.66 L141.733,171.125 C142.947,169.196 145.051,167.889 147.324,167.661 L350.818,143.393 C353.244,143.107 355.346,143.801 357.125,145.474 Z M145.356,553.092 C146.651,556.333 145.574,560.271 142.586,562.192 C139.219,564.466 134.432,563.518 132.196,560.122 C129.958,556.726 130.839,551.981 134.266,549.722 C137.812,547.33 143.666,548.66 145.356,553.092 Z M322.93,540.256 C324.225,543.497 323.148,547.435 320.16,549.356 C316.793,551.63 312.006,550.682 309.77,547.286 C307.532,543.89 308.413,539.145 311.84,536.886 C315.386,534.494 321.24,535.824 322.93,540.256 Z M394.945,360.897 L404.232,542.456 L484.972,380.014 L394.945,360.897 Z M309.009,342.648 L388.555,529.599 L379.761,357.672 L309.009,342.648 Z M188.841,493.512 C192.387,491.12 198.241,492.45 199.931,496.882 C201.226,500.123 200.149,504.061 197.161,505.982 C193.794,508.256 189.007,507.308 186.771,503.912 C184.533,500.516 185.414,495.771 188.841,493.512 Z M139.899,420.442 C143.714,429.987 151.341,437.713 160.824,441.639 L161.3,441.836 C168.74,444.916 165.528,452.485 161.03,455.807 C151.518,459.684 143.85,467.367 139.982,476.888 C135.862,483.363 130.152,482.598 125.888,476.889 C122.019,467.366 114.351,459.684 104.849,455.811 C98.386,451.691 99.146,445.982 104.851,441.722 C114.351,437.85 122.019,430.167 125.887,420.646 C129.202,416.129 136.823,412.748 139.899,420.442 Z M314.603,245.594 L206.08,258.536 L284.488,459.442 L298.889,357.178 L289.56,335.253 C288.206,332.057 289.227,328.385 291.929,326.339 L304.647,316.296 L314.603,245.594 Z M132.936,438.329 C129.957,442.267 126.445,445.784 122.511,448.766 C126.443,451.747 129.956,455.266 132.935,459.204 C135.913,455.266 139.428,451.747 143.362,448.766 C139.428,445.784 135.915,442.266 132.936,438.329 Z M310.271,383.926 L301.237,448.079 L321.475,410.258 L310.271,383.926 Z M541.797,325.895 L509.017,369.786 L572.31,383.226 L541.797,325.895 Z M453.447,305.377 L403.532,347.386 L482.43,364.14 L453.447,305.377 Z M469.505,304.024 L497.308,360.395 L529.84,316.836 L469.505,304.024 Z M364.408,288.215 L313.65,328.3 L376.958,341.743 L364.408,288.215 Z M379.016,284.808 L391.471,337.931 L439.364,297.623 L397.533,288.74 C397.443,288.723 397.354,288.704 397.264,288.683 L379.016,284.808 Z M416.064,233.495 L330.01,243.757 L321.69,302.836 L364.268,269.211 C366.061,267.743 368.475,267.177 370.746,267.717 L394.995,272.867 L416.064,233.495 Z M147.896,189.128 L104.549,255.538 L183.031,246.179 L147.896,189.128 Z M251.392,175.055 L210.006,242.962 L307.243,231.366 L251.392,175.055 Z M544.44,237.696 C540.369,226.265 558.419,222.83 558.86,234.826 C558.594,242.859 547.701,245.229 544.44,237.696 Z M235.537,172.248 L160.619,181.182 L195.537,237.88 L235.537,172.248 Z M497.937589,214.970857 C503.418429,214.297894 508.40866,218.195792 509.081744,223.677625 C509.754828,229.159457 505.855816,234.148817 500.374976,234.82178 L480.193535,237.299749 C474.712695,237.972712 469.722465,234.074813 469.04938,228.592981 C468.376296,223.111149 472.275308,218.121789 477.756148,217.448826 Z M355.281,164.389 L334.21,228.15 L412.701,218.79 L355.281,164.389 Z M341.043,159.665 L266.117,168.6 L320.103,223.031 L341.043,159.665 Z M581.97,63.1876155 C587.487,76.9906155 598.517,88.1636155 612.232,93.8426155 C618.756,97.1906155 618.937,104.555616 612.519,108.122616 C598.772,113.725616 587.682,124.835616 582.089,138.604616 C578.613,144.938616 571.399,144.872616 567.921,138.604616 C562.328,124.836616 551.238,113.726616 537.495,108.124616 L537.159,107.987616 C530.159,105.129616 532.295,96.9076155 537.492,93.9636155 C551.239,88.3606155 562.329,77.2506155 567.922,63.4816155 C570.883,58.2926155 579.087,55.9756155 581.97,63.1876155 Z M53.5477925,97.1037861 C56.9517556,92.7515061 63.2345727,91.9800732 67.5853727,95.380188 L104.602042,124.302574 C108.953712,127.701574 109.725511,133.987369 106.325396,138.338169 C104.624842,140.51363 102.203983,141.795211 99.6640574,142.107075 C97.1241318,142.418939 94.4652617,141.762077 92.2888082,140.061645 L55.2712687,111.140374 C50.9194762,107.740381 50.1477995,101.455579 53.5477925,97.1037861 Z M440.2,118.826 C439.934,126.859 429.041,129.229 425.78,121.696 C421.709,110.265 439.759,106.83 440.2,118.826 Z M575.006,81.8996155 C569.923,89.4356155 563.411,95.9556155 555.887,101.044616 C563.413,106.131616 569.923,112.651616 575.006,120.187616 C580.088,112.650616 586.6,106.131616 594.126,101.043616 C586.597,95.9546155 580.088,89.4356155 575.006,81.8996155 Z M236.104213,99.0129859 C238.71461,98.6924695 241.405779,99.440071 243.477599,101.059652 C245.560459,102.678884 246.927852,105.109358 247.248368,107.719754 C247.568885,110.33015 246.830216,113.020223 245.200832,115.094254 C243.583584,117.176871 241.151997,118.543393 238.5416,118.863909 C235.931204,119.184425 233.241253,118.446749 231.167222,116.817365 C229.093416,115.198028 227.71918,112.777463 227.397445,110.157141 C227.076929,107.546744 227.82453,104.855575 229.443989,102.782762 C231.063448,100.70995 233.493817,99.3335022 236.104213,99.0129859 Z M398.693785,54.9055313 C402.095763,50.553495 408.37858,49.7820621 412.731365,53.1819331 C417.083279,56.5829186 417.854834,62.8667283 414.454841,67.2185208 L385.53357,104.23606 C383.833016,106.411521 381.413149,107.692981 378.872231,108.004966 C376.332306,108.31683 373.673435,107.659968 371.495989,105.959658 C367.144197,102.559666 366.37252,96.2748633 369.772513,91.9230708 Z M224.043484,0.753407018 C229.524324,0.0804445042 234.514676,3.97933525 235.187639,9.4601751 L243.12962,74.1424227 C243.802705,79.6242551 239.903692,84.6136151 234.422852,85.2865777 C228.94102,85.959662 223.951782,82.061642 223.278697,76.5798096 L215.336716,11.897562 C214.663632,6.41572957 218.562644,1.42636953 224.043484,0.753407018 Z M29.7863234,272.452604 L9.6048825,274.930574 C4.12404265,275.603536 0.225030035,280.592896 0.898114419,286.074729 C1.5711988,291.556561 6.56142952,295.454459 12.0422694,294.781497 L32.2237103,292.303527 C37.7045501,291.630565 41.6035627,286.641205 40.9304784,281.159372 C40.257394,275.67754 35.2671633,271.779642 29.7863234,272.452604 Z" id="Combined-Shape" fill="currentColor"></path>
    </g>
</svg>