<?xml version="1.0" encoding="UTF-8"?>
<svg viewBox="0 0 512 480" version="1.1" xmlns="http://www.w3.org/2000/svg" xmlns:xlink="http://www.w3.org/1999/xlink">
    <title>diamond</title>
    <g id="Page-1" stroke="none" stroke-width="1" fill="none" fill-rule="evenodd">
        <g id="value(2)" transform="translate(0, -16)" fill="currentColor" fill-rule="nonzero">
            <path d="M454.254,258.609 L398.551,172.59 C394.234,165.923 386.914,161.942 378.971,161.942 L133.204,161.942 C125.273,161.942 117.96,165.913 113.641,172.563 L57.765,258.593 C52.055,267.383 52.937,278.989 59.91,286.815 L238.572,487.395 C242.994,492.359 249.342,495.207 255.99,495.207 L255.991,495.207 C262.638,495.207 268.988,492.36 273.41,487.396 L452.092,286.804 C459.055,278.987 459.944,267.393 454.254,258.609 Z M367.687,181.941 L320.841,254.381 L273.967,181.941 L367.687,181.941 Z M302.462,262.793 L209.518,262.793 L255.99,190.974 L302.462,262.793 Z M238.013,181.943 L191.268,254.184 L144.539,181.943 L238.013,181.943 L238.013,181.943 Z M126.048,190.178 L173.018,262.793 L78.885,262.793 L126.048,190.178 Z M83.109,282.793 L183.754,282.793 L236.97,455.528 L83.109,282.793 Z M255.99,449.336 L204.681,282.793 L307.299,282.793 L255.99,449.336 Z M275.009,455.534 L328.227,282.794 L428.881,282.794 L275.009,455.534 Z M339.22,262.793 L386.147,190.228 L433.136,262.793 L339.22,262.793 Z M30.333,262.793 L10,262.793 C4.478,262.793 0,267.27 0,272.793 C0,278.316 4.478,282.793 10,282.793 L30.333,282.793 C35.855,282.793 40.333,278.316 40.333,272.793 C40.333,267.27 35.855,262.793 30.333,262.793 Z M502,262.793 L481.667,262.793 C476.145,262.793 471.667,267.27 471.667,272.793 C471.667,278.316 476.145,282.793 481.667,282.793 L502,282.793 C507.522,282.793 512,278.316 512,272.793 C512,267.27 507.522,262.793 502,262.793 Z M437.146,91.826 C433.24,87.921 426.91,87.921 423.003,91.826 L389.786,125.043 C385.881,128.948 385.881,135.28 389.786,139.185 C391.74,141.138 394.299,142.114 396.858,142.114 C399.418,142.114 401.976,141.137 403.929,139.185 L437.146,105.968 C441.051,102.063 441.051,95.732 437.146,91.826 Z M122.646,124.865 L89.43,91.647 C85.526,87.742 79.196,87.742 75.287,91.647 C71.382,95.552 71.382,101.884 75.287,105.789 L108.504,139.006 C110.457,140.959 113.016,141.935 115.575,141.935 C118.134,141.935 120.693,140.958 122.646,139.006 C126.551,135.102 126.551,128.769 122.646,124.865 Z M256.254,16.793 C250.732,16.793 246.254,21.27 246.254,26.793 L246.254,91.961 C246.254,97.484 250.731,101.961 256.254,101.961 C261.776,101.961 266.254,97.484 266.254,91.961 L266.254,26.793 C266.254,21.271 261.776,16.793 256.254,16.793 Z M263.319,118.72 C261.46,116.86 258.88,115.79 256.25,115.79 C253.62,115.79 251.04,116.86 249.18,118.72 C247.32,120.58 246.25,123.16 246.25,125.79 C246.25,128.43 247.319,131 249.18,132.86 C251.04,134.73 253.62,135.79 256.25,135.79 C258.88,135.79 261.46,134.73 263.319,132.86 C265.189,131 266.25,128.42 266.25,125.79 C266.25,123.16 265.189,120.581 263.319,118.72 Z" id="diamond"></path>
        </g>
    </g>
</svg>