<?xml version="1.0" encoding="UTF-8"?>
<svg viewBox="0 0 79 79" version="1.1" xmlns="http://www.w3.org/2000/svg" xmlns:xlink="http://www.w3.org/1999/xlink">
    <title>ethereum</title>
    <g id="Argon-Treasury" stroke="none" stroke-width="1" fill="none" fill-rule="evenodd">
        <g id="Frame-5" transform="translate(-771.177, -258.5455)" fill="currentColor" fill-rule="nonzero">
            <path d="M810.5,259 C831.95,259 849.5,276.55 849.5,298 C849.5,319.45 831.95,337 810.5,337 C789.05,337 771.5,319.45 771.5,298 C771.5,276.55 789.05,259 810.5,259 Z M810.5,261.785714 C790.442857,261.785714 774.285714,277.942857 774.285714,298 C774.285714,318.057143 790.442857,334.214286 810.5,334.214286 C830.557143,334.214286 846.714286,318.057143 846.714286,298 C846.714286,277.942857 830.557143,261.785714 810.5,261.785714 Z M810.5,328.642857 C811.335714,328.642857 811.892857,329.2 811.892857,330.035714 C811.892857,330.871429 811.335714,331.428571 810.5,331.428571 C809.664286,331.428571 809.107143,330.871429 809.107143,330.035714 C809.107143,329.2 809.664286,328.642857 810.5,328.642857 Z M805.207143,328.085714 C806.042857,328.085714 806.6,328.921429 806.321429,329.757143 C806.321429,330.592857 805.485714,331.15 804.65,330.871429 C803.814286,330.871429 803.535714,330.035714 803.535714,329.2 C803.535714,328.364286 804.371429,327.807143 805.207143,328.085714 Z M815.792857,328.085714 C816.628571,328.085714 817.185714,328.642857 817.464286,329.2 C817.464286,330.035714 817.185714,330.592857 816.35,330.871429 C815.514286,330.871429 814.957143,330.592857 814.678571,329.757143 C814.678571,328.921429 814.957143,328.364286 815.792857,328.085714 Z M799.914286,326.692857 C800.75,326.971429 801.028571,327.807143 800.75,328.364286 C800.471429,329.2 799.635714,329.478571 799.078571,329.2 C798.242857,329.2 797.964286,328.364286 798.242857,327.528571 C798.521429,326.692857 799.357143,326.414286 799.914286,326.692857 Z M822.757143,327.528571 C823.035714,328.364286 822.757143,328.921429 821.921429,329.2 C821.085714,329.478571 820.528571,329.2 820.25,328.364286 C819.971429,327.528571 820.25,326.971429 821.085714,326.692857 C821.642857,326.414286 822.478571,326.971429 822.757143,327.528571 Z M827.771429,325.021429 C828.05,325.578571 828.05,326.414286 827.214286,326.971429 C826.657143,327.25 825.821429,327.25 825.264286,326.414286 C824.985714,325.857143 824.985714,325.021429 825.821429,324.464286 C826.378571,324.185714 827.214286,324.464286 827.771429,325.021429 Z M795.178571,324.464286 C795.735714,324.742857 796.014286,325.578571 795.735714,326.414286 C795.457143,326.971429 794.621429,327.25 793.785714,326.971429 C793.228571,326.692857 792.95,325.578571 793.228571,325.021429 C793.507143,324.464286 794.342857,324.185714 795.178571,324.464286 Z M832.228571,321.678571 C832.785714,322.235714 832.785714,323.071429 831.95,323.628571 C831.392857,324.185714 830.557143,323.907143 830,323.35 C829.442857,322.792857 829.721429,321.957143 830.278571,321.4 C830.835714,320.842857 831.671429,321.121429 832.228571,321.678571 Z M790.721429,321.4 C791.278571,321.957143 791.278571,322.792857 791,323.35 C790.721429,323.907143 789.607143,323.907143 789.05,323.628571 C788.492857,323.071429 788.214286,322.235714 788.771429,321.678571 C789.328571,321.121429 790.164286,321.121429 790.721429,321.4 Z M821.364286,301.342857 C821.921429,301.064286 822.478571,301.064286 823.035714,301.621429 C823.592857,301.9 823.592857,302.735714 823.314286,303.292857 L811.057143,321.121429 C810.778571,321.4 810.5,321.678571 809.942857,321.678571 C809.385714,321.678571 809.107143,321.4 808.828571,321.121429 L796.571429,303.292857 C796.292857,302.735714 796.292857,302.178571 796.85,301.621429 C797.128571,301.064286 797.964286,301.064286 798.521429,301.342857 L809.942857,308.585714 Z M787.1,317.778571 C787.657143,318.335714 787.657143,319.171429 786.821429,319.728571 C785.985714,320.285714 785.428571,320.007143 784.871429,319.45 C784.314286,318.892857 784.592857,318.057143 785.15,317.5 C785.707143,316.942857 786.542857,317.221429 787.1,317.778571 Z M835.85,317.5 C836.407143,318.057143 836.407143,318.892857 836.128571,319.45 C835.571429,320.007143 834.735714,320.007143 834.178571,319.728571 C833.621429,319.171429 833.621429,318.335714 833.9,317.778571 C834.457143,317.221429 835.292857,316.942857 835.85,317.5 Z M816.907143,307.192857 L810.5,311.371429 C810.221429,311.65 809.664286,311.65 809.107143,311.371429 L802.7,307.192857 L809.942857,317.778571 L816.907143,307.192857 Z M784.035714,313.321429 C784.314286,313.878571 784.314286,314.714286 783.478571,315.271429 C782.921429,315.55 782.085714,315.55 781.528571,314.714286 C781.25,314.157143 781.25,313.321429 782.085714,312.764286 C782.642857,312.485714 783.478571,312.485714 784.035714,313.321429 Z M838.914286,312.764286 C839.471429,313.042857 839.75,313.878571 839.471429,314.714286 C839.192857,315.271429 838.357143,315.55 837.521429,315.271429 C836.964286,314.992857 836.685714,314.157143 836.964286,313.321429 C837.521429,312.764286 838.357143,312.485714 838.914286,312.764286 Z M781.528571,308.585714 C781.807143,309.421429 781.528571,309.978571 780.692857,310.257143 C779.857143,310.535714 779.3,310.257143 779.021429,309.421429 C778.742857,308.585714 779.3,308.028571 779.857143,307.75 C780.692857,307.471429 781.25,307.75 781.528571,308.585714 Z M841.142857,307.75 C841.978571,308.028571 842.257143,308.864286 841.978571,309.421429 C841.7,310.257143 840.864286,310.535714 840.307143,310.257143 C839.471429,309.978571 839.192857,309.142857 839.471429,308.585714 C839.471429,307.75 840.307143,307.471429 841.142857,307.75 Z M809.942857,274.321429 C810.221429,274.321429 810.778571,274.6 811.057143,274.878571 L824.15,296.05 C824.428571,296.05 824.428571,296.328571 824.428571,296.607143 C824.707143,297.164286 824.428571,297.721429 823.871429,298 L810.5,305.8 C809.942857,306.078571 809.664286,306.078571 809.107143,305.8 L795.735714,298 C795.457143,297.721429 795.178571,297.164286 795.178571,296.607143 C795.178571,296.607143 795.457143,296.328571 795.457143,296.05 L808.828571,274.878571 C809.107143,274.6 809.385714,274.321429 809.942857,274.321429 Z M842.257143,302.178571 C843.092857,302.178571 843.65,303.014286 843.371429,303.85 C843.371429,304.685714 842.535714,305.242857 841.7,304.964286 C840.864286,304.964286 840.307143,304.128571 840.585714,303.292857 C840.864286,302.457143 841.421429,302.178571 842.257143,302.178571 Z M778.742857,302.178571 C779.578571,302.178571 780.135714,302.457143 780.414286,303.292857 C780.414286,304.128571 780.135714,304.685714 779.3,304.964286 C778.464286,304.964286 777.907143,304.685714 777.628571,303.85 C777.35,303.014286 777.907143,302.178571 778.742857,302.178571 Z M809.942857,292.985714 L799.635714,297.164286 L809.942857,303.014286 L820.25,297.164286 L809.942857,292.985714 Z M778.464286,296.607143 C779.3,296.607143 779.857143,297.164286 779.857143,298 C779.857143,298.835714 779.3,299.392857 778.464286,299.392857 C777.628571,299.392857 777.071429,298.835714 777.071429,298 C777.071429,297.164286 777.628571,296.607143 778.464286,296.607143 Z M842.535714,296.607143 C843.371429,296.607143 843.928571,297.164286 843.928571,298 C843.928571,298.835714 843.371429,299.392857 842.535714,299.392857 C841.7,299.392857 841.142857,298.835714 841.142857,298 C841.142857,297.164286 841.7,296.607143 842.535714,296.607143 Z M779.3,291.035714 C780.135714,291.035714 780.692857,291.871429 780.414286,292.707143 C780.414286,293.542857 779.578571,294.1 778.742857,293.821429 C777.907143,293.821429 777.35,292.985714 777.628571,292.15 C777.628571,291.314286 778.464286,291.035714 779.3,291.035714 Z M809.942857,278.221429 L800.192857,293.821429 L809.385714,289.921429 L810.5,289.921429 L819.692857,293.821429 L809.942857,278.221429 Z M841.7,291.035714 C842.535714,291.035714 843.092857,291.314286 843.371429,292.15 C843.371429,292.985714 843.092857,293.542857 842.257143,293.821429 C841.421429,293.821429 840.864286,293.542857 840.585714,292.707143 C840.585714,291.871429 841.142857,291.314286 841.7,291.035714 Z M780.971429,285.742857 C781.807143,286.021429 782.085714,286.857143 781.807143,287.414286 C781.528571,288.25 780.692857,288.528571 780.135714,288.25 C779.3,287.971429 779.021429,287.135714 779.3,286.578571 C779.3,285.742857 780.135714,285.464286 780.971429,285.742857 Z M841.7,286.578571 C841.978571,287.414286 841.7,287.971429 840.864286,288.25 C840.028571,288.528571 839.471429,288.25 839.192857,287.414286 C838.914286,286.857143 839.471429,286.021429 840.028571,285.742857 C840.864286,285.464286 841.421429,285.742857 841.7,286.578571 Z M839.471429,281.285714 C839.75,281.842857 839.75,282.678571 838.914286,283.235714 C838.357143,283.514286 837.521429,283.514286 836.964286,282.678571 C836.685714,282.121429 836.964286,281.285714 837.521429,280.728571 C838.078571,280.45 838.914286,280.45 839.471429,281.285714 Z M783.478571,280.728571 C784.035714,281.007143 784.314286,281.842857 784.035714,282.678571 C783.757143,283.235714 782.921429,283.514286 782.085714,283.235714 C781.528571,282.957143 781.25,282.121429 781.528571,281.285714 C781.807143,280.728571 782.921429,280.45 783.478571,280.728571 Z M786.821429,276.271429 C787.378571,276.828571 787.378571,277.664286 787.1,278.221429 C786.542857,278.778571 785.707143,279.057143 785.15,278.5 C784.592857,277.942857 784.314286,277.107143 784.871429,276.55 C785.428571,275.992857 786.264286,275.714286 786.821429,276.271429 Z M836.128571,276.55 C836.685714,277.107143 836.407143,277.942857 835.85,278.5 C835.292857,279.057143 834.457143,278.778571 833.9,278.221429 C833.342857,277.664286 833.621429,276.828571 834.178571,276.271429 C834.735714,275.714286 835.571429,275.992857 836.128571,276.55 Z M791,272.65 C791.557143,273.207143 791.278571,274.042857 790.721429,274.6 C790.164286,275.157143 789.328571,274.878571 788.771429,274.321429 C788.214286,273.764286 788.492857,272.928571 789.05,272.371429 C789.607143,271.814286 790.442857,272.092857 791,272.65 Z M831.95,272.371429 C832.507143,272.928571 832.785714,273.764286 832.228571,274.321429 C831.671429,274.878571 830.835714,274.878571 830.278571,274.6 C829.721429,274.042857 829.442857,273.207143 830,272.65 C830.557143,272.092857 831.392857,272.092857 831.95,272.371429 Z M795.735714,269.585714 C796.014286,270.142857 796.014286,270.978571 795.178571,271.535714 C794.621429,271.814286 793.785714,271.535714 793.228571,270.978571 C792.671429,270.421429 793.228571,269.307143 793.785714,269.028571 C794.342857,268.75 795.178571,268.75 795.735714,269.585714 Z M827.214286,269.028571 C827.771429,269.307143 828.05,270.142857 827.771429,270.978571 C827.492857,271.535714 826.657143,271.814286 825.821429,271.535714 C825.264286,270.978571 824.985714,270.142857 825.264286,269.585714 C825.542857,269.028571 826.378571,268.75 827.214286,269.028571 Z M800.75,267.357143 C801.028571,268.192857 800.75,268.75 799.914286,269.028571 C799.078571,269.307143 798.521429,269.028571 798.242857,268.192857 C797.964286,267.357143 798.242857,266.8 799.078571,266.521429 C799.914286,266.242857 800.471429,266.8 800.75,267.357143 Z M821.921429,266.521429 C822.757143,266.8 823.035714,267.635714 822.757143,268.192857 C822.478571,269.028571 821.642857,269.307143 821.085714,269.028571 C820.25,269.028571 819.971429,268.192857 820.25,267.357143 C820.528571,266.521429 821.364286,266.242857 821.921429,266.521429 Z M816.35,265.128571 C817.185714,265.128571 817.742857,265.964286 817.464286,266.8 C817.464286,267.635714 816.628571,268.192857 815.792857,267.914286 C814.957143,267.635714 814.678571,267.078571 814.678571,266.242857 C814.678571,265.407143 815.514286,264.85 816.35,265.128571 Z M806.321429,266.242857 C806.321429,267.078571 806.042857,267.635714 805.207143,267.914286 C804.371429,267.914286 803.814286,267.635714 803.535714,266.8 C803.535714,265.964286 803.814286,265.407143 804.65,265.128571 C805.485714,264.85 806.321429,265.407143 806.321429,266.242857 Z M810.5,264.571429 C811.335714,264.571429 811.892857,265.128571 811.892857,265.964286 C811.892857,266.8 811.335714,267.357143 810.5,267.357143 C809.664286,267.357143 809.107143,266.8 809.107143,265.964286 C809.107143,265.128571 809.664286,264.571429 810.5,264.571429 Z" id="ethereum"></path>
        </g>
    </g>
</svg>