<?xml version="1.0" encoding="UTF-8"?>
<svg viewBox="0 0 17 18" version="1.1" xmlns="http://www.w3.org/2000/svg" xmlns:xlink="http://www.w3.org/1999/xlink">
    <title>Combined Shape</title>
    <g id="Argon-Operations" stroke="none" stroke-width="1" fill="none" fill-rule="evenodd">
        <g id="Frame-12" transform="translate(-930, -743.5)" fill="currentColor">
            <path d="M933.931815,743.845314 L937.140571,743.845314 C937.425356,743.845314 937.688508,743.997245 937.830901,744.243876 C937.973294,744.490507 937.973294,744.794369 937.830901,745.041 C937.688508,745.287631 937.425356,745.439562 937.140571,745.439562 L933.931815,745.439562 C932.641419,745.441027 931.595712,746.486734 931.594248,747.777129 L931.594248,756.908185 C931.595712,758.198581 932.641419,759.244288 933.931815,759.245752 L943.062871,759.245752 C944.353266,759.244288 945.398973,758.198581 945.400438,756.908185 L945.400438,753.699429 C945.400438,753.259189 945.757322,752.902305 946.197562,752.902305 C946.637801,752.902305 946.994686,753.259189 946.994686,753.699429 L946.994686,756.908185 C946.992124,759.078604 945.23329,760.837438 943.062871,760.84 L933.931815,760.84 C931.761396,760.837438 930.002562,759.078604 930,756.908185 L930,747.777129 C930.002562,745.60671 931.761396,743.847876 933.931815,743.845314 Z M941.225168,743.84 L946.180623,743.84 C946.397905,743.84 946.606317,743.926165 946.75999,744.079775 C946.913662,744.233386 947,744.441763 947,744.659045 L947,749.607857 C947,750.048097 946.643115,750.404981 946.202876,750.404981 C945.762636,750.404981 945.405752,750.048097 945.405752,749.607857 L945.405752,746.563507 L939.05533,752.911937 C938.744038,753.223208 938.239356,753.223208 937.928063,752.911937 C937.616792,752.600645 937.616792,752.095962 937.928063,751.78467 L944.276493,745.434248 L941.243103,745.434248 C940.79605,745.434248 940.419741,745.0689 940.428044,744.621514 C940.436547,744.187382 940.790953,743.84 941.225168,743.84 Z" id="Combined-Shape"></path>
        </g>
    </g>
</svg>