<svg viewBox="15.5 19.5 27 30" xmlns="http://www.w3.org/2000/svg">
  <title>external-icon</title>
  <g fill="currentColor">
    <path d="M29.86 33.618h5.609c.442 0 .801.395.801.882v7.059c0 .487-.359.882-.801.882h-12.82c-.443 0-.802-.395-.802-.882V27.441c0-.487.359-.882.801-.882h6.41c.443 0 .802.395.802.882v6.177zm-6.41 7.059h4.808v-5.294h-4.808v5.294zm0-12.353v5.294h4.808v-5.294h-4.808zm6.41 12.353h4.808v-5.294h-4.808v5.294zm6.409-21.177h6.41c.443 0 .802.395.802.882v7.059c0 .487-.359.882-.801.882h-6.41c-.443 0-.802-.395-.802-.882v-7.059c0-.487.359-.882.801-.882zm.802 1.765v5.294h4.808V21.265h-4.808zm4.808 11.471c0-.487.359-.882.801-.882.443 0 .801.395.801.882v13.236c0 1.949-1.435 3.529-3.205 3.529H18.643c-1.77 0-3.205-1.58-3.205-3.529V23.03c0-1.95 1.435-3.53 3.205-3.53h12.019c.442 0 .801.396.801.883 0 .487-.359.882-.801.882H18.643c-.885 0-1.603.79-1.603 1.765v22.941c0 .975.718 1.765 1.603 1.765h20.833c.885 0 1.602-.79 1.602-1.765V32.735z"/>
  </g>
</svg>
