<?xml version="1.0" encoding="UTF-8"?>
<svg viewBox="0 0 19 22" version="1.1" xmlns="http://www.w3.org/2000/svg" xmlns:xlink="http://www.w3.org/1999/xlink">
    <g id="Argon-Treasury" stroke="none" stroke-width="1" fill="none" fill-rule="evenodd">
        <g id="Frame-4" transform="translate(-931.177, -34.5455)" fill="currentColor" fill-rule="nonzero">
            <path d="M944.739559,36.13499 C945.254916,35.7770393 945.893712,35.861522 946.213495,36.1502049 C946.351978,36.2755277 946.487375,36.4889368 946.344649,36.7948366 C946.044924,37.440269 945.406514,37.8570774 944.719115,37.8570774 L942.751038,37.8570774 C942.843617,38.1053207 942.894921,38.3747847 942.894921,38.6566609 C942.894921,38.9077069 942.854032,39.1491435 942.779969,39.3745643 L947.408537,39.3745643 C947.717134,38.765968 947.739507,38.0672834 947.46447,37.4270561 L946.900509,36.1129684 C946.834547,35.9608193 946.733481,35.8190805 946.596155,35.6949588 C946.117059,35.2633359 945.191268,35.0951711 944.415918,35.6332984 L942.290457,37.1103457 C942.425468,37.2552877 942.541963,37.4186478 942.635314,37.5968224 L944.739559,36.13499 Z M938.721148,39.3741639 C938.647085,39.1487431 938.606195,38.9073065 938.606195,38.6562605 C938.606195,38.3743843 938.6575,38.1049203 938.750079,37.856677 L936.783159,37.856677 C936.095759,37.856677 935.45735,37.4394682 935.156082,36.7940358 C935.013356,36.4885364 935.148753,36.2751273 935.287621,36.1502049 C935.459664,35.9948527 935.7239,35.8987585 936.011667,35.8987585 C936.25893,35.8987585 936.523166,35.969628 936.761172,36.13499 L938.865031,37.5968224 C938.958382,37.4182474 939.075263,37.2548874 939.209888,37.1103457 L937.084427,35.6332984 C936.309077,35.0951711 935.383286,35.2633359 934.905347,35.6949588 C934.752206,35.8330942 934.643425,35.9928507 934.579391,36.1650194 L934.036647,37.4266557 C933.761224,38.066883 933.783597,38.7655676 934.09258,39.3741639 L938.721148,39.3741639 Z M939.348757,39.3741639 L942.151203,39.3741639 C942.254583,39.1575517 942.313216,38.9137128 942.313216,38.6562605 C942.313216,37.7621844 941.611158,37.0334704 940.749787,37.0334704 C939.888416,37.0334704 939.186358,37.7621844 939.186358,38.6562605 C939.186743,38.9141132 939.245377,39.1575517 939.348757,39.3741639 Z M931.49998,41.2471993 L931.49998,43.2311433 C931.49998,43.8273274 931.89807,44.3286186 932.432328,44.4643516 L939.672398,44.4643516 L939.672398,39.9771548 L932.723181,39.9771548 C932.048897,39.9771548 931.49998,40.5469131 931.49998,41.2471993 Z M932.432714,54.1102032 C932.432714,55.0395138 933.161003,55.7954545 934.05632,55.7954545 L939.672784,55.7954545 L939.672784,45.0669421 L932.432714,45.0669421 L932.432714,54.1102032 Z M948.777164,39.9771548 L941.828719,39.9771548 L941.828719,44.4639512 L949.067631,44.4639512 C949.602275,44.3282182 949.99998,43.826927 949.99998,43.2307429 L949.99998,41.2467989 C950.000365,40.5469131 949.451448,39.9771548 948.777164,39.9771548 L948.777164,39.9771548 Z M941.828719,55.7954545 L947.444025,55.7954545 C948.339342,55.7954545 949.067631,55.0395138 949.067631,54.1102032 L949.067631,45.0669421 L941.828719,45.0669421 L941.828719,55.7954545 Z" id="Combined-Shape"></path>
        </g>
    </g>
</svg>