<?xml version="1.0" encoding="UTF-8"?>
<svg viewBox="0 0 845 846" version="1.1" xmlns="http://www.w3.org/2000/svg" xmlns:xlink="http://www.w3.org/1999/xlink">
    <title>globe</title>
    <g id="Page-1" stroke="none" stroke-width="1" fill="none" fill-rule="evenodd">
        <path d="M420.745643,0.380664567 C423.123575,0.130734278 425.535564,0.138546349 427.906631,0.408117465 C509.404902,1.42276362 591.067386,26.2137332 658.6,72.1 C731.7,121.9 787.4,192.7 818.7,275.4 C851.031617,361.024405 853.351042,457.891161 826.818173,545.3154 C826.37342,548.779773 825.228033,552.07762 823.543454,555.084743 C817.536565,572.735257 810.568598,590.053478 802.5,606.9 C765.7,683.7 703.5,749.1 629.2,790.6 C569.108464,824.125645 500.516474,842.883553 431.678209,844.244615 C426.648752,845.608721 421.230992,845.534915 416.090011,844.253495 C409.01986,844.122854 401.953469,843.805688 394.9,843.3 C354.1,840.4 313.5,832.2 275.2,817.6 C234.1,802 196.6,780.7 161.9,753.7 C96.0653201,702.364625 46.8348042,630.777928 21.1665109,551.44561 C20.6979854,550.231917 20.3003679,548.981815 19.9773681,547.702794 L19.6,546.5 C-5.19200589,466.457238 -5.28851176,377.947448 19.7269797,297.769352 C20.0024202,296.661184 20.3475284,295.575032 20.7580869,294.515339 C23.7343626,285.253275 27.048307,276.106142 30.7,267.1 C47.6,225.1 70.2,187 99,152.1 C126.2,119.1 159.1,90.5 195,67.2 C261.445,24.132 340.78033,0.91699 419.954766,0.3842563 Z M753.348401,571.000142 L583.833023,571.000391 C565.774956,645.197737 533.606045,715.7536 489.996223,778.378088 C514.473237,773.595345 538.459631,766.521236 561.668017,757.225706 L562.541677,756.873354 L563.00426,756.673042 C581.39085,748.636739 599.159202,739.369608 616.145584,728.707915 L617.9,727.6 C626,722.4 634,717 641.7,711.2 C642.133333,710.866667 642.577778,710.544444 643.025926,710.222222 L643.457677,709.911354 L643.433695,709.931308 C642.687341,710.52067 642.353922,710.784974 642.293135,710.834936 L642.283677,710.842354 C642.368194,710.780766 643.045146,710.252208 643.776642,709.682572 L643.789677,709.671354 L643.7,709.7375 L643.461677,709.908354 L643.6,709.8 C644.875,708.75 646.20625,707.7 647.509375,706.65 L648.8,705.6 C652.3,702.7 655.7,699.8 659.1,696.9 C674.2,683.8 688.3,669.5 701.2,654.2 C704.5,650.3 707.5,646.1 710.9,642.3 L710.826677,642.382354 L710.716934,642.507089 C708.922793,644.536811 708.219046,645.337198 708.143832,645.418879 C708.145096,645.411137 709.062391,644.35504 710.022449,643.215452 L710.411866,642.751247 C711.006008,642.039702 711.571429,641.345918 711.9,640.9 C713.3,639.1 714.6,637.2 715.9,635.4 C721.6,627.4 727,619.3 732.1,610.9 C739.972645,598.038748 747.055446,584.691436 753.348401,571.000142 Z M262.273767,570.999937 L92.8899962,571.000446 C100.226446,586.977043 108.596447,602.411506 118,617.2 C123.2,625.5 128.8,633.6 134.7,641.5 C135.2,642.2 135.7,642.9 136.2125,643.5875 L136.436677,643.884354 L137.0888,644.6696 C137.9672,645.7304 138.8168,646.7696 139.6592,647.8304 L140.5,648.9 C143.4,652.5 146.4,656 149.4,659.4 C162.5,674.4 176.8,688.4 192.1,701.3 C193.366667,702.366667 194.666667,703.422222 195.977778,704.474074 L199.922222,707.625926 C201.233333,708.677778 202.533333,709.733333 203.8,710.8 L203.687677,710.706354 L203.585181,710.620494 C201.899928,709.212273 201.010188,708.468813 200.654688,708.170313 L200.576791,708.10483 C200.520901,708.057775 200.487253,708.029237 200.473485,708.017229 L200.466677,708.011354 C200.528783,708.058558 201.344127,708.732302 202.296379,709.513258 L202.47638,709.660817 C202.597248,709.759857 202.719651,709.860064 202.842379,709.96042 L203.301767,710.335463 C203.33218,710.360248 203.362518,710.384962 203.392763,710.40959 L203.572965,710.556198 C204.13911,711.01638 204.658,711.434 205,711.7 L210.4,715.6 C218.2,721.2 226.2,726.5 234.4,731.5 C250.6,741.4 267.6,750.1 285,757.5 L283.213677,756.734354 L284.431983,757.225706 C307.479646,766.456863 331.294581,773.497259 355.597018,778.276953 C332.936413,745.773483 313.341806,711.186648 297.5,674.8 C282.890033,641.094549 270.990087,606.485758 262.273767,570.999937 Z M521.95,571 L323.978495,571.000036 C330.152763,593.683268 337.662336,616.012986 346.489014,637.852698 L347.206677,639.620354 L347.542799,640.40591 C359.224131,667.590079 372.883299,693.954957 388.434913,719.158981 L389.7,721.2 C398,734.5 406.9,747.5 416.2,760.1 L419.8,764.9 C419.993548,765.174194 420.275546,765.54204 420.58809,765.937243 L420.619677,765.976354 L420.491767,765.823872 C420.332706,765.634203 420.16344,765.432545 419.983507,765.218369 L419.8,765 C420.865957,766.270948 421.898296,767.575514 422.917692,768.886131 L423.849537,767.699537 L425.1,766.1 C425.803704,765.211111 426.178189,764.733745 426.223457,764.678062 C426.194239,764.720027 425.318519,765.848148 423.6,768.1 L425.7,765.4 C426.7,764.1 427.8,762.7 428.8,761.3 C438.4,748.5 447.4,735.3 455.9,721.7 C472.6,694.9 487.1,666.9 499.4,637.9 L498.775677,639.361354 L499.510986,637.553466 C508.303618,615.802285 515.789286,593.581818 521.95,571 Z M792.025584,510.999054 L797,511 C813.8,511 826.3,524.7 827,541 L826.98057,540.600149 C826.977159,527.625393 817.621487,514.313974 804.8,511.4 C800.40444,510.408319 796.087898,510.307401 792.025584,510.999054 Z M250.623773,334.999598 L71.9132895,334.999574 C68.798848,347.483097 66.2823591,360.125107 64.3638228,372.884118 L64.2936766,373.355354 L64.2480609,373.720333 C60.2506464,406.005206 60.2506464,438.698069 64.2480609,471.069843 L64.3016766,471.495354 L64.3638367,471.915896 C66.3428062,485.07623 68.9586914,498.112854 72.2171826,510.985936 C74.6504091,510.993767 77.078321,511 79.5,511 L250.768677,510.999354 L250.7,510.5 C242.653512,451.87559 242.582014,393.329367 250.623773,334.999598 Z M766.5,335 L595.468432,334.999998 C603.49206,393.791977 603.416286,452.504925 595.241111,510.999382 L774.01181,511.0003 C777.145492,498.576946 779.708109,485.977904 781.680746,473.184262 L781.917677,471.618354 L781.951939,471.349163 C785.949354,438.784736 785.949354,405.815264 781.951939,373.250837 L781.905677,372.883354 L781.836177,372.413589 C779.935438,359.839474 777.447787,347.35502 774.373226,335.015694 C771.743439,335.007285 769.118077,335 766.5,335 Z M782.295677,469.053354 L781.997681,471.092993 L781.917677,471.618354 L781.729934,473.124998 C781.654611,473.716806 781.577966,474.308475 781.5,474.9 C781.7,473.55 781.875,472.225 782.05,470.9 L782.295677,469.053354 Z M781.5,369.7 L781.729934,371.475002 L781.905677,372.883354 L782.098454,374.174599 L782.286677,375.481354 L782.05,373.7 C781.875,372.375 781.7,371.05 781.5,369.7 Z M356.247734,66.2950217 L354.601754,66.6201087 C330.644346,71.3954202 307.164935,78.3691872 284.431983,87.4742939 L283.557677,87.8253535 L283.09574,88.0269578 C264.70915,96.0632607 246.940798,105.330392 229.954416,115.992085 L228.2,117.1 C220.1,122.3 212.1,127.7 204.4,133.5 C203.966667,133.833333 203.522222,134.155556 203.074074,134.477778 L202.628677,134.797354 L202.5,134.9 C201.225,135.95 199.89375,137 198.590625,138.05 L197.3,139.1 C193.8,142 190.4,144.9 187,147.8 C171.9,161 157.8,175.3 144.9,190.6 C143.8,191.9 142.733333,193.233333 141.674074,194.574074 L139.55775,197.25775 C138.14321,199.04321 136.711111,200.811111 135.2,202.5 C137.254082,200.176531 137.970158,199.361152 137.962967,199.374216 L137.953827,199.385569 C137.852806,199.506643 136.935376,200.564613 135.999632,201.677111 L135.843642,201.862881 C135.765699,201.955867 135.687937,202.048892 135.610817,202.141444 L135.457571,202.325766 L135.30686,202.507922 C134.85935,203.050229 134.457143,203.55102 134.2,203.9 C132.9,205.7 131.5,207.6 130.2,209.4 C124.5,217.4 119.1,225.6 114,234 C105.935692,247.25421 98.7001547,260.954681 92.2933895,274.99961 L261.913282,274.999546 C279.961583,200.234498 312.347273,129.394594 356.247734,66.2950217 Z M423.112294,75.8717764 L422.348148,76.8481481 C421.511111,77.9111111 420.666667,78.9666667 419.8,80 L419.838677,79.9523535 L419.980129,79.7838205 C420.215597,79.5011934 420.432339,79.2409107 420.631414,79.0017212 L420.466661,79.2049163 C420.419732,79.262627 420.373093,79.3200588 420.326877,79.3770555 L420.189634,79.5465835 C419.782507,80.0503124 419.420408,80.5061224 419.2,80.8 C418.2,82.2 417.1,83.6 416.1,85 C406.8,97.7 397.9,110.7 389.6,124 C373.809756,149.207317 360.100595,175.590898 348.30038,202.892539 L347.500677,204.750354 L347.168124,205.567995 C337.973087,228.244245 330.174771,251.432276 323.803678,274.999915 L522.372417,274.999453 C516.151313,251.924455 508.541555,229.233415 499.571754,207.050318 L498.837677,205.245354 L498.580877,204.64188 C486.886436,177.329558 473.208752,150.926505 457.633561,125.689933 L456.4,123.7 C448.1,110.3 439.3,97.3 429.9,84.7 L426.3,79.9 C426.106452,79.6258065 425.824454,79.2579605 425.51191,78.8627572 L425.499677,78.8463535 L425.452555,78.790434 C423.929456,76.9730656 423.411357,76.3368145 423.435033,76.3513193 L423.446855,76.3627398 C423.534452,76.4550605 424.067093,77.0834616 424.668157,77.8167395 L424.797677,77.9743535 L423.72963,76.6481481 C423.523431,76.3897244 423.31767,76.1308629 423.112294,75.8717764 Z M490.39055,66.4009507 L491.447807,67.9209191 C513.72142,100.02808 532.984,134.171 548.6,170.1 C563.412405,204.187936 575.379765,239.154489 584.096141,274.999659 L753.996166,274.99924 C746.494639,258.557017 737.858414,242.671852 728.2,227.4 C722.9,219.1 717.3,211 711.4,203.1 C710.9,202.4 710.4,201.7 709.8875,201.0125 L709.624677,200.665354 L709.0496,199.9688 C708.1904,198.9272 707.3096,197.8568 706.4504,196.7792 L705.6,195.7 C702.7,192.1 699.7,188.6 696.7,185.2 C683.5,170.2 669.2,156.2 653.9,143.3 C652.633333,142.233333 651.333333,141.177778 650.022222,140.125926 L646.077778,136.974074 C644.766667,135.922222 643.466667,134.866667 642.2,133.8 L642.235677,133.829354 L642.414819,133.979506 C644.100073,135.387728 644.989812,136.131188 645.345313,136.429688 L645.423209,136.49517 C645.546168,136.598692 645.561473,136.612589 645.494281,136.558025 L645.4496,136.5216 C645.1868,136.3068 644.3444,135.6114 643.4327,134.8647 L643.157621,134.63958 C643.126939,134.614491 643.096237,134.589393 643.065534,134.564302 L642.789674,134.339085 L642.607237,134.19041 C641.97209,133.67322 641.378,133.194 641,132.9 L635.6,129 C627.8,123.4 619.8,118.1 611.6,113.1 C595.5,103.3 578.5,94.6 561.1,87.2 L562.885677,87.9643535 L561.668017,87.4742939 C538.584812,78.2289022 514.731968,71.1810324 490.39055,66.4009507 Z M537.048131,346.702389 L537.098677,347.069354 L537.05,346.7 C536.9625,346.0375 536.875,345.375 536.784375,344.709375 L536.500677,342.709354 L536.762147,344.705399 C536.29257,341.465341 535.796542,338.230154 535.274135,335.000153 L310.806796,334.999433 C310.263943,338.307627 309.748439,341.62088 309.260363,344.938852 L309.103677,346.013354 L308.974411,347.019234 C302.575196,397.278235 302.575196,448.221765 308.974411,498.480766 L309.092677,499.400354 L309.260369,500.549903 C309.774416,504.038119 310.318904,507.521521 310.893772,510.999648 L535.060848,510.999628 C535.65246,507.426223 536.212077,503.846447 536.739631,500.260698 L536.852677,499.475354 L537.024655,498.129218 C543.325115,447.904115 543.325115,396.995885 537.024655,346.770782 L536.765677,344.734354 L537.048131,346.702389 Z" id="globe" fill="currentColor"></path>
    </g>
</svg>