<?xml version="1.0" encoding="UTF-8"?>
<svg viewBox="0 0 27 26" version="1.1" xmlns="http://www.w3.org/2000/svg" xmlns:xlink="http://www.w3.org/1999/xlink">
    <title>home</title>
    <g id="Page-1" stroke="none" stroke-width="1" fill="none" fill-rule="evenodd">
        <path d="M12.5691665,1.0294758 C13.1006744,0.55752519 13.9024979,0.55747382 14.4342167,1.02952717 L26.5482104,11.7825214 C26.9741445,12.1606675 27.1148394,12.7431697 26.9070139,13.266646 C26.698872,13.7900196 26.1920437,14.12825 25.6158699,14.12825 L23.6806831,14.12825 L23.6806831,24.9019983 C23.6806831,25.3292042 23.3251492,25.6755 22.8866644,25.6755 L16.2470074,25.6755 C15.8085226,25.6755 15.4529887,25.3291529 15.4529887,24.9019983 L15.4529887,18.3604967 L11.5505528,18.3604967 L11.5505528,24.9019469 C11.5505528,25.3291529 11.1950189,25.6755 10.756534,25.6755 L4.1165607,25.6755 C3.6780758,25.6755 3.3225419,25.3291015 3.3225419,24.9019469 L3.3225419,14.12825 L1.3877243,14.12825 C0.8114978,14.12825 0.3047221,13.7900709 0.0965803,13.266646 C-0.1115088,12.7432211 0.029186,12.1606675 0.4551201,11.7825727 L12.5691665,1.0294758 Z M23.4732796,2.21944684 C23.9118171,2.21944684 24.2672983,2.56574259 24.2672983,2.99289719 L24.2672983,7.646134 L18.1408505,2.21944684 L23.4732796,2.21944684 Z" id="home" fill="currentColor" fill-rule="nonzero"></path>
    </g>
</svg>