<?xml version="1.0" encoding="UTF-8"?>
<svg viewBox="0 0 22 29" version="1.1" xmlns="http://www.w3.org/2000/svg" xmlns:xlink="http://www.w3.org/1999/xlink">
    <title>Capa_1</title>
    <g id="Argon-Commander" stroke="none" stroke-width="1" fill="none" fill-rule="evenodd">
        <g id="Frame-9-Copy" transform="translate(-240, -461)" stroke="currentColor">
            <g id="Capa_1" transform="translate(241, 461.5)">
                <path d="M15.2726707,0.845070423 L20.3636364,0.845070423 L20.3636364,27.1549296 C20.3636364,27.619493 19.9815919,28 19.5151515,28 L17.3939394,28 M16.5454545,28 L0.848428283,28 C0.38210101,28 0,27.6197183 0,27.1549296 L0,3.8028169 M0,2.95769014 L0,0.845070423 L5.09096566,0.845070423 M5.09096566,2.53521127 L1.6969697,2.53521127 L1.6969697,26.3098592 L15.2726707,26.3098592 L18.6666667,22.9295775 L18.6666667,2.53521127 L15.2726707,2.53521127" id="Shape"></path>
                <rect id="Rectangle" x="5.09096566" y="0" width="10.1817051" height="3.38028169"></rect>
                <path d="M10.2836364,14.0354673 L17.0714586,14.0354673 M10.2836364,15.7255519 L13.6775192,15.7255519" id="Shape"></path>
                <polyline id="Path" points="15.2726707 26.3098592 15.2726707 22.9295775 18.6666101 22.9295775"></polyline>
                <polygon id="Path" points="5.07201616 7.16259155 5.97197576 8.05892958 7.47187071 6.56507042 8.67179798 7.76016901 5.97197576 10.4491831 3.87203232 8.35774648"></polygon>
                <polygon id="Path" points="5.07201616 13.5005634 5.97197576 14.3969014 7.47187071 12.9029859 8.67179798 14.0981408 5.97197576 16.7870986 3.87203232 14.695662"></polygon>
                <polygon id="Path" points="5.07201616 19.8385352 5.97197576 20.7348169 7.47187071 19.2409577 8.67179798 20.4360563 5.97197576 23.1250704 3.87203232 21.0336338"></polygon>
                <path d="M10.2836364,20.3733828 L17.0714586,20.3733828 M10.2836364,22.0635237 L13.6775192,22.0635237" id="Shape"></path>
                <path d="M10.2836364,7.69755186 L17.0714586,7.69755186 M10.2836364,9.38763636 L13.6775192,9.38763636" id="Shape"></path>
            </g>
        </g>
    </g>
</svg>