<?xml version="1.0" encoding="UTF-8"?>
<svg viewBox="0 0 683 683" version="1.1" xmlns="http://www.w3.org/2000/svg" xmlns:xlink="http://www.w3.org/1999/xlink">
    <title>Combined Shape</title>
    <g id="Page-1" stroke="none" stroke-width="1" fill="none" fill-rule="evenodd">
        <path d="M572.997319,99.7148179 C578.520166,99.7148179 582.997319,104.19197 582.997319,109.714818 L582.997319,672.666803 C582.997319,678.189651 578.520166,682.666803 572.997319,682.666803 L222.806661,682.666803 L10.0006667,682.66667 C4.47781906,682.66667 0.00066666665,678.189518 0.00066666665,672.66667 L0.00066666665,403.290677 C0.00066666665,397.76783 4.47781906,393.290677 10.0006667,393.290677 L48.9888667,393.29042 L49.0598657,393.290411 C49.0832676,393.290411 49.1066507,393.290491 49.1300148,393.290651 L67.3438667,393.29042 L67.3443983,383.429077 C67.3443983,377.999838 71.671069,373.581146 77.0644935,373.43292 L77.3443983,373.429078 C82.8672454,373.429078 87.3443983,377.90623 87.3443983,383.429077 L87.3438667,393.29042 L93.4358667,393.29042 L93.5065312,393.290411 C93.5299331,393.290411 93.5533163,393.290491 93.5766803,393.290651 L137.882867,393.29042 L137.95373,393.290411 C137.977132,393.290411 138.000515,393.290491 138.023879,393.290651 L214.170298,393.2872 C233.226924,384.638463 254.392397,379.822144 276.682793,379.822144 C360.312084,379.822144 428.105456,447.615074 428.105456,531.243474 C428.105456,587.478384 397.4512,636.553364 351.940853,662.669844 L562.997319,662.666803 L562.997319,109.714818 C562.997319,104.19197 567.474472,99.7148179 572.997319,99.7148179 Z M19.9998667,615.32242 L20.0006667,662.66667 L201.423084,662.668575 C181.090441,651.000056 163.723146,634.748904 150.730138,615.324061 L147.952867,615.32242 L147.95373,632.260271 C147.95373,637.783119 143.476577,642.260271 137.95373,642.260271 C132.430883,642.260271 127.95373,637.783119 127.95373,632.260271 L127.952867,615.32242 L103.505867,615.32242 L103.506531,632.260271 C103.506531,637.689511 99.1798601,642.108203 93.7864361,642.256429 L93.5065312,642.260271 C87.9836836,642.260271 83.5065312,637.783119 83.5065312,632.260271 L83.5058667,615.32242 L59.0588667,615.32242 L59.0598657,632.260271 C59.0598657,637.689511 54.7331945,642.108203 49.3397705,642.256429 L49.0598657,642.260271 C43.5370181,642.260271 39.0598657,637.783119 39.0598657,632.260271 L39.0588667,615.32242 L19.9998667,615.32242 Z M276.682793,399.822144 C256.71527,399.822144 237.787808,404.275091 220.839308,412.242106 C220.712472,412.310028 220.581752,412.371692 220.449519,412.43057 C175.998724,433.501093 145.26013,478.78252 145.26013,531.243474 C145.26013,603.825958 204.100309,662.666137 276.682793,662.666137 C349.266135,662.666137 408.105456,603.826433 408.105456,531.243474 C408.105456,458.660798 349.266419,399.822144 276.682793,399.822144 Z M276.68346,426.962143 C334.276078,426.962143 380.96479,473.6504 380.96479,531.243474 C380.96479,588.836758 334.275867,635.526138 276.68346,635.526138 C219.089947,635.526138 172.400796,588.836987 172.400796,531.243474 C172.400796,473.650172 219.089736,426.962143 276.68346,426.962143 Z M276.68346,446.962143 C230.135344,446.962143 192.400795,484.695954 192.400795,531.243474 C192.400795,577.791292 230.135642,615.526138 276.68346,615.526138 C323.230129,615.526138 360.964791,577.791107 360.964791,531.243474 C360.964791,484.696138 323.230427,446.962143 276.68346,446.962143 Z M477.704656,557.844805 L501.612254,581.752404 L525.519852,557.844805 C529.425095,553.939562 535.756745,553.939562 539.661988,557.844805 C543.56723,561.750048 543.56723,568.081698 539.661988,571.986941 L508.683322,602.965606 C504.778079,606.870849 498.446429,606.870849 494.541186,602.965606 L470.63374,579.05816 L446.727475,602.965454 C442.822317,606.870781 436.490667,606.870917 432.58534,602.965759 C428.680013,599.0606 428.679877,592.72895 432.585036,588.823623 L463.562368,557.844957 C467.467587,553.939571 473.799354,553.939503 477.704656,557.844805 Z M19.9998667,547.97742 L19.9998667,595.32242 L139.451867,595.32242 L139.069527,594.4983 C132.423854,580.072116 127.982457,564.421588 126.174452,547.978299 L103.505867,547.97742 L103.506531,564.915206 C103.506531,570.344446 99.1798601,574.763138 93.7864361,574.911364 L93.5065312,574.915206 C87.9836836,574.915206 83.5065312,570.438054 83.5065312,564.915206 L83.5058667,547.97742 L59.0588667,547.97742 L59.0598657,564.915206 C59.0598657,570.344446 54.7331945,574.763138 49.3397705,574.911364 L49.0598657,574.915206 C43.5370181,574.915206 39.0598657,570.438054 39.0598657,564.915206 L39.0588667,547.97742 L19.9998667,547.97742 Z M290.646555,474.642479 L305.702867,518.29542 L322.838316,518.296304 L322.838316,527.600282 L308.911867,527.59942 L312.506867,538.02042 L322.838316,538.020736 L322.838316,547.324713 L315.715867,547.32442 L323.508493,569.915206 L301.923993,569.915206 L294.580867,547.32442 L260.735867,547.32442 L253.393575,569.915206 L231.809075,569.915206 L239.600867,547.32442 L232.478525,547.324713 L232.478525,538.020736 L242.809867,538.02042 L246.404867,527.59942 L232.478525,527.600282 L232.478525,518.296304 L249.613867,518.29542 L264.671013,474.642479 L290.646555,474.642479 Z M267.147867,527.59942 L263.760867,538.02042 L291.555867,538.02042 L288.168867,527.59942 L267.147867,527.59942 Z M133.924919,480.632449 L103.505867,480.63342 L103.506531,497.571474 C103.506531,503.000714 99.1798601,507.419406 93.7864361,507.567633 L93.5065312,507.571474 C87.9836836,507.571474 83.5065312,503.094322 83.5065312,497.571474 L83.5058667,480.63342 L59.0588667,480.63342 L59.0598657,497.571474 C59.0598657,503.000714 54.7331945,507.419406 49.3397705,507.567633 L49.0598657,507.571474 C43.5370181,507.571474 39.0598657,503.094322 39.0598657,497.571474 L39.0588667,480.63342 L19.9998667,480.63342 L19.9998667,527.97742 L125.294673,527.976619 C125.645466,511.403209 128.65909,495.484946 133.924919,480.632449 Z M277.286625,496.413786 L270.172867,518.29542 L285.143867,518.29542 L278.030943,496.413786 L277.286625,496.413786 Z M20.0006667,413.290677 L19.9998667,460.63342 L142.698173,460.631139 C152.378021,442.302185 165.708818,426.19954 181.722506,413.291236 L147.952867,413.29042 L147.95373,430.227743 C147.95373,435.656983 143.627059,440.075674 138.233635,440.223901 L137.95373,440.227743 C132.430883,440.227743 127.95373,435.75059 127.95373,430.227743 L127.952867,413.29042 L103.505867,413.29042 L103.506531,430.227743 C103.506531,435.656983 99.1798601,440.075674 93.7864361,440.223901 L93.5065312,440.227743 C87.9836836,440.227743 83.5065312,435.75059 83.5065312,430.227743 L83.5058667,413.29042 L59.0588667,413.29042 L59.0598657,430.227743 C59.0598657,435.656983 54.7331945,440.075674 49.3397705,440.223901 L49.0598657,440.227743 C43.5370181,440.227743 39.0598657,435.75059 39.0598657,430.227743 L39.0588667,413.29042 L20.0006667,413.290677 Z M532.591187,377.12761 C538.114034,377.12761 542.591186,381.604763 542.591186,387.12761 C542.591186,392.650458 538.114034,397.12761 532.591187,397.12761 L451.777856,397.12761 C446.255008,397.12761 441.777856,392.650458 441.777856,387.12761 C441.777856,381.604763 446.255008,377.12761 451.777856,377.12761 L532.591187,377.12761 Z M572.997719,0.00042039999 C578.520566,0.00042039999 582.997719,4.47757279 582.997719,10.0004201 L582.997719,62.7684188 C582.997719,68.2912662 578.520566,72.7684186 572.997719,72.7684186 C567.474872,72.7684186 562.997719,68.2912662 562.997719,62.7684188 L562.997719,20.0004203 L87.3443983,20.0004203 L87.3443983,336.428412 C87.3443983,341.951259 82.8672454,346.428412 77.3443983,346.428412 C71.8215507,346.428412 67.3443983,341.951259 67.3443983,336.428412 L67.3443983,10.0004201 C67.3443983,4.47757279 71.8215507,0.00042039999 77.3443983,0.00042039999 L572.997719,0.00042039999 Z M198.563862,323.252678 C204.086709,323.252678 208.563861,327.729831 208.563861,333.252678 C208.563861,338.775526 204.086709,343.252678 198.563862,343.252678 L117.750531,343.252678 C112.227683,343.252678 107.750531,338.775526 107.750531,333.252678 C107.750531,327.729831 112.227683,323.252678 117.750531,323.252678 L198.563862,323.252678 Z M251.091994,282.845079 C256.614841,282.845079 261.091993,287.322232 261.091993,292.845079 C261.091993,298.367927 256.614841,302.845079 251.091994,302.845079 L117.750664,302.845079 C112.227816,302.845079 107.750664,298.367927 107.750664,292.845079 C107.750664,287.322232 112.227816,282.845079 117.750664,282.845079 L251.091994,282.845079 Z M532.591187,282.845079 C538.114034,282.845079 542.591186,287.322232 542.591186,292.845079 C542.591186,298.367927 538.114034,302.845079 532.591187,302.845079 L451.777856,302.845079 C446.255008,302.845079 441.777856,298.367927 441.777856,292.845079 C441.777856,287.322232 446.255008,282.845079 451.777856,282.845079 L532.591187,282.845079 Z M532.590653,193.952016 C538.113501,193.952016 542.590653,198.429168 542.590653,203.952015 L542.590653,244.358681 C542.590653,249.881528 538.113501,254.358681 532.590653,254.358681 L117.750664,254.358681 C112.227816,254.358681 107.750664,249.881528 107.750664,244.358681 L107.750664,203.952015 C107.750664,198.429168 112.227816,193.952016 117.750664,193.952016 L532.590653,193.952016 Z M127.750664,213.952015 L127.750664,234.358681 L522.590653,234.358681 L522.590653,213.952015 L127.750664,213.952015 Z M449.421196,45.00965 L498.346387,121.333452 L498.346388,50.4062858 C498.346388,44.8834384 502.82354,40.4062861 508.346387,40.4062861 C513.869235,40.4062861 518.346387,44.8834384 518.346387,50.4062858 L518.346387,155.463617 C518.346387,165.450866 505.317335,169.268325 499.92758,160.860252 L451.002389,84.5364506 L451.002389,155.463617 C451.002389,160.986464 446.525236,165.463616 441.002389,165.463616 C435.479542,165.463616 431.002389,160.986464 431.002389,155.463617 L431.002389,50.4062858 C431.002389,40.4190367 444.031442,36.6015772 449.421196,45.00965 Z M381.833851,47.3540077 L415.507183,152.411338 C417.19291,157.670632 414.295961,163.300683 409.036668,164.98641 C403.777374,166.672137 398.147323,163.775188 396.461596,158.515895 L387.031867,129.09742 L357.590867,129.09742 L348.161887,158.515785 C346.504791,163.685957 341.035918,166.573229 335.854611,165.068218 L335.58689,164.986445 C330.327577,163.300779 327.430564,157.670761 329.11623,152.411448 L362.788229,47.3541173 C365.75735,38.0903983 378.864623,38.0903229 381.833851,47.3540077 Z M141.99453,40.4062861 C147.517377,40.4062861 151.99453,44.8834384 151.99453,50.4062858 L151.99453,145.463616 L209.338528,145.463616 C214.861375,145.463616 219.338528,149.940769 219.338528,155.463616 C219.338528,160.986464 214.861375,165.463616 209.338528,165.463616 L141.99453,165.463616 C136.471682,165.463616 131.99453,160.986464 131.99453,155.463616 L131.99453,50.4062858 C131.99453,44.8834384 136.471682,40.4062861 141.99453,40.4062861 Z M278.029993,40.4062861 C302.14884,40.4062861 321.701992,59.9594381 321.701992,84.078285 L321.701992,121.791617 C321.701992,145.910464 302.14884,165.463616 278.029993,165.463616 C253.910212,165.463616 234.357994,145.910864 234.357994,121.791617 L234.357994,84.078285 C234.357994,59.9590388 253.910212,40.4062861 278.029993,40.4062861 Z M278.029993,60.4062856 C264.956029,60.4062856 254.357994,71.0046111 254.357994,84.078285 L254.357994,121.791617 C254.357994,134.865291 264.956029,145.463617 278.029993,145.463617 C291.103145,145.463617 301.701992,134.86477 301.701992,121.791617 L301.701992,84.078285 C301.701992,71.0051328 291.103145,60.4062856 278.029993,60.4062856 Z M372.311246,83.169287 L364.000867,109.09742 L380.621867,109.09742 L372.311246,83.169287 Z M672.66665,114.486151 C678.189497,114.486151 682.66665,118.963303 682.66665,124.486151 L682.66665,412.35681 C682.66665,417.879657 678.189497,422.35681 672.66665,422.35681 C667.143802,422.35681 662.66665,417.879657 662.66665,412.35681 L662.665867,250.31742 L650.340867,250.31742 L650.341184,385.780011 C650.341184,391.209251 646.014513,395.627942 640.621089,395.776169 L640.341184,395.780011 C634.818337,395.780011 630.341184,391.302858 630.341184,385.780011 L630.340867,250.31742 L618.015867,250.31742 L618.015985,603.975472 C618.015985,613.739095 621.272259,623.217074 627.260501,630.916055 L627.630537,631.385185 L640.341317,647.272421 L653.052867,631.384224 C659.27611,623.603811 662.66665,613.938353 662.66665,603.975472 L662.66665,459.143476 C662.66665,453.620628 667.143802,449.143476 672.66665,449.143476 C678.189497,449.143476 682.66665,453.620628 682.66665,459.143476 L682.66665,603.975472 C682.66665,618.479551 677.730672,632.550611 668.670536,643.877757 L650.340867,666.78642 L650.341184,672.66667 C650.341184,678.09591 646.014513,682.514602 640.621089,682.662828 L640.341184,682.66667 C634.818337,682.66667 630.341184,678.189518 630.341184,672.66667 L630.340867,666.78642 L612.012868,643.878718 C602.951963,632.550611 598.015985,618.479551 598.015985,603.975472 L598.015867,186.51042 L598.015585,186.441482 C598.015585,186.41808 598.015665,186.394697 598.015826,186.371333 L598.015985,124.486151 C598.015985,118.963303 602.493137,114.486151 608.015985,114.486151 L672.66665,114.486151 Z M618.015867,196.44142 L618.015867,230.31742 L630.340867,230.31742 L630.341184,213.378682 C630.341184,207.949442 634.667855,203.53075 640.061279,203.382524 L640.341184,203.378682 C645.864031,203.378682 650.341184,207.855834 650.341184,213.378682 L650.340867,230.31742 L662.665867,230.31742 L662.665867,196.44142 L618.015867,196.44142 Z M618.015985,134.486151 L618.015867,176.44142 L662.665867,176.44142 L662.66665,134.486151 L618.015985,134.486151 Z" id="Combined-Shape" fill="currentColor" fill-rule="nonzero"></path>
    </g>
</svg>