<?xml version="1.0" encoding="UTF-8"?>
<svg viewBox="0 0 51 69" version="1.1" xmlns="http://www.w3.org/2000/svg" xmlns:xlink="http://www.w3.org/1999/xlink">
    <g id="Argon-Desktop" stroke="none" stroke-width="1" fill="none" fill-rule="evenodd">
        <g id="Frame-11" transform="translate(-663, -445)" fill="currentColor" fill-rule="nonzero">
            <path d="M701.081096,474.897881 L675.990332,474.897881 L675.990332,466.605325 C675.990332,463.115095 677.397571,459.939848 679.673778,457.643679 C681.950117,455.340857 685.082401,453.910725 688.532491,453.910725 C691.982581,453.910725 695.121311,455.34099 697.391072,457.643679 C699.66728,459.939848 701.081096,463.115228 701.081096,466.605325 L701.081096,474.897881 Z M711.774955,476.642996 C711.113429,475.980428 710.302866,475.46863 709.394961,475.179995 L709.394961,466.605325 C709.394961,460.799232 707.047326,455.517977 703.266539,451.693202 C699.485751,447.868427 694.271679,445.5 688.532491,445.5 C682.793171,445.5 677.579099,447.868427 673.798312,451.693202 C670.017524,455.517977 667.669889,460.799232 667.669889,466.605325 L667.669889,475.15378 C666.736071,475.442415 665.899462,475.9606 665.225045,476.642996 C664.161526,477.725543 663.5,479.208238 663.5,480.848226 L663.5,507.549656 C663.5,509.189776 664.161526,510.672472 665.225045,511.754885 C666.29501,512.830778 667.760785,513.5 669.381912,513.5 L707.618088,513.5 C709.239346,513.5 710.70499,512.830778 711.774955,511.754885 C712.838474,510.672472 713.5,509.189776 713.5,507.549656 L713.5,480.848226 C713.5,479.208105 712.838606,477.725543 711.774955,476.642996 Z M684.42732,487.736865 C685.471371,486.687188 686.911101,486.03114 688.5,486.03114 C690.088899,486.03114 691.528497,486.687188 692.57268,487.736865 C693.616862,488.793196 694.258788,490.249677 694.258788,491.856928 C694.258788,493.109941 693.869686,494.264612 693.20816,495.215949 C692.656867,496.00334 691.917599,496.646214 691.055077,497.079232 L691.055077,499.782204 C691.055077,500.490683 690.769762,501.140211 690.302787,501.605965 C689.842257,502.071719 689.206777,502.367008 688.499868,502.367008 C687.799406,502.367008 687.15748,502.071719 686.69695,501.605965 C686.236552,501.140211 685.94466,500.490683 685.94466,499.782204 L685.94466,497.079232 C685.088583,496.646214 684.349316,496.00334 683.798022,495.215949 C683.130051,494.264745 682.740949,493.110074 682.740949,491.856928 C682.741212,490.249544 683.389715,488.793063 684.42732,487.736865 Z" id="locked"></path>
        </g>
    </g>
</svg>