<svg viewBox="17 26 30 30" xmlns="http://www.w3.org/2000/svg">
  <title>mainchain-icon</title>
  <g fill="currentColor">
    <path d="M32.882 40.034h6.177c.487 0 .882.395.882.882v7.059c0 .487-.395.882-.882.882h-14.118c-.487 0-.882-.395-.882-.882v-14.118c0-.487.395-.882.882-.882h7.059c.487 0 .882.395.882.882v6.177zm-7.059 7.059h5.294v-5.294h-5.294v5.294zm0-12.353v5.294h5.294v-5.294h-5.294zm7.059 12.353h5.294v-5.294h-5.294v5.294zm-.882-14.118h7.059c.487 0 .882.395.882.882v7.059c0 .487-.395.882-.882.882h-7.059c-.487 0-.882-.395-.882-.882v-7.059c0-.487.395-.882.882-.882zm.882 1.765v5.294h5.294v-5.294h-5.294zM47 52.387c0 1.949-1.58 3.529-3.53 3.529H20.53c-1.95 0-3.53-1.58-3.53-3.529v-22.942c0-1.949 1.58-3.529 3.53-3.529v1.765c-.975 0-1.765.79-1.765 1.764v22.942c0 .974.79 1.765 1.765 1.765h22.94c.975 0 1.765-.79 1.765-1.765h1.765zm-26.47-26.471h22.94c1.95 0 3.53 1.58 3.53 3.529v22.942c0 1.95-1.765.975-1.765 0v-22.941c0-.975-.79-1.765-1.765-1.765h-22.94c-.975 0-1.765-1.765 0-1.765z"/>
  </g>
</svg>
