<?xml version="1.0" encoding="UTF-8"?>
<svg viewBox="0 0 38 40" version="1.1" xmlns="http://www.w3.org/2000/svg" xmlns:xlink="http://www.w3.org/1999/xlink">
    <g id="Page-1" stroke="none" stroke-width="1" fill="none" fill-rule="evenodd">
        <path d="M15.8468352,3.21061665 C16.4825769,0.879563649 18.8869926,-0.481482355 21.2304671,0.15765759 C23.1012068,0.656522585 24.4065079,2.35600556 24.447895,4.29698678 L25.6749606,4.71390496 L26.2955923,4.89779582 L26.0658009,5.43679094 L25.8812669,6.05190445 L25.698323,6.66171718 L25.1662717,6.44299091 L23.6435708,6.00825443 L23.5418453,6.1174896 C23.0152337,7.48519697 21.7217946,8.44474129 20.2399905,8.54750177 L19.9719018,8.55673547 C19.8902981,8.55669663 19.8067202,8.55394102 19.7235015,8.54845399 L19.6846792,8.54315955 L19.6488075,8.66657373 L19.8455953,8.75773513 C21.121082,9.36121074 21.7784814,10.0532525 22.2582726,11.2290839 L22.3425253,11.4448788 L22.3907108,11.4300774 L22.398533,11.4481967 C22.7564555,12.3083363 22.9793994,12.9420562 23.6401467,14.9333073 C24.7295415,18.2163456 25.4099562,19.6333855 26.6835213,21.1870186 C27.0614273,21.6189622 27.2588072,22.1501108 27.2783113,22.7444265 L27.2780897,22.7735045 L33.4156107,25.8046022 C33.9658454,24.7514835 34.3167489,23.8299618 34.5852277,22.9252546 L34.7389307,22.3748685 L34.8387773,22.051606 C35.2581285,20.637149 35.5057018,19.0382284 35.6341796,16.9825844 L35.7807108,14.6360774 L36.7424878,16.7814783 C37.5396319,18.5597229 37.8031385,20.7094042 37.5275703,23.0517196 L37.4611587,23.5583757 C37.2633293,24.905731 36.9002561,26.2208815 36.3865568,27.4465947 L36.1862498,27.9033701 L36.305066,27.9560981 L36.5063986,27.4969729 L36.55,27.384 L36.565,27.391 L36.9031916,27.6334913 L37.4679965,27.9158937 L37.167979,28.4006553 L36.6143768,29.5693709 L36.333,30.163 L36.313,30.153 L35.397145,29.6231124 L35.2972275,29.6753811 C34.5312297,30.9904026 33.5745168,32.2641963 32.4823992,33.4266158 L32.0092723,33.9147236 L31.6378697,34.2779176 C30.1490052,35.7010836 28.6207078,36.7688383 27.0392001,37.47779 L24.8507108,38.4580774 L26.3489302,36.5860648 C28.0309856,34.4834955 28.9259943,33.3233422 29.8343912,32.0617116 C30.7482595,30.7715481 31.6286467,29.3520351 32.631441,27.561331 L32.5182349,27.4974234 L32.181257,28.0895835 L26.2621852,25.1136929 L26.0479252,25.2293511 C25.1311454,25.8475006 24.0337296,25.7559063 23.2478603,24.9421697 L23.086746,24.7600403 C22.5312437,24.0655336 22.1005504,23.4305925 21.7403233,22.7701918 L21.6257108,22.8330774 L19.1096796,21.5979179 L18.9374287,21.8340312 C18.6398864,22.5383748 18.2982955,23.2856842 17.8801411,24.1491739 L17.6340862,24.6515573 L17.8217789,24.842131 C18.1722626,25.073644 18.6206366,25.382277 19.1171927,25.7329791 L19.6877619,26.1393473 C20.5632599,26.7679259 21.355103,27.358962 21.6731286,27.6224932 L21.6973205,27.64393 C22.5351077,28.3421223 22.6749572,29.4405532 22.1595408,30.6760194 C22.0614754,30.8860804 21.9615621,31.1024556 21.8503637,31.3456274 L21.6101235,31.873769 C21.5226464,32.0672502 21.5129267,32.0887481 21.3906064,32.3595892 L21.3389753,32.4739112 C21.1774564,32.8315011 21.1774564,32.8315011 21.0767369,33.0540936 C20.2456476,34.887379 19.7222937,35.9437948 19.0935908,37.0442881 C18.7785546,37.5957334 18.4561749,38.1182898 18.1125027,38.6335915 C17.2531913,39.8710385 15.7799093,40.2140841 14.575826,39.509809 C13.3534916,38.7948586 13.0147028,37.3527928 13.8282765,36.0793921 C14.9392159,34.3624878 15.7348842,32.7918842 17.0427613,29.7674185 L16.9236013,29.7154499 L16.688,30.25 L16.687,30.249 L16.699494,30.1826158 C16.6457634,30.1534757 16.6323307,30.1461907 16.5942829,30.1255564 L16.5456259,30.0991686 L16.3584242,29.9976449 C15.620587,29.5975559 14.9218592,29.2188632 14.2885391,28.8758372 C13.2362133,28.305868 12.4226601,27.8659113 11.9088891,27.5889812 L11.7687673,27.5144079 L11.6020341,27.6495944 C10.6471579,28.9499567 9.62511474,30.2360633 8.32208318,31.7815371 L7.76191569,32.4417351 C7.51106836,32.7356417 7.0022989,33.3254503 6.24359,34.2027257 C6.12905255,34.3351614 4.71581924,35.9682101 4.60102557,36.1016713 C3.60214015,37.2383284 2.08395789,37.4184506 0.965836667,36.5826832 C-0.179548238,35.7265369 -0.334874317,34.233521 0.653942961,32.9983104 C5.74556198,27.1382255 7.6505938,24.6946885 9.68303429,21.3570223 C10.3300557,20.1709703 10.9254933,18.8607222 11.560486,17.2379629 L11.4396243,17.1900864 L11.22,17.738 L11.004,17.633 L8.14760669,16.1757498 L8.00035614,16.2683688 C7.32124302,16.9363654 6.30932789,17.0495689 5.38368708,16.5762847 L5.17293424,16.4572825 C3.99032716,15.7251297 3.53839739,14.3401182 4.13327174,13.0803843 C6.5027657,8.03761268 10.9631211,6.194412 16.8028305,7.72386928 C17.0958134,7.80227411 17.3697603,7.87883138 17.6266552,7.95416984 L17.7525882,7.99243708 L17.8084931,7.87680861 L17.7120018,7.80998171 C16.8000618,7.13929869 16.2169678,6.10119489 16.1421943,4.96714673 L16.1339165,4.71436313 C16.1339516,4.53570156 16.1510006,4.34846153 16.1842318,4.15761262 L16.2224046,3.97282109 L15.6440112,3.72056453 Z M16.5055631,8.84532616 C11.2038866,7.45679185 7.30856,9.05083308 5.18284673,13.574787 C4.84523518,14.2897316 5.09749906,15.046017 5.78587249,15.472153 C6.43270285,15.8725718 7.07667834,15.7503289 7.40866064,15.1416947 L7.70322104,14.6016673 L7.63254047,14.6362806 L8.02030435,14.0409482 C8.67443469,12.8053689 9.49981211,11.9220395 10.518571,11.4011187 L10.8428422,11.2502814 C11.710757,10.9032214 12.5751562,10.849801 14.0179882,11.030155 L14.72,11.117 L14.708,11.171 L14.5112762,11.7362109 C14.1595283,13.2604515 13.7763714,14.6248258 13.3325833,15.9240336 L13.138591,16.4771232 L12.8956275,17.1520218 L12.938063,17.0920914 L12.6408527,17.6608708 C12.0799948,19.0941738 11.5509225,20.2847092 10.9837784,21.3798912 L10.687494,21.9370168 C8.60215792,25.3627157 6.67749884,27.8345859 1.54483517,33.7411419 C0.980552959,34.4464086 1.04112371,35.1904758 1.66044842,35.6534054 C2.29548372,36.1280782 3.13218118,36.0155493 3.72545358,35.3405024 C3.84097326,35.206183 5.27400722,33.5502248 5.36835237,33.4411373 C6.12241686,32.569237 6.62982573,31.9810174 6.87956547,31.688408 C8.64156025,29.6239542 9.89009256,28.0530925 11.0756523,26.3995487 L11.3962681,25.952374 L11.8065201,26.2187101 C11.9165514,26.2737257 12.9118548,26.8107472 14.8333836,27.8515013 C15.4735251,28.1982219 16.172334,28.5769579 16.9114566,28.9777439 C17.5332368,29.3149492 17.5332368,29.3149492 17.7208783,29.4167281 L17.8045178,29.4621036 L17.8518452,29.4877811 L18.3705381,29.7691996 L18.1076507,30.2279112 C16.7723581,33.3157753 15.9531409,34.9311553 14.804152,36.7068462 C14.350218,37.4173496 14.5041597,38.1238136 15.161587,38.5083466 C15.8443119,38.9076762 16.647442,38.7092473 17.1533496,37.9809455 C17.4770146,37.4954694 17.7853341,36.9954239 18.0862037,36.4687761 C18.6946316,35.4037725 19.2052008,34.3725399 20.0200561,32.5750649 C20.1081675,32.3803349 20.1191814,32.3559936 20.2289438,32.1129929 L20.2826507,31.9940906 C20.4548729,31.6127536 20.4548729,31.6127536 20.5532742,31.3951121 C20.7761035,30.9031167 20.9444333,30.5362347 21.0983433,30.207706 C21.4040394,29.474194 21.3573451,28.8708953 20.9443016,28.52644 L20.9215352,28.5061923 C20.3335997,28.0191857 16.9783072,25.5964395 16.7906315,25.5162259 L16.741463,25.5056004 L16.904861,24.9773685 L16.3347108,24.6540774 L16.5294376,24.2380836 L16.5790345,24.1675804 C17.2011362,22.9068086 17.6574582,21.9089841 18.0396631,20.9704138 L18.2035467,20.559994 L18.457,19.911 L18.499,19.932 L18.999688,20.250295 L22.505835,21.9726129 L22.6896628,22.0629142 L22.7593319,22.2155001 C23.0854142,22.8133176 23.4792964,23.3933873 23.9917172,24.0339435 C24.4743139,24.6279116 25.1492124,24.606458 25.697664,24.0081471 L26.0240674,23.6520707 L26.3810501,23.8794647 L33.3933441,27.3241004 L34.001,27.622 L33.988,27.646 L33.6437146,28.1282042 C32.7132322,29.7897798 31.8842883,31.1405149 31.0342865,32.3704286 L30.7785316,32.7359681 C30.4074647,33.2513355 30.0413677,33.7458266 29.640678,34.2726926 L29.5302077,34.4151199 L29.6212493,34.5064396 L29.6877306,34.4552007 C30.0256373,34.1800524 30.3604787,33.8866924 30.6937383,33.5740929 L31.1888742,33.0943414 L31.5581367,32.7154849 C32.771964,31.4377635 33.8124784,30.0149732 34.5945985,28.5550157 L34.8847108,28.0120774 L35.3419788,28.2953622 L35.7387108,28.4930774 L35.7600163,28.505685 L35.8365753,28.4918542 L35.8195585,28.3876928 L35.3999928,28.1790249 L34.8423533,27.900205 L35.1321988,27.418534 C35.7701675,26.0266023 36.1936416,24.4907334 36.3751762,22.9174477 C36.4580161,22.2133101 36.4883061,21.5276385 36.4655889,20.8675578 L36.4635431,20.8242405 L36.3349329,20.8142963 L36.2557754,21.201504 C36.1790532,21.5486288 36.094046,21.8851495 36.0003511,22.2123491 L35.8524905,22.6987226 C35.5131437,23.999347 35.0076705,25.3283519 34.2764366,26.8639431 L33.996,27.45 L33.991,27.448 L33.4987212,27.1360863 L26.4249159,23.6914506 L26.0099861,23.4893979 L26.1032701,23.0979529 C26.1612688,22.6339626 26.0621951,22.23885 25.7984284,21.93689 C24.4084233,20.241712 23.6795115,18.7357949 22.5389958,15.2986969 L22.435801,14.9879959 C21.8387398,13.1922568 21.6279509,12.5955933 21.1736555,11.3981797 L21.1227108,11.4120774 L21.1087811,11.3824644 C20.5476011,10.1997941 19.5620937,9.6632785 16.5055631,8.84532616 Z M19.8527108,15.3550774 L20.5148003,17.0545618 C20.5774151,17.2155712 20.6416475,17.3826432 20.7271644,17.6068173 C20.7584036,17.6888307 20.774648,17.7314777 20.7873911,17.7649281 L20.8116143,17.828506 L20.8311373,17.8797407 C20.8694387,17.9802151 20.8694387,17.9802151 20.9329156,18.1466658 L21.0389269,18.422687 C21.3453189,19.2160373 21.5518325,19.708664 21.7907682,20.2164025 L22.4897108,21.7010774 L21.0128068,20.9853835 L18.9829322,20.0012019 L18.4732622,19.7540892 L18.6856856,19.2957815 L18.7355558,19.1480713 C18.7862273,19.0000898 18.8439139,18.8381595 18.950116,18.5440614 C19.1718454,17.9300417 19.2775743,17.6180278 19.3593746,17.3221335 L19.4113734,17.1241214 L19.8527108,15.3550774 Z M13.1472618,12.1086963 C12.3555652,12.0543787 11.7989308,12.1174914 11.2812051,12.3244932 C10.5768151,12.6210668 9.96987487,13.1497538 9.45468872,13.9028576 L9.39032493,14.0024031 L9.448,14.032 L9.694,14.158 L12.1920927,15.4412032 L12.2980317,15.3616078 C12.6227129,14.3931185 12.9134439,13.3865786 13.1837868,12.2982913 L13.2094565,12.1881036 Z M20.9287198,1.27791686 C19.4673383,0.879358281 17.9474764,1.52962398 17.242078,2.82774234 L17.1891469,2.93406178 L17.248,2.961 L17.264,2.969 L17.789,3.212 L17.778,3.238 L17.4986976,3.76322595 C17.3947609,4.02306767 17.3262076,4.2928622 17.3029438,4.53790279 L17.2941425,4.71649958 C17.2941425,6.1799509 18.5106974,7.39650575 19.9741487,7.39650575 C21.2757127,7.39650575 22.396906,6.4473464 22.5999291,5.17845217 L22.713,4.468 L22.765,4.483 L23.1951153,4.67214535 L23.2776988,4.61426116 L23.288511,4.46335977 C23.3205558,3.07970577 22.4670763,1.81663729 21.1770835,1.3552948 Z" id="miner" fill="currentColor" fill-rule="nonzero"></path>
    </g>
</svg>