<?xml version="1.0" encoding="UTF-8"?>
<svg viewBox="0 0 54 50" version="1.1" xmlns="http://www.w3.org/2000/svg" xmlns:xlink="http://www.w3.org/1999/xlink">
    <title>Shape</title>
    <g id="Logos" stroke="none" stroke-width="1" fill="none" fill-rule="evenodd">
        <g id="Artboard" transform="translate(-453, -383)" fill="currentColor" fill-rule="nonzero">
            <path d="M505.772277,430.49985 L502.147362,430.49985 L502.147362,419.871332 C502.147362,418.837773 501.311866,417.996889 500.285164,417.996889 L499.561584,417.996889 L499.561584,401.743756 C500.886412,402.009501 502.091776,401.153425 502.36907,399.911356 C502.658162,398.613656 501.844454,397.320128 500.554912,397.0286 L466.212286,389.269252 L466.212286,386.572111 C466.212286,385.853829 465.783537,385.218138 465.120114,384.953355 L460.829756,383.239386 C459.821548,382.837879 458.696216,383.459235 458.490769,384.532378 C456.150082,396.734184 460.52621,402.726713 463.199672,405.147731 L463.199672,421.624137 L462.039053,421.624137 C461.057735,421.624137 460.259119,422.427684 460.259119,423.41599 L460.259119,430.499743 L454.378331,430.499743 C453.934703,430.499743 453.575251,430.861772 453.575251,431.308104 C453.575251,431.754329 453.934703,432.116466 454.378331,432.116466 L505.772171,432.116466 C506.215799,432.116466 506.575251,431.754436 506.575251,431.308104 C506.575251,430.861879 506.215799,430.49985 505.772277,430.49985 Z M496.373815,417.996889 L496.373815,401.029967 L497.95553,401.387396 L497.95553,417.996889 L496.373815,417.996889 L496.373815,417.996889 Z M500.203113,398.606274 C500.628673,398.702558 500.897359,399.129312 500.802022,399.557243 C500.707217,399.983141 500.287609,400.256268 499.857053,400.15977 L466.212392,392.558435 L466.212392,390.9262 L500.203113,398.606274 Z M460.067489,384.83867 C460.083219,384.756614 460.169734,384.713928 460.237968,384.742385 L464.528113,386.456355 C464.575728,386.475291 464.606232,386.520545 464.606232,386.572111 L464.606232,404.219121 C462.340686,402.285195 457.780262,396.762855 460.067489,384.83867 Z M464.805726,406.368511 C464.925721,406.440831 465.010004,406.487048 465.039657,406.50256 C465.28868,406.632116 465.586699,406.622274 465.826476,406.475172 C466.066145,406.328927 466.212286,406.06682 466.212286,405.784706 L466.212286,394.215276 L494.767655,400.667082 L494.767655,417.996782 L494.044075,417.996782 C493.017267,417.996782 492.181876,418.837666 492.181876,419.871225 L492.181876,430.49985 L486.899892,430.49985 L484.809821,401.768469 C484.77953,401.345352 484.429963,401.018092 484.008867,401.018092 L475.649435,401.018092 C475.228551,401.018092 474.87909,401.345459 474.84848,401.767506 C474.592655,405.283706 473.107977,425.689159 472.757985,430.49985 L467.799315,430.49985 L467.799315,423.416097 C467.799315,422.427791 467.000699,421.624244 466.019168,421.624244 L464.805726,421.624244 L464.805726,406.368511 Z M476.0108,407.927998 L483.405175,404.60918 L484.05967,413.60696 L475.867104,409.902042 L476.0108,407.927998 Z M476.143973,406.097951 L476.396078,402.6346 L483.261585,402.6346 L483.280504,402.894782 L476.143973,406.097951 Z M475.742327,411.617724 L484.19295,415.43936 L484.324636,417.249186 L474.959972,422.367453 L475.742327,411.617724 Z M474.820528,424.283513 L484.453345,419.018573 L485.167253,428.832525 L474.759521,425.122899 L474.820528,424.283513 Z M461.865173,430.49985 L461.865173,423.416097 C461.865173,423.319278 461.943079,423.24086 462.039053,423.24086 L466.019168,423.24086 C466.115142,423.24086 466.193261,423.319278 466.193261,423.416097 L466.193261,430.49985 L461.865173,430.49985 Z M474.63772,426.794504 L485.033336,430.499743 L474.368078,430.499743 L474.63772,426.794504 Z M493.787931,430.49985 L493.787931,419.871332 C493.787931,419.729259 493.90293,419.613504 494.044075,419.613504 L500.285058,419.613504 C500.426203,419.613504 500.541202,419.729259 500.541202,419.871332 L500.541202,430.49985 L493.787931,430.49985 Z" id="Shape"></path>
        </g>
    </g>
</svg>