<?xml version="1.0" encoding="UTF-8"?>
<svg viewBox="0 0 342 330" version="1.1" xmlns="http://www.w3.org/2000/svg" xmlns:xlink="http://www.w3.org/1999/xlink">
    <title>Combined Shape</title>
    <g id="Page-1" stroke="none" stroke-width="1" fill="none" fill-rule="evenodd">
        <path d="M319.525581,45 L22.4744186,45 C10.0629209,45 0,34.925625 0,22.5 C0,10.074375 10.0629209,0 22.4744186,0 L319.525581,0 C331.937079,0 342,10.074375 342,22.5 C342,34.925625 331.937079,45 319.525581,45 Z M319.525581,330 L22.4744186,330 C10.0629209,330 0,319.925625 0,307.5 C0,295.074375 10.0629209,285 22.4744186,285 L319.525581,285 C331.937079,285 342,295.074375 342,307.5 C342,319.925625 331.937079,330 319.525581,330 Z M319.525581,187.5 L22.4744186,187.5 C10.0629209,187.5 0,177.425625 0,165 C0,152.574375 10.0629209,142.5 22.4744186,142.5 L319.525581,142.5 C331.937079,142.5 342,152.574375 342,165 C342,177.425625 331.937079,187.5 319.525581,187.5 Z" id="Combined-Shape" fill="currentColor"></path>
    </g>
</svg>