<?xml version="1.0" encoding="UTF-8"?>
<svg viewBox="0 0 460 502" version="1.1" xmlns="http://www.w3.org/2000/svg" xmlns:xlink="http://www.w3.org/1999/xlink">
    <title>onboarding</title>
    <g id="Page-1" stroke="none" stroke-width="1" fill="none" fill-rule="evenodd">
        <g id="support" transform="translate(-26, 0)" fill="currentColor">
            <path d="M256,0 C338.71,0 406,67.29 406,150 L406,213 C406,229.542 392.542,243 376,243 L357.801,243 L355.673,255.755 C352.074,277.348 341.401,298.05 326.029,313.696 L343.092,347.823 L390.622,363.663 C442.8579,381.081268 481.554663,434.00895 485.642163,491.881487 C485.879349,495.239665 486,498.614494 486,502 L26,502 C26,498.414809 26.1353071,494.841593 26.4010313,491.287444 C30.7104867,433.647072 69.3217652,381.02171 121.377,363.664 L168.908,347.823 L185.962,313.715 C184.449,312.18 182.972,310.602 181.556,308.974 C174.728,301.139 169.117,292.417 164.782,283 L156,283 C139.458,283 126,269.542 126,253 L126,241.28 C114.361,237.152 106,226.036 106,213 L106,150 C106,67.097 173.078,0 256,0 Z M169.796,368.609 L127.702,382.637 C83.332,397.433 50.363,442.461 46.4,492 L237.99,492 L225.688,472.251 C215.705,458.902 206.497,444.841 198.316,430.452 C198.296,430.417 198.278,430.383 198.259,430.349 C187.062,410.661 177.508,389.934 169.796,368.609 Z M342.204,368.609 C334.549,389.775 325.095,410.322 314.04,429.822 C314.034,429.833 314.028,429.843 314.022,429.854 C313.972,429.942 313.925,430.032 313.875,430.12 C305.612,444.678 296.338,458.852 286.311,472.252 L274.01,492 L465.6,492 C461.637,442.461 428.668,397.433 384.297,382.637 L342.204,368.609 Z M255.083,389.226 L219.42,426.94 C226.3,438.503 233.854,449.8 241.952,460.602 C242.124,460.832 242.286,461.069 242.438,461.313 L256,483.086 C270.255,460.224 269.56,461.253 270.05,460.6 C278.155,449.795 285.735,438.451 292.661,426.804 L255.083,389.226 Z M393.214,418.992 C396.581,414.614 402.859,413.795 407.237,417.164 C419.074,426.27 428.863,438.154 435.546,451.531 C438.013,456.472 436.008,462.478 431.068,464.946 C426.136,467.41 420.126,465.418 417.653,460.469 C412.314,449.782 404.496,440.289 395.042,433.016 C390.665,429.648 389.846,423.37 393.214,418.992 Z M366,396 C371.52,396 376,400.48 376,406 C376,411.52 371.52,416 366,416 C360.48,416 356,411.52 356,406 C356,400.48 360.48,396 366,396 Z M311.566,329.494 L268.83,374.688 L302.778,408.636 C311.501,391.942 319.006,374.541 325.17,356.703 L311.566,329.494 Z M198.739,332.882 L186.828,356.704 C192.982,374.512 200.485,391.907 209.217,408.621 L240.935,375.079 L198.739,332.882 Z M235.159,341.016 L254.683,360.541 L272.353,341.854 C266.943,342.742 261.471,343.2 256,343.2 C249.011,343.2 242.018,342.461 235.159,341.016 Z M232.048,120.113 C211.591,121.288 192.36,131.525 179.999,148.001 L166.54,165.947 C167.806,197.347 173.534,246.347 178.54,263 L207.703,263 C211.722,251.608 222.673,243 236,243 L256,243 C272.542,243 286,256.458 286,273 C286,289.576 272.575,303 256,303 L236,303 C222.963,303 211.848,294.639 207.72,283 L187.334,283 C198.895,302.376 216.809,315.894 236.346,320.778 C249.216,323.992 262.782,323.993 275.659,320.778 C306.948,312.955 330.65,284.23 335.946,252.465 C337.79,241.326 338.512,237.338 339.428,231.141 C339.429,231.134 339.43,231.127 339.431,231.121 C342.312,211.846 344.323,190.888 345.307,170.003 L330.585,167.899 C293.787,162.645 258.965,145.729 232.048,120.113 Z M236,263 C230.478,263 226,267.479 226,273 C226,278.514 230.486,283 236,283 L256,283 C261.521,283 266,278.522 266,273 C266,267.486 261.514,263 256,263 L236,263 Z M146,243 L146,253 C146,258.514 150.486,263 156,263 L157.808,263 C157.231,260.6 156.732,258.184 156.326,255.759 L154.198,243 L146,243 Z M126,160 L126,213 C126,218.514 130.486,223 136,223 L151.265,222.999 C148.781,203.743 147.109,183.334 146.409,163.262 C146.408,163.217 146.406,163.182 146.405,163.146 C146.366,162.091 146.331,161.043 146.298,160 L126,160 Z M365.709,160 C365.691,160.572 365.675,161.138 365.655,161.72 C364.974,182.357 363.28,203.31 360.738,223 L376,223 C381.514,223 386,218.514 386,213 L386,160 L365.709,160 Z M247.05,60 C205.053,60 170.63,92.189 166.442,132.908 C183.436,112.236 209.144,100 236,100 C238.652,100 241.195,101.054 243.071,102.929 C267.349,127.207 299.433,143.249 333.413,148.101 L345.921,149.888 C345.921,149.855 345.922,149.822 345.922,149.79 C345.975,147.297 346.000014,144.557 346.000014,141.41 C346.026,96.651 309.759,60 264.95,60 L247.05,60 Z M256,20 C187.377,20 131.445,72.979 126.38,140 L146.017,140 C146.736,84.773 191.712,40 247.051,40 L264.951,40 C320.291,40 365.264,84.773 365.984,140 L385.619,140 C380.496,72.972 324.318,20 256,20 Z" id="onboarding"></path>
        </g>
    </g>
</svg>