<?xml version="1.0" encoding="UTF-8"?>
<svg width="432px" height="416px" viewBox="0 0 432 416" version="1.1" xmlns="http://www.w3.org/2000/svg" xmlns:xlink="http://www.w3.org/1999/xlink">
    <title>Combined Shape</title>
    <g id="Page-1" stroke="none" stroke-width="1" fill="none" fill-rule="evenodd">
        <g id="overlay(1)" transform="translate(-40, -48)" fill="#000000" fill-rule="nonzero">
            <path d="M192,48.011439 C194.565563,48.011439 196.975477,49.2418942 198.48,51.32 L342.48,251.32 C344.495645,254.114453 344.495645,257.885547 342.48,260.68 L198.48,460.68 C196.975477,462.758106 194.565563,463.988561 192,463.988561 C189.434437,463.988561 187.024523,462.758106 185.52,460.68 L41.52,260.68 C39.5043551,257.885547 39.5043551,254.114453 41.52,251.32 L185.52,51.32 C187.024523,49.2418942 189.434437,48.011439 192,48.011439 Z M320,48.011439 C322.565563,48.011439 324.975477,49.2418942 326.48,51.32 L470.48,251.32 C472.495645,254.114453 472.495645,257.885547 470.48,260.68 L326.48,460.68 C324.975477,462.758106 322.565563,463.988561 320,463.988561 C317.434437,463.988561 315.024523,462.758106 313.52,460.68 L268.4,398.04 C266.727997,395.717774 266.421896,392.679945 267.597001,390.070835 C268.772107,387.461725 271.249893,385.677719 274.097001,385.390835 C276.94411,385.103951 279.727997,386.357774 281.4,388.68 L320,442.32 L454.16,256 L320,69.68 L281.52,123.12 C278.90656,126.592428 273.998899,127.343244 270.466814,124.811011 C266.934729,122.278778 266.070336,117.389843 268.52,113.8 L313.52,51.32 C315.024523,49.2418942 317.434437,48.011439 320,48.011439 Z M192,69.68 L57.84,256 L192,442.32 L246.16,366.96 L235.36,352 C233.313526,348.423333 234.318713,343.877251 237.682365,341.49682 C241.046017,339.116389 245.667608,339.680443 248.36,342.8 L256,353.4 L326.16,256 L256,158.6 L248.48,169 C246.986593,171.097565 244.574859,172.348094 242,172.36 C240.319051,172.357594 238.681568,171.825762 237.32,170.84 C233.744601,168.253208 232.9392,163.259727 235.52,159.68 L246.16,144.88 L192,69.68 Z M203.122365,293.49682 C206.486017,291.116389 211.107608,291.680443 213.8,294.8 L231.08,318.64 C233.652396,322.230143 232.82876,327.225675 229.24,329.8 C227.897174,330.792728 226.269927,331.325791 224.6,331.320063 C222.018274,331.330226 219.590301,330.093897 218.08,328 L200.8,304 C198.753526,300.423333 199.758713,295.877251 203.122365,293.49682 Z M183.52,231.84 C186.106792,228.264601 191.100273,227.4592 194.68,230.04 C198.26876,232.614325 199.092396,237.609857 196.52,241.2 L185.84,256 L196.52,270.64 C199.092396,274.230143 198.26876,279.225675 194.68,281.8 C193.337174,282.792728 191.709927,283.325791 190.04,283.320063 C187.458274,283.330226 185.030301,282.093897 183.52,280 L169.52,260.68 C167.504355,257.885547 167.504355,254.114453 169.52,251.32 Z M223.385807,180.491686 C225.487928,180.153845 227.638006,180.667887 229.36,181.92 C232.910274,184.504418 233.713656,189.467536 231.16,193.04 L213.84,217.04 C212.204068,219.437365 209.398026,220.760663 206.507597,220.497878 C203.617168,220.235093 201.095778,218.42745 199.919009,215.774367 C198.74224,213.121284 199.094695,210.038953 200.84,207.72 L218.16,183.72 C219.402948,181.991378 221.283685,180.829527 223.385807,180.491686 Z" id="Combined-Shape"></path>
        </g>
    </g>
</svg>