<?xml version="1.0" encoding="UTF-8"?>
<svg viewBox="0 0 400 390" version="1.1" xmlns="http://www.w3.org/2000/svg" xmlns:xlink="http://www.w3.org/1999/xlink">
    <title>overview</title>
    <g id="Page-1" stroke="none" stroke-width="1" fill="none" fill-rule="evenodd">
        <g id="dashboard" transform="translate(-62, -64)" fill="currentColor">
            <path d="M448.456,205.739 L395.044,205.739 L395.044,440.735 L448.456,440.735 L448.456,205.739 Z M388.429,192.533 C384.754,192.533 381.814,195.52 381.814,199.136 L381.814,288 L321.787,288 C321.052,288 320.562,288.095 320.072,288.267 L263.72,255.593 L263.72,78.299 C335.507,80.845 399.209,125.769 425.67,192.534 L388.429,192.534 L388.429,192.533 Z M381.814,301.216 L328.402,301.216 L328.402,440.735 L381.814,440.735 L381.814,301.216 Z M315.172,300.604 L257.105,267.041 L103.485,355.741 C134.111,404.532 187.523,437.733 248.529,440.555 L248.529,370.978 C248.529,367.359 251.469,364.365 255.144,364.365 L315.172,364.365 L315.172,300.604 L315.172,300.604 Z M315.172,377.58 L315.172,440.736 L261.76,440.736 L261.76,377.58 L315.172,377.58 Z M96.87,344.284 C83.395,318.923 75.554,290.125 75.554,259.47 C75.554,161.707 153.466,81.725 250.489,78.299 L250.489,255.594 L96.87,344.284 Z M461.686,199.136 L461.686,447.341 C461.686,451.036 458.746,453.944 455.071,453.944 L255.145,453.944 L254.41,453.944 C203.449,453.322 155.672,433.158 119.411,396.951 C43.542,321.168 43.574,197.69 119.411,121.893 C156.162,85.161 205.164,64.899 257.105,64.899 C338.937,64.899 411.705,115.988 439.636,192.533 L455.071,192.533 C458.746,192.533 461.686,195.52 461.686,199.136 Z" id="overview"></path>
        </g>
    </g>
</svg>