<svg viewBox="15.5 21.5 27.5 30.5" xmlns="http://www.w3.org/2000/svg">
  <title>p2p-icon</title>
  <g fill="currentColor">
    <path d="M41.879 21.5c.443 0 .801.395.801.882v7.059c0 .487-.358.882-.801.882h-6.41c-.442 0-.801-.395-.801-.882v-7.059c0-.487.359-.882.801-.882h6.41zm-.801 1.765h-4.808v5.294h4.808V23.265zm-3.205 9.175c0-.487.359-.882.801-.882.443 0 .801.395.801.882v8.235c0 .663-.4 1-.801 1-.4 0-.801-.396-.801-1V32.44zm-19.221 0c0-.487.359-.882.801-.882.443 0 .802.395.802.882v8.235c0 .663-.401 1-.802 1-.4 0-.801-.396-.801-1V32.44zm14.403-7.41c.443 0 .801.395.801.882 0 .487-.358.882-.801.882h-7.478c-.602 0-.908-.441-.908-.882 0-.441.359-.882.908-.882h7.478zm0 21c.443 0 .801.395.801.882 0 .488-.358.883-.801.883h-7.478c-.602 0-.908-.442-.908-.883 0-.441.359-.882.908-.882h7.478zm-1.352-8.22l2.72 3.005c.313.345.313.904 0 1.249-.313.344-.82.344-1.134 0l-2.72-2.995c-.425-.469-.358-1.019-.075-1.331.283-.312.821-.345 1.209.082zm2.748-7.154c.313.344.313.903 0 1.248L25.31 41.97c-.425.468-.925.395-1.208.083-.284-.312-.313-.903.075-1.331l9.141-10.066c.313-.344.82-.345 1.133 0zM25.31 31.017l2.72 2.995c.313.345.313.904 0 1.249-.313.344-.821.344-1.134 0l-2.72-2.995c-.425-.469-.358-1.02-.075-1.331.284-.312.821-.345 1.209.082zM22.658 21.5c.442 0 .801.395.801.882v7.059c0 .487-.359.882-.801.882h-6.41c-.443 0-.802-.395-.802-.882v-7.059c0-.487.359-.882.801-.882h6.41zm-.801 1.765h-4.808v5.294h4.807V23.265zm.801 19.411c.442 0 .801.396.801.883v7.059c0 .487-.359.882-.801.882h-6.41c-.443 0-.802-.395-.802-.882V43.56c0-.487.359-.883.801-.883h6.41zm-.801 1.765h-4.808v5.294h4.807v-5.294zm19.222 0c.442 0 .801.396.801.883v7.059c0 .487-.359.882-.801.882h-6.41c-.443 0-.802-.395-.802-.882V43.56c0-.487.359-.883.802-.883h6.41zm-.802 1.765h-4.808v5.294h4.808v-5.294z"/>
  </g>
</svg>
