<?xml version="1.0" encoding="UTF-8"?>
<svg viewBox="0 0 512 442" version="1.1" xmlns="http://www.w3.org/2000/svg" xmlns:xlink="http://www.w3.org/1999/xlink">
    <title>Combined Shape</title>
    <g id="Page-1" stroke="none" stroke-width="1" fill="none" fill-rule="evenodd">
        <g id="team(1)" transform="translate(0, -60)" fill="currentColor">
            <path d="M256,60.121 C286.503,60.121 313.188,70.527 333.169,90.215 C353.303,110.053 365.241,138.085 367.691,171.279 C369.548,196.437 371.484,218.034 373.343,236.303 C377.709,225.473 384.961,216.105 394.158,209.177 C393.254,206.168 392.792,203.061 392.792,199.888 C392.792,180.282 410.541,164.331 432.356,164.331 C454.171,164.331 471.92,180.282 471.92,199.888 C471.92,203.057 471.453,206.163 470.549,209.174 C485.974,220.792 495.968,239.254 495.968,260.009 C495.968,271.139 493.013,282.085 487.405,291.776 C485.197,307.704 476.372,321.276 463.904,329.861 L463.902,345.126 C463.902,345.322 464.012,345.5 464.188,345.588 L494.56,360.772 C505.317,366.151 512.001,376.964 512.001,388.99 L512.001,494.378 C512.001,498.52 508.643,501.879 504.501,501.879 C500.359,501.879 497.001,498.52 497.001,494.378 L497.001,388.99 C497.001,382.681 493.496,377.009 487.853,374.188 L462.801,361.663 L454.089,369.942 C447.997,375.732 440.175,378.628 432.357,378.628 C424.536,378.628 416.718,375.734 410.624,369.942 L401.911,361.662 L390.304,367.465 C396.289,374.491 399.776,383.529 399.776,393.123 L399.776,494.377 C399.776,498.519 396.418,501.879 392.276,501.879 C388.134,501.879 384.776,498.519 384.776,494.377 L384.776,393.123 C384.776,383.401 379.029,374.581 370.135,370.653 L327.268,351.72 C313.839,378.661 286.473,395.765 256.001,395.765 C225.642,395.765 198.184,378.623 184.747,351.714 L141.867,370.653 C132.973,374.581 127.226,383.401 127.226,393.123 L127.226,494.377 C127.226,498.519 123.868,501.879 119.726,501.879 C115.584,501.879 112.226,498.519 112.226,494.377 L112.226,393.123 C112.226,380.166 118.576,368.217 128.879,360.891 L121.276,358.719 C119.408,358.185 116.859,357.455 114.301,356.2 L95.161,375.34 L95.161,494.379 C95.161,498.521 91.803,501.879 87.661,501.879 C83.519,501.879 80.161,498.521 80.161,494.379 L80.161,375.34 L61.154,356.333 C60.144,356.847 59.083,357.28 57.966,357.599 L27.002,366.446 C19.936,368.465 15,375.008 15,382.358 L15,494.379 C15,498.521 11.642,501.879 7.5,501.879 C3.358,501.879 0,498.521 0,494.379 L0,382.358 C0,368.347 9.409,355.873 22.881,352.025 L53.844,343.178 C55.179,342.796 56.112,341.56 56.112,340.171 L56.112,329.339 C41.627,318.86 32.064,301.447 32.064,282.041 L32.064,269.796 L28.225,262.117 C25.492,256.652 24.048,250.533 24.048,244.423 L24.048,243.976 C24.048,217.74 45.393,196.395 71.629,196.395 L142.337,196.395 C143,188.444 143.66,180.091 144.311,171.278 C146.761,138.085 158.699,110.053 178.833,90.214 C198.812,70.527 225.497,60.121 256,60.121 Z M472.436,398.692 C476.578,398.692 479.936,402.05 479.936,406.192 L479.936,494.379 C479.936,498.521 476.578,501.879 472.436,501.879 C468.294,501.879 464.936,498.521 464.936,494.379 L464.936,406.192 C464.936,402.05 468.294,398.692 472.436,398.692 Z M39.564,388.782 C43.707,388.782 47.064,392.141 47.064,396.282 L47.064,494.379 C47.064,498.521 43.706,501.879 39.564,501.879 C35.422,501.879 32.064,498.521 32.064,494.379 L32.064,396.282 C32.064,392.14 35.422,388.782 39.564,388.782 Z M175.839,404.814 C179.981,404.814 183.339,408.172 183.339,412.314 L183.339,494.378 C183.339,498.52 179.981,501.878 175.839,501.878 C171.697,501.878 168.339,498.52 168.339,494.378 L168.339,412.314 C168.339,408.172 171.697,404.814 175.839,404.814 Z M336.161,404.814 C340.303,404.814 343.661,408.172 343.661,412.314 L343.661,494.378 C343.661,498.52 340.303,501.878 336.161,501.878 C332.019,501.878 328.661,498.52 328.661,494.378 L328.661,412.314 C328.661,408.172 332.019,404.814 336.161,404.814 Z M288.581,301.307 C278.503,305.356 267.508,307.589 256,307.589 C244.492,307.589 233.496,305.356 223.419,301.307 L223.419,319.303 C223.419,328.617 217.914,337.066 209.394,340.829 L198.477,345.651 C209.498,367.126 231.598,380.766 256,380.766 C280.493,380.766 302.508,367.149 313.521,345.65 L302.606,340.829 C294.086,337.067 288.581,328.617 288.581,319.303 L288.581,301.307 Z M448.901,337.144 C443.664,338.769 438.107,339.653 432.354,339.653 C426.6,339.653 421.044,338.769 415.806,337.144 L415.806,345.125 C415.806,347.742 415.16,350.242 413.984,352.446 L420.955,359.07 C427.348,365.145 437.362,365.146 443.753,359.07 L450.723,352.447 C449.546,350.242 448.9,347.742 448.9,345.123 L448.901,337.144 Z M71.114,337.006 L71.114,340.17 C71.114,341.665 70.925,343.13 70.572,344.538 L87.662,361.628 L104.672,344.618 C104.375,343.27 104.208,341.794 104.208,340.167 L104.208,337.156 C98.924,338.795 93.371,339.654 87.683,339.654 C87.108,339.654 86.534,339.646 85.957,339.628 C80.808,339.474 75.832,338.555 71.114,337.006 Z M382.587,308.886 C382.647,309.246 382.708,309.611 382.764,309.944 C383.793,316.029 381.115,322.123 375.943,325.472 C369.923,329.37 358.58,335.834 341.904,341.788 L376.195,356.933 C376.477,357.058 376.745,357.205 377.024,357.336 L400.522,345.587 C400.698,345.499 400.807,345.322 400.807,345.125 L400.807,329.861 C393.112,324.563 386.805,317.368 382.587,308.886 Z M130.618,319.346 C129.298,320.946 127.89,322.49 126.378,323.957 C124.131,326.138 121.729,328.091 119.21,329.836 L119.208,340.169 C119.208,341.838 119.207,342.528 125.397,344.296 L149.09,351.065 L170.098,341.786 C153.414,335.83 142.069,329.363 136.057,325.47 C133.67,323.925 131.823,321.79 130.618,319.346 Z M256,75.121 C229.519,75.121 206.476,84.035 189.361,100.898 C171.854,118.148 161.449,142.868 159.271,172.383 C153.365,252.377 146.643,296.982 144.027,312.446 C143.987,312.683 144.067,312.788 144.209,312.88 C151.332,317.491 166.81,326.108 190.966,332.571 L203.335,327.108 C206.424,325.743 208.42,322.68 208.42,319.303 L208.42,293.518 C184.317,277.881 168.339,250.737 168.339,219.928 L168.339,213.654 C168.339,205.466 172.857,197.778 180.129,193.591 C187.251,189.49 196.617,181.975 200.789,169.459 C202.099,165.529 206.348,163.405 210.276,164.715 C214.206,166.025 216.33,170.273 215.02,174.202 C209.357,191.189 196.991,201.191 187.614,206.59 C184.938,208.131 183.34,210.771 183.34,213.653 L183.34,219.927 C183.34,259.992 215.936,292.588 256.001,292.588 C296.066,292.588 328.662,259.992 328.662,219.927 L328.662,205.864 C328.662,201.068 326.656,196.571 323.157,193.529 C309.432,181.592 278.195,160.745 223.19,155.245 C219.068,154.833 216.061,151.158 216.473,147.036 C216.885,142.913 220.571,139.907 224.682,140.319 C283.82,146.233 317.931,169.104 333,182.21 C339.776,188.102 343.662,196.724 343.662,205.864 L343.662,219.927 C343.662,250.735 327.683,277.88 303.581,293.517 L303.581,319.302 C303.581,322.679 305.577,325.743 308.666,327.107 L321.034,332.571 C345.18,326.109 360.658,317.497 367.791,312.88 C367.934,312.788 368.014,312.683 367.974,312.445 C365.357,296.98 358.635,252.373 352.73,172.382 C350.551,142.867 340.146,118.148 322.639,100.898 C305.524,84.035 282.481,75.121 256,75.121 Z M71.629,211.395 C53.664,211.395 39.048,226.011 39.048,243.976 L39.048,244.423 C39.048,248.217 39.945,252.015 41.641,255.409 L46.272,264.671 C46.793,265.712 47.064,266.861 47.064,268.025 L47.064,282.041 C47.064,304.876 64.713,323.984 86.407,324.633 C97.493,324.969 107.984,320.902 115.93,313.192 C123.88,305.478 128.258,295.13 128.258,284.056 L128.258,268.024 C128.258,266.86 128.529,265.712 129.05,264.67 L132.835,257.1 C135.086,252.6 136.275,247.561 136.275,242.53 L136.275,211.395 L71.629,211.395 Z M432.355,211.395 C405.549,211.395 383.742,233.203 383.742,260.007 C383.742,268.919 386.233,277.687 390.947,285.364 C391.529,286.312 391.892,287.376 392.012,288.481 C394.245,309.102 411.589,324.652 432.355,324.652 C452.248,324.652 468.992,310.377 472.328,291.048 C460.573,274.429 434.38,264.961 421.76,261.212 C420.306,264.827 417.828,269.108 413.61,273.326 C410.682,276.255 405.933,276.255 403.004,273.326 C400.075,270.398 400.075,265.649 403.004,262.72 C408.481,257.243 408.823,252.04 408.823,251.991 C408.823,249.719 409.854,247.569 411.625,246.145 C413.397,244.722 415.719,244.178 417.937,244.667 C419.743,245.065 457.206,253.544 478.502,275.179 C480.125,270.293 480.968,265.175 480.968,260.008 C480.968,233.203 459.16,211.395 432.355,211.395 Z M63.612,236.476 C64.994,236.476 97.647,236.576 115.063,245.284 C118.768,247.136 120.27,251.641 118.417,255.346 C117.103,257.973 114.454,259.493 111.703,259.493 C110.576,259.493 109.432,259.239 108.355,258.7 C96.533,252.789 72.048,251.481 63.61,251.476 C59.468,251.474 56.112,248.115 56.1129998,243.974 C56.114,239.832 59.471,236.476 63.612,236.476 Z M432.355,179.33 C418.811,179.33 407.791,188.552 407.791,199.887 C407.791,200.362 407.832,200.832 407.871,201.302 C415.411,198.145 423.682,196.395 432.355,196.395 C441.029,196.395 449.301,198.145 456.843,201.303 C456.881,200.833 456.919,200.362 456.919,199.887 C456.919,188.552 445.899,179.33 432.355,179.33 Z" id="Combined-Shape"></path>
        </g>
    </g>
</svg>