<svg xmlns="http://www.w3.org/2000/svg" viewBox="479 144 275 181"><path fill="currentColor" fill-opacity=".86" d="M705.493 235.65c-.685 48.954-40.537 88.297-89.497 88.35a88.5 88.5 0 0 1-43.75-11.443l.17-.065.347-.133q4.305-1.596 8.687-3.349a189 189 0 0 0 2.882-1.187c2.089-.858 4.202-1.725 6.328-2.638 1.129-.494 2.32-1.012 3.484-1.52a428 428 0 0 0 9.596-4.354q2.878-1.336 5.77-2.751c1.25-.612 2.505-1.22 3.768-1.847 1.968-.973 3.937-1.978 5.913-2.986 1.214-.63 2.424-1.249 3.645-1.883a588 588 0 0 0 6.447-3.443c1.033-.562 2.063-1.102 3.1-1.673a677 677 0 0 0 9.534-5.366 407 407 0 0 0 9.366-5.538c1.012-.614 2-1.235 3.003-1.852a539 539 0 0 0 6.171-3.834c1.169-.745 2.319-1.49 3.47-2.238a352 352 0 0 0 5.484-3.586q1.776-1.162 3.542-2.355a568 568 0 0 0 5.182-3.574c1.155-.805 2.3-1.606 3.438-2.418a500 500 0 0 0 5.093-3.682c1.07-.787 2.143-1.569 3.199-2.355a407 407 0 0 0 5.214-3.977c.908-.688 1.833-1.398 2.728-2.1 2.19-1.73 4.324-3.452 6.428-5.182.377-.32.773-.63 1.15-.943Zm-25.106-76.221c34.59-10.51 60.133-10.75 66.147-.297 6.535 11.305-9.138 36.071-39.863 63.12a438.6 438.6 0 0 1-69.478 48.961 550 550 0 0 1-9.892 5.573 455 455 0 0 1-19.76 10.245c-.151.076-.31.147-.471.225a393 393 0 0 1-47.033 19.606c-38.78 13.115-68.08 14.31-74.579 3.006-6.03-10.463 6.948-32.502 33.338-57.21.355 1.89.741 3.754 1.212 5.583-.726.73-1.324 1.421-2.007 2.144-.881.927-1.776 1.856-2.581 2.755-.913 1.017-1.723 1.997-2.548 2.981-.716.858-1.456 1.725-2.1 2.553-.75.975-1.39 1.884-2.04 2.827-.557.796-1.16 1.596-1.631 2.355-.589.918-1.058 1.785-1.53 2.666-.39.71-.834 1.437-1.159 2.125a19 19 0 0 0-.635 1.522l-.368.992c-.232.628-.529 1.281-.701 1.886a18 18 0 0 0-.472 2.41c-.085.539-.241 1.102-.269 1.617-.02.803.035 1.608.166 2.402q.017.62.103 1.235a11 11 0 0 0 3.211 5.709c.12.121.233.248.359.363a13 13 0 0 0 2.58 1.794c.185.099.373.189.566.283 1.068.52 2.183.936 3.33 1.237.143.04.302.067.445.1 1.3.312 2.62.53 3.951.655l.472.053c1.035.082 2.132.135 3.295.135.36 0 .773-.053 1.141-.053.656-.013 1.343-.05 2.031-.094a62 62 0 0 0 3.692-.329c.74-.085 1.479-.17 2.251-.283a101 101 0 0 0 4.419-.763c.731-.136 1.403-.249 2.143-.41 2.247-.48 4.593-1.03 7.066-1.69l.122-.032a388 388 0 0 0 86.827-38.439 540 540 0 0 0 22.756-13.915c4.818-3.114 9.434-6.266 13.942-9.421a304 304 0 0 0 40.038-32.615c16.082-16.195 21.646-28.028 16.935-36.2a11.4 11.4 0 0 0-2.2-2.724c-.259-.239-.613-.41-.9-.625a13 13 0 0 0-2.135-1.415c-.404-.207-.908-.333-1.345-.508a19 19 0 0 0-2.526-.886c-.533-.13-1.15-.188-1.72-.292-.962-.168-1.912-.347-2.986-.432-.665-.048-1.385-.048-2.077-.048-1.118 0-2.224-.056-3.443 0-.782.039-1.64.138-2.466.207-1.256.11-2.51.218-3.866.407-.922.117-1.92.306-2.891.469a100 100 0 0 0-4.241.786c-1.097.237-2.261.53-3.409.803-1.023.24-1.969.433-3.034.71a91 91 0 0 0-4.183-3.82ZM523.132 268.633c.13.356.287.701.423 1.058.193.515.41 1.019.612 1.545a90 90 0 0 0 3.353 7.538l.292.611c1.316 2.583 2.781 5.079 4.324 7.538.327.513.656 1.037.985 1.54.33.504.632 1.022.97 1.521h-.078a97 97 0 0 1-4.867.895l-.637.099a85 85 0 0 1-3.993.471l-.565.044a42 42 0 0 1-3.34.154h-.301a31 31 0 0 1-2.795-.122h-.027a18 18 0 0 1-2.172-.338l-.255-.053a11 11 0 0 1-1.51-.472l-.226-.094a5.4 5.4 0 0 1-1.006-.566l-.104-.087a2.4 2.4 0 0 1-.577-.623 2.3 2.3 0 0 1-.25-.838v-.142a5.6 5.6 0 0 1 .031-1.192l.04-.26q.134-.812.381-1.596l.104-.287q.36-1.079.846-2.105v-.053a34 34 0 0 1 1.339-2.472l.255-.442a44 44 0 0 1 1.854-2.827q.24-.317.471-.641c.74-1.022 1.55-2.1 2.493-3.246l.55-.66a87 87 0 0 1 3.298-3.813ZM615.996 145a88.42 88.42 0 0 1 51.778 16.52 83 83 0 0 1 12.072 10.292 90 90 0 0 1 5.718 6.387c.603.736 1.13 1.523 1.704 2.275 1.146 1.504 2.291 3.01 3.335 4.58.624.938 1.173 1.931 1.757 2.872.89 1.46 1.776 2.92 2.581 4.431.561 1.051 1.06 2.14 1.58 3.218a93 93 0 0 1 1.355 2.997c-.773.738-1.548 1.484-2.355 2.238-1.07.998-2.128 1.996-3.264 3.013a298 298 0 0 1-4.032 3.5c-1.182 1.017-2.35 2.032-3.59 3.058-1.454 1.2-2.99 2.417-4.517 3.631-1.286 1.028-2.549 2.045-3.885 3.075-1.612 1.245-3.298 2.494-4.975 3.743-1.366 1.016-2.689 2.028-4.103 3.047-1.79 1.3-3.66 2.595-5.51 3.895l-2.78 1.95-1.402.975c-2.013 1.376-4.104 2.742-6.176 4.113-1.357.895-2.677 1.794-4.057 2.684-2.337 1.509-4.743 3.002-7.141 4.494-1.215.746-2.36 1.493-3.57 2.234a438 438 0 0 1-11.08 6.594 534 534 0 0 1-11.228 6.293c-1.295.706-2.583 1.366-3.873 2.054-2.433 1.3-4.873 2.61-7.29 3.849-1.503.773-2.986 1.49-4.486 2.233-2.18 1.093-4.365 2.197-6.523 3.232-1.568.759-3.104 1.447-4.66 2.171-2.062.942-4.116 1.926-6.122 2.826-1.582.701-3.123 1.352-4.678 2.022-1.93.832-3.866 1.672-5.75 2.45q-1.158.47-2.29.915l-2.27.887c-1.836.702-3.679 1.452-5.468 2.116-1.481.55-2.912 1.045-4.358 1.553a247 247 0 0 1-5.148 1.771c-1.414.462-2.776.872-4.147 1.293-1.078.333-2.136.639-3.183.94a83 83 0 0 1-1.941-2.707c-.679-.991-1.37-1.969-2.006-2.978-.91-1.452-1.73-2.944-2.548-4.437-.547-.998-1.127-1.978-1.635-2.997-.815-1.633-1.52-3.32-2.229-5-.391-.93-.833-1.834-1.191-2.777a88 88 0 0 1-2.468-7.537c-.055-.193-.131-.374-.189-.567a87.3 87.3 0 0 1-2.859-15.664 84 84 0 0 1-.4-8.257c.055-49.407 40.091-89.444 89.497-89.5m90.661 24.188c.98-.005 1.893.02 2.698.08h.193q1.088.095 2.158.306l.354.067c.526.117 1.046.276 1.55.471q.142.05.267.108.55.225 1.037.557.048.053.09.113c.234.172.437.386.598.63a2.5 2.5 0 0 1 .264.849l.023.13q.066.585 0 1.17l-.032.238a10.4 10.4 0 0 1-.35 1.55c-.023.086-.062.175-.09.265q-.333 1.039-.79 2.031v.041a30 30 0 0 1-1.286 2.436l-.166.297a47 47 0 0 1-1.798 2.783l-.334.471a76 76 0 0 1-2.408 3.195l-.405.5a101 101 0 0 1-3.213 3.767l-.037.044c-.25-.52-.524-.992-.8-1.537a110 110 0 0 0-.853-1.635c-1.348-2.549-2.774-5.049-4.343-7.462-.128-.193-.264-.372-.39-.56a104 104 0 0 0-4.826-6.632c-.357-.458-.71-.925-1.083-1.398-.267-.313-.479-.638-.739-.943h.104c1.79-.396 3.42-.706 4.975-.971l.86-.145a73 73 0 0 1 4.034-.538l.837-.08c1.196-.109 2.314-.198 3.322-.198Z"/></svg>