<?xml version="1.0" encoding="UTF-8"?>
<svg viewBox="0 0 1076 262" version="1.1" xmlns="http://www.w3.org/2000/svg" xmlns:xlink="http://www.w3.org/1999/xlink">
    <title>Combined Shape</title>
    <g id="Page-1" stroke="none" stroke-width="1" fill="none" fill-rule="evenodd">
        <path d="M617.384265,0.986711259 C630.430385,0.989539686 641.54681,9.34966316 645.676314,20.9872266 L677.401367,20.9928834 C726.709337,20.9942976 769.936896,54.179526 783.21919,100.994238 L1065.89765,101.000601 C1071.42015,101.002016 1075.89614,105.48083 1075.89826,111.001213 L1075.89755,150.997294 C1075.89685,156.520505 1071.42015,160.997198 1065.89765,160.995783 L783.21919,161.002147 C769.936896,207.818273 726.70863,241.002794 677.399953,241.003502 L645.700356,241.009158 C641.681161,252.414791 630.713227,261.02523 617.386386,261.008967 C600.847158,260.997653 587.393038,247.533633 587.393038,231.00289 L587.39233,30.9927875 C587.394452,14.4019411 600.799782,1.00933868 617.384265,0.986711259 Z M617.3977,20.9914692 C611.853982,20.9985403 607.393553,25.4745262 607.393553,30.9970302 L607.393553,231.005012 C607.393553,236.516202 611.882974,241.005623 617.404064,241.009865 C622.92586,241.016229 627.402553,236.529637 627.395482,231.025518 L627.395482,30.989252 C627.396897,25.4766475 622.90889,20.990055 617.3977,20.9914692 Z M647.398119,40.9905703 L647.397412,221.00935 L677.398538,221.003693 C726.283659,221.003693 767.404746,181.258635 767.404039,130.999607 C767.404039,80.7483562 726.29073,40.99552 677.40066,40.9962272 L647.398119,40.9905703 Z M677.392882,181.002663 C682.922457,181.002663 687.39915,185.479356 687.39915,191.008931 C687.39915,196.524364 682.922457,201.001057 677.399953,201.008128 C671.877449,201.001057 667.400756,196.524364 667.393685,191.00186 C667.400756,185.479356 671.877449,181.002663 677.392882,181.002663 Z M677.399953,60.9910856 C682.923164,60.9932069 687.399857,65.4699 687.401271,70.9924039 L687.401271,150.997294 C687.399857,156.521212 682.922457,160.998612 677.399953,160.998612 C671.876742,160.996491 667.400049,156.521212 667.398634,150.997294 L667.398634,70.9924039 C667.399341,65.4691928 671.877449,60.9910856 677.399953,60.9910856 Z M786.942107,120.996167 C787.245456,124.323104 787.405969,127.664184 787.405969,131.000314 C787.405262,134.337151 787.245456,137.677523 786.942107,141.004461 L1055.89633,141.000218 L1055.89633,121.001824 L786.942107,120.996167 Z M458.600608,0.989539686 C475.183677,0.97115491 488.620827,14.4351751 488.601028,31.0012728 L488.601028,40.9997627 L537.392103,40.9990556 C553.932745,40.9990556 567.389694,54.4574189 567.391108,70.9980608 C567.369188,87.8024534 553.780717,100.97656 537.404124,100.997773 L488.600321,100.99848 L488.601028,161.00144 L537.392103,161.002147 C553.975171,161.002147 567.391815,174.42162 567.391815,191.00186 C567.410907,207.551694 553.978707,221.017835 537.379375,221.002986 L488.599614,221.002279 L488.599614,231.013497 C488.600321,247.553432 475.142664,261.011088 458.601316,261.011795 C445.325386,260.994117 434.339775,252.479137 430.296538,241.007037 L398.600477,241.00633 C349.392916,241.00633 306.055755,207.920804 292.74447,160.999319 L10.1027794,160.998612 C4.57956836,160.996491 0.102875326,156.521212 0.101461112,150.997294 L0.101461112,111.00192 C0.101461112,105.479416 4.57956836,101.001309 10.1013652,101.000601 L292.765683,100.999894 C306.059998,54.1745762 349.292507,20.9928834 398.600477,20.9942976 L430.31563,20.9942976 C434.443719,9.35249159 445.560852,0.990246793 458.600608,0.989539686 Z M458.611922,20.9907621 C453.084468,20.990055 448.595755,25.4787688 448.596462,30.9949088 L448.596462,231.007133 C448.596462,236.540951 453.065377,241.004209 458.614751,241.01128 C464.113213,241.009865 468.598391,236.524687 468.598391,231.013497 L468.598391,30.9885449 C468.606876,25.3910876 464.042502,20.983691 458.611922,20.9907621 Z M428.594532,40.99552 L398.59977,40.9962272 C349.617069,40.9962272 308.590733,80.8233095 308.597097,130.9989 C308.59144,181.284091 349.723135,221.002986 398.600477,221.003693 L428.595239,221.0044 L428.594532,40.99552 Z M398.591991,181.002663 C404.121566,181.002663 408.59826,185.479356 408.591188,191.00186 C408.59826,196.524364 404.115203,201.007421 398.591991,201.001057 C393.069487,201.008128 388.592794,196.531435 388.592794,191.00186 C388.592794,185.486427 393.076559,181.002663 398.591991,181.002663 Z M537.392103,181.00337 L488.599614,181.002663 L488.599614,200.998228 L537.390689,200.998935 C542.933699,201.005299 547.396957,196.501029 547.388471,191.013881 C547.389179,185.41713 542.862281,181.004784 537.392103,181.00337 Z M398.591991,60.9967425 C404.115203,60.9988638 408.591896,65.4755568 408.59331,70.9980608 L408.59331,151.004365 C408.59331,156.528283 404.115203,161.00639 398.591284,161.004976 C395.830032,161.004269 393.329703,159.885626 391.520217,158.07614 C389.71073,156.266653 388.592087,153.766324 388.59138,151.005072 L388.590673,70.9980608 C388.59138,65.4748497 393.069487,60.9967425 398.591991,60.9967425 Z M289.05408,121.001824 L20.1026835,121.001824 L20.1026835,140.997389 L289.05408,140.995975 C288.75356,137.670452 288.594461,134.332201 288.594461,130.997485 C288.594461,127.664184 288.75356,124.325933 289.05408,121.001824 Z M537.390689,61.000278 L488.600321,61.000278 L488.600321,80.9958436 L537.392103,80.9958436 C542.903293,80.9901867 547.383522,76.5636982 547.389179,70.98604 C547.388471,65.4854563 542.904,61.0009851 537.390689,61.000278 Z" id="Combined-Shape" fill="currentColor"></path>
    </g>
</svg>