<?xml version="1.0" encoding="UTF-8"?>
<svg viewBox="0 0 646 262" version="1.1" xmlns="http://www.w3.org/2000/svg" xmlns:xlink="http://www.w3.org/1999/xlink">
    <title>Combined Shape</title>
    <g id="Page-1" stroke="none" stroke-width="1" fill="none" fill-rule="evenodd">
        <path d="M417.384265,0.986711259 C430.430385,0.989539686 441.54681,9.34966316 445.676314,20.9872266 L477.401367,20.9928834 C526.709337,20.9942976 569.936896,54.179526 583.21919,100.994238 L635.89765,101.000601 C641.420154,101.002016 645.89614,105.48083 645.898261,111.001213 L645.897554,150.997294 C645.896847,156.520505 641.420154,160.997198 635.89765,160.995783 L583.21919,161.002147 C569.936896,207.818273 526.70863,241.002794 477.399953,241.003502 L445.700356,241.009158 C441.681161,252.414791 430.713227,261.02523 417.386386,261.008967 C400.847158,260.997653 387.393038,247.533633 387.393038,231.00289 L387.39233,30.9927875 C387.394452,14.4019411 400.799782,1.00933868 417.384265,0.986711259 Z M417.3977,20.9914692 C411.853982,20.9985403 407.393553,25.4745262 407.393553,30.9970302 L407.393553,231.005012 C407.393553,236.516202 411.882974,241.005623 417.404064,241.009865 C422.92586,241.016229 427.402553,236.529637 427.395482,231.025518 L427.395482,30.989252 C427.396897,25.4766475 422.90889,20.990055 417.3977,20.9914692 Z M447.398119,40.9905703 L447.397412,221.00935 L477.398538,221.003693 C526.283659,221.003693 567.404746,181.258635 567.404039,130.999607 C567.404039,80.7483562 526.29073,40.99552 477.40066,40.9962272 L447.398119,40.9905703 Z M477.392882,181.002663 C482.922457,181.002663 487.39915,185.479356 487.39915,191.008931 C487.39915,196.524364 482.922457,201.001057 477.399953,201.008128 C471.877449,201.001057 467.400756,196.524364 467.393685,191.00186 C467.400756,185.479356 471.877449,181.002663 477.392882,181.002663 Z M477.399953,60.9910856 C482.923164,60.9932069 487.399857,65.4699 487.401271,70.9924039 L487.401271,150.997294 C487.399857,156.521212 482.922457,160.998612 477.399953,160.998612 C471.876742,160.996491 467.400049,156.521212 467.398634,150.997294 L467.398634,70.9924039 C467.399341,65.4691928 471.877449,60.9910856 477.399953,60.9910856 Z M586.942107,120.996167 C587.245456,124.323104 587.405969,127.664184 587.405969,131.000314 C587.405262,134.337151 587.245456,137.677523 586.942107,141.004461 L625.896332,141.000218 L625.896332,121.001824 L586.942107,120.996167 Z M228.600608,0.989539686 C245.183677,0.97115491 258.620827,14.4351751 258.601028,31.0012728 L258.601028,40.9997627 L307.392103,40.9990556 C323.932745,40.9990556 337.389694,54.4574189 337.391108,70.9980608 C337.369188,87.8024534 323.780717,100.97656 307.404124,100.997773 L258.600321,100.99848 L258.601028,161.00144 L307.392103,161.002147 C323.975171,161.002147 337.391815,174.42162 337.391815,191.00186 C337.410907,207.551694 323.978707,221.017835 307.379375,221.002986 L258.599614,221.002279 L258.599614,231.013497 C258.600321,247.553432 245.142664,261.011088 228.601316,261.011795 C215.325386,260.994117 204.339775,252.479137 200.296538,241.007037 L168.600477,241.00633 C119.392916,241.00633 76.0557554,207.920804 62.7444703,160.999319 L10.1027794,160.998612 C4.57956836,160.996491 0.102875326,156.521212 0.101461112,150.997294 L0.101461112,111.00192 C0.101461112,105.479416 4.57956836,101.001309 10.1013652,101.000601 L62.7656835,100.999894 C76.0599981,54.1745762 119.292507,20.9928834 168.600477,20.9942976 L200.31563,20.9942976 C204.443719,9.35249159 215.560852,0.990246793 228.600608,0.989539686 Z M228.611922,20.9907621 C223.084468,20.990055 218.595755,25.4787688 218.596462,30.9949088 L218.596462,231.007133 C218.596462,236.540951 223.065377,241.004209 228.614751,241.01128 C234.113213,241.009865 238.598391,236.524687 238.598391,231.013497 L238.598391,30.9885449 C238.606876,25.3910876 234.042502,20.983691 228.611922,20.9907621 Z M198.594532,40.99552 L168.59977,40.9962272 C119.617069,40.9962272 78.5907332,80.8233095 78.5970972,130.9989 C78.5914403,181.284091 119.723135,221.002986 168.600477,221.003693 L198.595239,221.0044 L198.594532,40.99552 Z M168.591991,181.002663 C174.121566,181.002663 178.59826,185.479356 178.591188,191.00186 C178.59826,196.524364 174.115203,201.007421 168.591991,201.001057 C163.069487,201.008128 158.592794,196.531435 158.592794,191.00186 C158.592794,185.486427 163.076559,181.002663 168.591991,181.002663 Z M307.392103,181.00337 L258.599614,181.002663 L258.599614,200.998228 L307.390689,200.998935 C312.933699,201.005299 317.396957,196.501029 317.388471,191.013881 C317.389179,185.41713 312.862281,181.004784 307.392103,181.00337 Z M168.591991,60.9967425 C174.115203,60.9988638 178.591896,65.4755568 178.59331,70.9980608 L178.59331,151.004365 C178.59331,156.528283 174.115203,161.00639 168.591284,161.004976 C165.830032,161.004269 163.329703,159.885626 161.520217,158.07614 C159.71073,156.266653 158.592087,153.766324 158.59138,151.005072 L158.590673,70.9980608 C158.59138,65.4748497 163.069487,60.9967425 168.591991,60.9967425 Z M59.05408,121.001824 L20.1026835,121.001824 L20.1026835,140.997389 L59.05408,140.995975 C58.7535596,137.670452 58.5944606,134.332201 58.5944606,130.997485 C58.5944606,127.664184 58.7535596,124.325933 59.05408,121.001824 Z M307.390689,61.000278 L258.600321,61.000278 L258.600321,80.9958436 L307.392103,80.9958436 C312.903293,80.9901867 317.383522,76.5636982 317.389179,70.98604 C317.388471,65.4854563 312.904,61.0009851 307.390689,61.000278 Z" id="Combined-Shape" fill="currentColor"></path>
    </g>
</svg>