<?xml version="1.0" encoding="UTF-8"?>
<svg viewBox="0 0 18 18" version="1.1" xmlns="http://www.w3.org/2000/svg" xmlns:xlink="http://www.w3.org/1999/xlink">
    <title>projections</title>
    <g id="Argon-Commander" stroke="none" stroke-width="1" fill="none" fill-rule="evenodd">
        <g id="Frame-10" transform="translate(-1362, -127)" fill="currentColor">
            <path d="M1374.12351,140.236023 C1374.38554,140.708572 1374.18229,142.19887 1373.02749,143.353946 L1371.53582,144.845479 C1371.37501,145.006429 1371.12905,145.046117 1370.92594,144.943395 C1370.72517,144.843007 1370.60762,144.622868 1370.64154,144.395314 C1370.81526,143.219775 1370.86415,142.817263 1370.79067,142.402391 C1371.85552,141.802125 1372.99686,141.085129 1374.12351,140.236023 Z M1368.89032,138.107144 C1369.25245,138.469419 1368.97931,139.508864 1368.42573,140.062713 C1366.72148,141.766832 1365.54196,142.523928 1364.85271,142.858599 C1364.65056,142.956515 1364.40831,142.91614 1364.24928,142.756976 C1364.09053,142.598223 1364.04974,142.356386 1364.14766,142.154375 C1364.4892,141.449326 1365.24986,140.255249 1366.93406,138.571043 C1367.43751,138.067731 1368.50923,137.726056 1368.89032,138.107144 Z M1369.2611,140.695526 L1370.12985,141.564271 C1369.21798,142.072115 1368.78842,142.274263 1368.51527,142.415026 C1368.31134,142.519945 1368.06332,142.480944 1367.90127,142.318895 L1367.72659,142.144212 C1368.16563,141.771364 1368.64354,141.336304 1369.17143,140.808411 C1369.20878,140.771195 1369.22677,140.733017 1369.2611,140.695526 Z M1374.61323,127.843568 C1374.78516,128.868319 1375.32102,129.92081 1376.19855,130.798344 C1377.09037,131.69016 1378.17568,132.22698 1379.22542,132.385596 C1377.7078,136.258143 1374.13889,139.168837 1371.07344,141.016327 L1369.8442,139.787093 C1370.1742,138.975065 1370.26306,137.988355 1369.63615,137.361309 C1369.01007,136.735363 1368.02295,136.822567 1367.20982,137.152706 L1366.01973,135.962611 C1368.41516,131.978414 1371.44656,129.142291 1374.61323,127.843568 Z M1365.47165,136.906063 L1366.30125,137.735806 C1366.2639,137.770138 1366.22558,137.788129 1366.18837,137.825345 C1365.66171,138.351865 1365.22748,138.831007 1364.8549,139.27252 L1364.72595,139.143568 C1364.56541,138.982893 1364.52573,138.737211 1364.62762,138.533964 L1364.67441,138.43932 C1364.79256,138.19846 1365.05825,137.653762 1365.47165,136.906063 Z M1363.646,134.02105 C1364.91451,132.752539 1366.39258,132.592826 1366.83986,132.879569 C1366.06656,133.889763 1365.33638,135.001855 1364.65688,136.209941 C1364.17925,136.087443 1363.46994,136.178767 1362.66382,136.394923 C1362.43146,136.457133 1362.18729,136.353175 1362.0707,136.149104 C1361.95122,135.942286 1361.98583,135.681223 1362.15447,135.512583 Z M1371.72383,131.544042 C1370.69578,132.571952 1370.69578,134.244896 1371.72383,135.272943 C1372.75187,136.300853 1374.42467,136.300853 1375.45258,135.272943 C1376.48063,134.244896 1376.48063,132.572089 1375.45258,131.544042 C1374.42467,130.516133 1372.75187,130.516133 1371.72383,131.544042 Z M1372.46952,132.289877 C1373.0864,131.672994 1374.09,131.672994 1374.70689,132.289877 C1375.32377,132.90676 1375.32377,133.910225 1374.70689,134.527108 C1374.09,135.143991 1373.0864,135.143991 1372.46952,134.527108 C1371.85278,133.910225 1371.85278,132.90676 1372.46952,132.289877 Z M1375.63262,127.476487 C1376.89715,127.089768 1378.18721,126.930466 1379.48236,127.02797 C1379.74233,127.04747 1379.94997,127.253601 1379.96892,127.51439 C1380.0726,128.890154 1379.9111,130.168415 1379.57053,131.361943 C1378.68627,131.277898 1377.72057,130.828694 1376.94425,130.052509 C1376.17713,129.285388 1375.72779,128.345232 1375.63262,127.476487 Z" id="projections"></path>
        </g>
    </g>
</svg>