<?xml version="1.0" encoding="UTF-8"?>
<svg viewBox="0 0 18 20" version="1.1" xmlns="http://www.w3.org/2000/svg" xmlns:xlink="http://www.w3.org/1999/xlink">
    <title>Combined Shape</title>
    <g id="Argon-Operations" stroke="none" stroke-width="1" fill="none" fill-rule="evenodd">
        <g id="Frame-12" transform="translate(-509, -742.5)" fill="currentColor">
            <g id="Group" transform="translate(447, 714.5)">
                <path d="M77.4556208,28.5 C78.1332875,28.5016756 78.7824144,28.7646499 79.2597545,29.2308909 C79.7370946,29.6971318 80.0034108,30.3283145 79.999967,30.9851518 L79.999967,34.2437437 C79.9963499,35.0756113 79.3014977,35.7491125 78.4432589,35.7525859 L76.389495,35.7525859 L76.389495,46.4412746 C76.3885656,46.7610388 76.2114858,47.0559672 75.9251089,47.2147147 C75.6388735,47.3795551 75.282572,47.3795551 74.9963367,47.2147147 L72.6024591,45.813647 C72.5283841,45.7689405 72.43453,45.7689405 72.360455,45.813647 L69.6722482,47.3732065 C69.527359,47.455419 69.3626687,47.4991532 69.1947808,47.5 C69.0279312,47.5 68.8645556,47.4537878 68.7238541,47.3668669 L66.0487285,45.813647 C65.9746536,45.7689405 65.8807994,45.7689405 65.8067245,45.813647 L63.3997656,47.2147147 C63.1146057,47.3819777 62.758522,47.3870853 62.4683807,47.2280743 C62.1782394,47.0690633 61.9991952,46.7706807 62.000033,46.4476143 L62.000033,30.9851518 C61.9965892,30.3283145 62.2629054,29.6971318 62.7402455,29.2308909 C63.2175856,28.7646499 63.8667125,28.5016756 64.5443792,28.5 L77.4556208,28.5 Z M64.5443792,29.7679346 C64.2130949,29.7679346 63.8956564,29.8967399 63.6632548,30.1255761 C63.4308532,30.3544122 63.302938,30.6640875 63.3081965,30.9851518 L63.3081965,45.7882883 L65.1134157,44.7295629 C65.6069537,44.4381184 66.2264491,44.4356775 66.7224154,44.7232232 L69.2013215,46.1750083 L71.6867682,44.7295629 C72.1766457,44.4476614 72.7862684,44.4476614 73.2761459,44.7295629 L75.0813651,45.7819486 L75.0813651,45.7629296 L75.0813651,30.8013013 C75.0848828,30.4410995 75.1768049,30.0868824 75.3495318,29.7679346 L64.5443792,29.7679346 Z M66.1075944,40.1459793 L71.3401138,40.1459793 C71.7013438,40.1459793 71.9941787,40.4298161 71.9941787,40.7799466 C71.9941787,41.1300771 71.7013438,41.4139139 71.3401138,41.4139139 L66.1075944,41.4139139 C65.7463643,41.4139139 65.4535294,41.1300771 65.4535294,40.7799466 C65.4535294,40.4298161 65.7463643,40.1459793 66.1075944,40.1459793 Z M71.3401138,36.6781782 C71.7013438,36.6781782 71.9941787,36.962015 71.9941787,37.3121455 C71.9941787,37.662276 71.7013438,37.9461128 71.3401138,37.9461128 L66.1075944,37.9461128 C65.7463643,37.9461128 65.4535294,37.662276 65.4535294,37.3121455 C65.4535294,36.962015 65.7463643,36.6781782 66.1075944,36.6781782 Z M71.3401138,33.2864531 C71.7013438,33.2864531 71.9941787,33.5702899 71.9941787,33.9204204 C71.9941787,34.2705509 71.7013438,34.5543877 71.3401138,34.5543877 L66.1075944,34.5543877 C65.7463643,34.5543877 65.4535294,34.2705509 65.4535294,33.9204204 C65.4535294,33.5702899 65.7463643,33.2864531 66.1075944,33.2864531 L71.3401138,33.2864531 Z M77.4556208,29.7679346 C77.1694339,29.7679346 76.895244,29.8793668 76.6947329,30.0772937 C76.4942218,30.2752207 76.3842277,30.5429741 76.389495,30.8203203 L76.389495,34.4846513 L78.4432589,34.4846513 C78.5805263,34.4846513 78.6918035,34.3767933 78.6918035,34.2437437 L78.6918035,30.9661328 C78.6918035,30.6483509 78.5615632,30.3435845 78.329734,30.1188787 C78.0979048,29.894173 77.7834769,29.7679346 77.4556208,29.7679346 Z" id="Combined-Shape"></path>
            </g>
        </g>
    </g>
</svg>