<?xml version="1.0" encoding="UTF-8"?>
<svg viewBox="0 0 25 24" version="1.1" xmlns="http://www.w3.org/2000/svg" xmlns:xlink="http://www.w3.org/1999/xlink">
    <title>roi</title>
    <g id="Argon-Commander" stroke="none" stroke-width="1" fill="none" fill-rule="evenodd">
        <g id="Frame-10" transform="translate(-54, -119)" fill="currentColor">
            <path d="M58.3580984,133.974359 L58.3580984,143 L54.4619945,143 L54.4619945,133.974359 L58.3580984,133.974359 Z M65.0593971,128.487179 L65.0593971,143 L61.1632932,143 L61.1632932,128.487179 L65.0593971,128.487179 Z M71.7606958,131.564103 L71.7606958,143 L67.8645919,143 L67.8645919,131.564103 L71.7606958,131.564103 Z M78.4619945,126.128205 L78.4619945,143 L74.5658906,143 L74.5658906,126.128205 L78.4619945,126.128205 Z M76.3798127,119 C77.4692672,119 78.352488,119.871231 78.352488,120.945949 C78.352488,122.020667 77.4693192,122.891897 76.3798646,122.891897 C76.0676568,122.891897 75.7726438,122.820051 75.5102542,122.692718 L71.6665659,125.925128 C71.7378906,126.126308 71.7771114,126.342359 71.7771114,126.567538 C71.7771114,127.642256 70.8939945,128.513487 69.8045399,128.513487 C68.7150854,128.513487 67.8319166,127.642256 67.8319166,126.567538 C67.8319166,126.554923 67.8326438,126.542462 67.8329036,126.529897 L64.5510334,125.203026 C64.1915529,125.577128 63.6833971,125.810821 63.1196049,125.810821 C62.6588256,125.810821 62.2353451,125.654564 61.8996049,125.393436 L58.4899945,127.383538 C58.5073971,127.487436 58.5168516,127.593949 58.5168516,127.702718 C58.5168516,128.777436 57.6337347,129.648667 56.5442802,129.648667 C55.4548256,129.648667 54.5716568,128.777436 54.5716568,127.702718 C54.5716568,126.628 55.4548256,125.756769 56.5442802,125.756769 C57.0050075,125.756769 57.428488,125.913026 57.7642282,126.174154 L61.1738386,124.184051 C61.156436,124.080154 61.1469815,123.973641 61.1469815,123.864872 C61.1469815,122.790154 62.0300984,121.918923 63.1195529,121.918923 C64.2090075,121.918923 65.0921763,122.790154 65.0921763,123.864872 C65.0921763,123.877538 65.091449,123.89 65.0911893,123.902564 L68.3730594,125.229436 C68.7325399,124.855333 69.2406958,124.621641 69.804488,124.621641 C70.1440205,124.621641 70.4635529,124.706308 70.742514,124.855385 L74.5442282,121.658308 C74.4561243,121.437641 74.4072412,121.197487 74.4072412,120.945949 C74.4072412,119.871231 75.2903581,119 76.3798127,119 Z" id="roi"></path>
        </g>
    </g>
</svg>