<?xml version="1.0" encoding="UTF-8"?>
<svg width="512px" height="512px" viewBox="0 0 512 512" version="1.1" xmlns="http://www.w3.org/2000/svg" xmlns:xlink="http://www.w3.org/1999/xlink">
    <title>scanner</title>
    <g id="Page-1" stroke="none" stroke-width="1" fill="none" fill-rule="evenodd">
        <path d="M502,0 C507.522,0 512,4.477 512,10 L512,502 C512,507.523 507.522,512 502,512 L10,512 C4.478,512 0,507.523 0,502 L0,10 C0,4.477 4.478,0 10,0 Z M20,392 L20,492 L492,492 L492,392 L20,392 Z M110,452 C115.51,452 120,456.49 120,462 C120,467.51 115.51,472 110,472 L90,472 C84.49,472 80,467.51 80,462 C80,456.49 84.49,452 90,452 Z M225,452 C230.51,452 235,456.49 235,462 C235,467.51 230.51,472 225,472 L155,472 C149.479,472 145,467.51 145,462 C145,456.49 149.479,452 155,452 Z M311,452 C316.522,452 321,456.477 321,462 C321,467.523 316.522,472 311,472 L301,472 C295.478,472 291,467.523 291,462 C291,456.477 295.478,452 301,452 Z M366,452 C371.522,452 376,456.477 376,462 C376,467.523 371.522,472 366,472 L356,472 C350.478,472 346,467.523 346,462 C346,456.477 350.478,452 356,452 Z M421,452 C426.522,452 431,456.477 431,462 C431,467.523 426.522,472 421,472 L411,472 C405.478,472 401,467.523 401,462 C401,456.477 405.478,452 411,452 Z M110,412 C115.51,412 120,416.49 120,422 C120,427.51 115.51,432 110,432 L90,432 C84.49,432 80,427.51 80,422 C80,416.49 84.49,412 90,412 Z M225,412 C230.51,412 235,416.49 235,422 C235,427.51 230.51,432 225,432 L155,432 C149.479,432 145,427.51 145,422 C145,416.49 149.479,412 155,412 Z M311,412 C316.522,412 321,416.477 321,422 C321,427.523 316.522,432 311,432 L301,432 C295.478,432 291,427.523 291,422 C291,416.477 295.478,412 301,412 Z M366,412 C371.522,412 376,416.477 376,422 C376,427.523 371.522,432 366,432 L356,432 C350.478,432 346,427.523 346,422 C346,416.477 350.478,412 356,412 Z M421,412 C426.522,412 431,416.477 431,422 C431,427.523 426.522,432 421,432 L411,432 C405.478,432 401,427.523 401,422 C401,416.477 405.478,412 411,412 Z M20,20 L20,372 L492,372 L492,20 L20,20 Z M210.14,47.4 C213.11,46.48 216.46,47.04 218.97,48.87 C220.73,50.14 222,51.92 222.64,54 C223.43,56.55 223.18,59.26 221.94,61.62 C220.69,63.98 218.6,65.72 216.05,66.51 C159.18,84.11 120.979,135.95 121,195.5 C121,231.55 135.05,265.45 160.54,290.96 C186.05,316.45 219.95,330.5 256,330.5 C292.05,330.5 325.95,316.45 351.46,290.96 C376.95,265.45 390.99,231.55 391,195.5 C391,150.74 368.85,108.96 331.76,83.74 C329.01,81.87 327.37,78.77 327.38,75.44 C327.38,73.44 327.98,71.51 329.1,69.85 C330.97,67.11 334.06,65.47 337.39,65.47 C339.39,65.47 341.33,66.07 343,67.2 C353.22,74.14 362.62,82.31 370.93,91.5 C379.27,100.7 386.48,110.9 392.38,121.79 C398.39,132.88 403.02,144.68 406.14,156.87 C409.37,169.42 411,182.42 411,195.5 C411,216.43 406.899,236.73 398.819,255.83 C394.929,265.02 390.12,273.88 384.53,282.16 C378.979,290.37 372.609,298.09 365.599,305.1 C358.59,312.11 350.87,318.48 342.66,324.03 C334.38,329.62 325.519,334.43 316.33,338.32 C297.229,346.4 276.93,350.5 256,350.5 C235.069,350.5 214.77,346.4 195.67,338.32 C186.48,334.43 177.62,329.62 169.34,324.03 C161.13,318.48 153.411,312.11 146.4,305.1 C139.39,298.09 133.02,290.37 127.47,282.16 C121.87,273.88 117.07,265.02 113.18,255.83 C105.1,236.73 101,216.43 101,195.5 C101,178.46 103.75,161.72 109.17,145.73 C114.399,130.27 122.04,115.78 131.859,102.67 C141.58,89.7 153.2,78.37 166.41,69 C179.8,59.5 194.51,52.23 210.14,47.4 Z M337.399,122.19 C340.509,122.19 343.389,123.6 345.299,126.05 C352.859,135.76 358.749,146.56 362.809,158.15 C367,170.14 369.12,182.71 369.12,195.5 C369.12,210.77 366.129,225.59 360.229,239.53 C354.53,253 346.38,265.1 335.99,275.49 C325.599,285.88 313.5,294.03 300.03,299.73 C286.09,305.63 271.27,308.62 256,308.62 C241.97,308.62 228.27,306.08 215.3,301.08 C212.81,300.12 210.84,298.24 209.76,295.8 C208.671,293.36 208.61,290.64 209.57,288.15 C210.31,286.23 211.6,284.6 213.3,283.46 C215.99,281.65 219.46,281.24 222.5,282.42 C233.17,286.53 244.439,288.62 256,288.62 C280.859,288.62 304.25,278.93 321.849,261.35 C339.43,243.75 349.12,220.36 349.12,195.5 C349.12,174.58 342.339,154.81 329.519,138.34 C326.129,133.99 326.919,127.69 331.269,124.3 C333.04,122.92 335.16,122.19 337.399,122.19 Z M181.72,257.04 C184.47,257.04 187.02,258.12 188.93,260.1 C192.75,264.07 192.63,270.41 188.66,274.24 C186.79,276.04 184.319,277.04 181.729,277.04 C178.979,277.04 176.429,275.95 174.519,273.98 C172.669,272.05 171.679,269.52 171.729,266.85 C171.769,264.18 172.859,261.69 174.79,259.84 C176.66,258.03 179.12,257.04 181.72,257.04 Z M307.53,152.4 C310.95,152.4 314.099,154.12 315.95,157 C323.34,168.47 327.25,181.79 327.240019,195.5 C327.240019,205.12 325.359,214.45 321.639,223.23 C318.059,231.72 312.919,239.33 306.379,245.88 C299.83,252.42 292.219,257.56 283.729,261.14 C274.95,264.86 265.62,266.74 256,266.74 C241.31,266.74 227.21,262.31 215.22,253.93 C209.44,249.89 204.3,245.03 199.94,239.48 C195.55,233.89 192.031,227.69 189.48,221.07 C187.51,215.93 190.081,210.13 195.23,208.15 C198.26,206.98 201.73,207.39 204.42,209.2 C206.12,210.35 207.41,211.97 208.149,213.89 C215.72,233.54 234.939,246.74 255.96,246.74 L256,246.74 C269.68,246.74 282.55,241.41 292.241,231.74 C301.911,222.04 307.241,209.17 307.241,195.5 C307.241,185.64 304.44,176.07 299.14,167.83 C299.14,167.82 299.13,167.82 299.13,167.82 C297.69,165.57 297.201,162.89 297.77,160.28 C298.34,157.67 299.89,155.44 302.13,154 C303.75,152.95 305.62,152.4 307.53,152.4 Z M256,41 C261.522,41 266,45.477 266,51 L266,196 C266,201.523 261.522,206 256,206 C250.478,206 246,201.523 246,196 L246,145.24 C241.428,146.144 237.011,147.655 232.84,149.77 C231.42,150.49 229.899,150.85 228.319,150.85 C224.53,150.85 221.109,148.76 219.399,145.38 C216.899,140.46 218.87,134.43 223.79,131.94 C230.741,128.41 238.18,126.06 245.89,124.97 C245.926,124.964 245.963,124.963 246,124.958 L246,102.909 C199.027,107.904 162.86,147.748 162.88,195.5 C162.88,205.86 164.56,216.03 167.89,225.72 C169.67,230.94 166.89,236.63 161.67,238.42 C160.62,238.79 159.531,238.97 158.43,238.97 C154.16,238.97 150.35,236.25 148.97,232.21 C144.93,220.42 142.88,208.07 142.88,195.5 C142.88,166.45 153.87,138.84 173.819,117.76 C183.53,107.5 194.899,99.25 207.609,93.22 C219.731,87.478 232.631,83.99 246,82.816 L246,51 C246,45.477 250.478,41 256,41 Z M193.23,165.21 C195.91,163.4 199.38,162.99 202.42,164.16 C204.91,165.12 206.88,166.99 207.97,169.44 C209.05,171.88 209.12,174.59 208.16,177.09 C207.42,179.01 206.13,180.63 204.42,181.78 C202.76,182.9 200.819,183.5 198.83,183.5 L198.819,183.5 C197.599,183.5 196.389,183.27 195.229,182.82 C190.09,180.84 187.52,175.04 189.501,169.9 L189.501,169.89 C190.241,167.97 191.531,166.35 193.23,165.21 Z" id="scanner" fill="#000000" fill-rule="nonzero"></path>
    </g>
</svg>