<svg viewBox="0 0 20 20" xmlns="http://www.w3.org/2000/svg">
  <path d="M17 2H3a1 1 0 0 0-1 1v2a1 1 0 0 0 1 1h14a1 1 0 0 0 1-1V3a1 1 0 0 0-1-1zm-1 2H4V3h12v1zm-12 0a.5.5 0 1 1 0-1 .5.5 0 0 1 0 1zm2 0a.5.5 0 1 1 0-1 .5.5 0 0 1 0 1zm2 0a.5.5 0 1 1 0-1 .5.5 0 0 1 0 1zm6-.2a.3.3 0 0 1 .3-.3h3a.3.3 0 0 1 0 .6h-3a.3.3 0 0 1-.3-.3zM17 7H3a1 1 0 0 0-1 1v2a1 1 0 0 0 1 1h14a1 1 0 0 0 1-1V8a1 1 0 0 0-1-1zm-1 2H4V8h12v1zm-12 0a.5.5 0 1 1 0-1 .5.5 0 0 1 0 1zm2 0a.5.5 0 1 1 0-1 .5.5 0 0 1 0 1zm2 0a.5.5 0 1 1 0-1 .5.5 0 0 1 0 1zm6-.2a.3.3 0 0 1 .3-.3h3a.3.3 0 0 1 0 .6h-3a.3.3 0 0 1-.3-.3zM17 12H3a1 1 0 0 0-1 1v2a1 1 0 0 0 1 1h14a1 1 0 0 0 1-1v-2a1 1 0 0 0-1-1zm-1 2H4v-1h12v1zm-12 0a.5.5 0 1 1 0-1 .5.5 0 0 1 0 1zm2 0a.5.5 0 1 1 0-1 .5.5 0 0 1 0 1zm2 0a.5.5 0 1 1 0-1 .5.5 0 0 1 0 1zm6-.2a.3.3 0 0 1 .3-.3h3a.3.3 0 0 1 0 .6h-3a.3.3 0 0 1-.3-.3z" fill="currentColor"/>
</svg>
