<?xml version="1.0" encoding="UTF-8"?>
<svg viewBox="0 0 27 28" version="1.1" xmlns="http://www.w3.org/2000/svg" xmlns:xlink="http://www.w3.org/1999/xlink">
    <title>Combined Shape</title>
    <g id="Argon-Operations" stroke="none" stroke-width="1" fill="none" fill-rule="evenodd">
        <g id="Frame-11-Copy" transform="translate(-786, -298)" stroke="currentColor">
            <g id="TIP2" transform="translate(70, -76)">
                <path d="M739.087102,387.999974 C733.73102,390.340555 730.869391,393.147726 729.570178,398.993896 C728.271008,393.147722 725.409383,390.340549 720.053282,387.999974 C725.409345,385.659485 728.270999,382.85229 729.570178,377.006098 C730.8694,382.852286 733.731058,385.659477 739.087102,387.999974 Z M741.385646,396.834689 C740.54178,397.324904 739.956591,397.922372 739.574845,398.80792 C739.1931,397.92236 738.607916,397.324885 737.764069,396.834682 C738.607903,396.344453 739.193095,395.746934 739.574846,394.861343 C739.956604,395.746939 740.541803,396.34446 741.385646,396.834689 Z M720.781676,393.988764 C720.512092,394.181727 720.293523,394.405302 720.119843,394.679485 C719.946156,394.405296 719.727581,394.181718 719.457989,393.988753 C719.727577,393.79579 719.946151,393.572215 720.119835,393.298031 C720.293519,393.572224 720.512091,393.795804 720.781676,393.988764 Z M720.039874,380.167396 C719.497176,380.508472 719.095778,380.91838 718.81113,381.478658 C718.526484,380.918372 718.12508,380.50846 717.582374,380.167385 C718.125074,379.82634 718.526479,379.416441 718.811126,378.856163 C719.095778,379.416454 719.497183,379.826358 720.039874,380.167396 Z" id="Combined-Shape"></path>
            </g>
        </g>
    </g>
</svg>