<?xml version="1.0" encoding="UTF-8"?>
<svg viewBox="0 0 27 28" version="1.1" xmlns="http://www.w3.org/2000/svg" xmlns:xlink="http://www.w3.org/1999/xlink">
    <title>Combined Shape</title>
    <g id="Argon-Operations" stroke="none" stroke-width="1" fill="none" fill-rule="evenodd">
        <g id="Frame-11-Copy" transform="translate(-786, -298)" fill="currentColor">
            <g id="TIP2" transform="translate(70, -76)">
                <path d="M729.570167,374 C730.769227,383.797267 735.854425,386.180033 740.373184,387.999966 C735.854425,389.819965 730.769227,392.202732 729.570167,402 C728.371186,392.202732 723.285989,389.819967 718.767192,387.999966 C723.285989,386.180033 728.371186,383.797267 729.570167,374 Z M739.574841,392.752728 C739.899494,395.609291 741.276425,396.30405 742.5,396.834696 C741.276425,397.36534 739.899492,398.059966 739.574841,400.916529 C739.25019,398.059936 737.873257,397.365309 736.649711,396.834696 C737.873273,396.30405 739.250203,395.609291 739.574841,392.752728 Z M720.119848,391.624837 C720.307865,393.279136 721.105273,393.681485 721.813842,393.988753 C721.105274,394.296054 720.307865,394.698402 720.119848,396.352668 C719.931818,394.698402 719.134409,394.296054 718.425827,393.988753 C719.134409,393.681453 719.931818,393.279102 720.119848,391.624837 Z M718.811116,376.942357 C719.067653,379.199304 720.155545,379.748205 721.122246,380.16736 C720.155545,380.586617 719.067653,381.13555 718.811116,383.392496 C718.554621,381.13555 717.46673,380.586613 716.5,380.16736 C717.46673,379.748172 718.554621,379.199271 718.811116,376.942357 Z" id="Combined-Shape"></path>
            </g>
        </g>
    </g>
</svg>