<?xml version="1.0" encoding="UTF-8"?>
<svg viewBox="0 0 510 512" version="1.1" xmlns="http://www.w3.org/2000/svg" xmlns:xlink="http://www.w3.org/1999/xlink">
    <title>swap</title>
    <g id="Page-1" stroke="none" stroke-width="1" fill="none" fill-rule="evenodd">
        <g id="switch" transform="translate(-1, 0)" fill="currentColor">
            <path d="M324.643,240.51 C324.643,234.28 331.847,230.807 336.724,234.646 L507.797,369.349 C509.618,370.783 510.669,372.982 510.640585,375.303 C510.614,377.621 509.51,379.796 507.656,381.186 L335.236,510.501 C330.327,514.181 323.294,510.673 323.294,504.53 L323.294,421.743 L158.337,421.743 C88.897,421.743 54.945,383.249 38.689,350.957 C21.357,316.525 20.253,282.554 20.2119053,281.124 C20.015,273.752 29.561,270.602 33.791,276.643 C33.867,276.749 43.023,289.472 62.851,302.006 C106.672,329.705 153.634,327.34 174.799,327.34 C178.922,327.34 182.263,330.681 182.263,334.804 C182.263,338.927 178.922,342.268 174.799,342.268 C147.676,342.268 99.981,343.494 54.13,314.15 C47.746,310.063 42.363,305.966 37.926,302.192 C50.666,367.047 91.226,406.815 158.339,406.815 L330.759,406.815 C334.882,406.815 338.223,410.156 338.223,414.279 L338.223,489.603 L490.933,375.071 L339.57,255.887 L339.57,334.803 C339.57,338.926 336.229,342.267 332.106,342.267 L204.155,342.267 C200.032,342.267 196.691,338.926 196.691,334.803 C196.691,330.68 200.032,327.339 204.155,327.339 L324.643,327.339 Z M176.761,1.502 C181.676,-2.184 188.703,1.338 188.703,7.473 L188.703,90.26 L306.153,90.26 C310.276,90.26 313.617,93.601 313.617,97.724 C313.617,101.847 310.276,105.188 306.153,105.188 L181.24,105.188 C177.117,105.188 173.776,101.847 173.776,97.724 L173.776,22.4 L21.067,136.932 L172.428,256.116 L172.428,177.2 C172.428,173.077 175.769,169.736 179.892,169.736 L353.659,169.736 C397.267,169.736 441.227,181.878 474.073,209.811 C461.333,144.958 420.775,105.188 353.659,105.188 L334.512,105.188 C330.389,105.188 327.048,101.847 327.048,97.724 C327.048,93.601 330.389,90.26 334.512,90.26 L353.659,90.26 C423.099,90.26 457.052,128.754 473.308,161.046 C490.64,195.478 491.745,229.449 491.786094,230.879 C491.983,238.251 482.434,241.4 478.207,235.36 C478.131,235.254 468.975,222.531 449.147,209.997 C430.864,198.441 399.455,184.663 353.659,184.663 L187.356,184.663 L187.356,271.492 C187.356,277.706 180.166,281.206 175.275,277.355 L4.203,142.653 C0.355,139.622 0.423,133.757 4.342,130.818 Z" id="swap"></path>
        </g>
    </g>
</svg>