<?xml version="1.0" encoding="UTF-8"?>
<svg width="38px" height="38px" viewBox="0 0 38 38" version="1.1" xmlns="http://www.w3.org/2000/svg" xmlns:xlink="http://www.w3.org/1999/xlink">
    <title>VAULT</title>
    <g id="Page-1" stroke="none" stroke-width="1" fill="none" fill-rule="evenodd">
        <g id="VAULT" transform="translate(-0, 0)" fill="#000000" fill-rule="nonzero">
            <path d="M31.63,-3.55271368e-14 C34.9437085,-3.55271368e-14 37.63,2.6862915 37.63,6 L37.63,31.63 C37.63,34.9437085 34.9437085,37.63 31.63,37.63 L6.00051423,37.63 C2.68680574,37.63 0.000514234272,34.9437085 0.000514234272,31.63 L4.97379915e-14,31.517 L3.93195305,31.5170261 L3.93195305,26.181429 L4.97379915e-14,26.181 L4.97379915e-14,11.003 L3.93195305,11.0032033 L3.93195305,5.66760625 L0.00960616591,5.66686509 C0.182468038,2.50810869 2.79859105,-3.55271368e-14 6.00051423,-3.55271368e-14 L31.63,-3.55271368e-14 Z M31.63,1 L6.00051423,1 C3.70883581,1 1.7650351,2.54631715 1.18368191,4.66708695 L4.93195305,4.66779519 L4.93195305,12.003255 L1.00000003,12.0030517 L1.00000003,25.1811091 L4.93195305,25.1815382 L4.93195305,32.5170327 L1.08368047,32.5170072 C1.49845002,34.8560623 3.54231945,36.63 6.00051423,36.63 L31.63,36.63 C34.3914237,36.63 36.63,34.3914237 36.63,31.63 L36.63,6 C36.63,3.23857625 34.3914237,1 31.63,1 Z M26.146028,24.9041425 L29.2152571,31.1205987 L26.899316,32.4876896 L23.1683894,26.6618308 C23.7451974,26.511501 24.2817379,26.289862 24.778011,25.996914 C25.2742841,25.7039659 25.7302898,25.3397088 26.146028,24.9041425 Z M25.8221569,26.5069963 C25.6488581,26.6328967 25.4700519,26.7496325 25.2863489,26.8580716 C25.0910012,26.9733846 24.8904008,27.0791473 24.6842161,27.1745366 L27.2213889,31.1363436 L27.9077515,30.7311865 L25.8221569,26.5069963 Z M3.26626133,26.8611245 L3.26626133,30.6458243 L0.03686516,30.6458243 L0.03686516,26.8611245 L3.26626133,26.8611245 Z M2.26626133,27.8611245 L1.03686516,27.8611245 L1.03686516,29.6458243 L2.26626133,29.6458243 L2.26626133,27.8611245 Z M20.7679286,11.920798 C24.5312525,11.920798 27.5820293,15.0399816 27.5820293,18.8876896 C27.5820293,22.7353976 24.5312525,25.8545812 20.7679286,25.8545812 C17.0046047,25.8545812 13.9538278,22.7353976 13.9538278,18.8876896 C13.9538278,15.0399816 17.0046047,11.920798 20.7679286,11.920798 Z M20.7679286,12.920798 C17.5619135,12.920798 14.9538278,15.5873641 14.9538278,18.8876896 C14.9538278,22.1880151 17.5619135,24.8545812 20.7679286,24.8545812 C23.9739437,24.8545812 26.5820293,22.1880151 26.5820293,18.8876896 C26.5820293,15.5873641 23.9739437,12.920798 20.7679286,12.920798 Z M20.7679286,14.5520584 C23.1099177,14.5520584 25.0084751,16.4931866 25.0084751,18.8876896 C25.0084751,21.2821926 23.1099177,23.2233208 20.7679286,23.2233208 C18.4259394,23.2233208 16.5273821,21.2821926 16.5273821,18.8876896 C16.5273821,16.4931866 18.4259394,14.5520584 20.7679286,14.5520584 Z M20.7679286,15.5520584 C18.9832482,15.5520584 17.5273821,17.0405691 17.5273821,18.8876896 C17.5273821,20.7348101 18.9832482,22.2233208 20.7679286,22.2233208 C22.552609,22.2233208 24.0084751,20.7348101 24.0084751,18.8876896 C24.0084751,17.0405691 22.552609,15.5520584 20.7679286,15.5520584 Z M20.7679286,15.8019701 C22.4347497,15.8019701 23.7859752,17.1834938 23.7859752,18.8876896 C23.7859752,20.5918854 22.4347497,21.9734091 20.7679286,21.9734091 C19.1011075,21.9734091 17.749882,20.5918854 17.749882,18.8876896 C17.749882,17.1834938 19.1011075,15.8019701 20.7679286,15.8019701 Z M20.7679286,16.8019701 C19.6584163,16.8019701 18.749882,17.7308762 18.749882,18.8876896 C18.749882,20.044503 19.6584163,20.9734091 20.7679286,20.9734091 C21.8774409,20.9734091 22.7859752,20.044503 22.7859752,18.8876896 C22.7859752,17.7308762 21.8774409,16.8019701 20.7679286,16.8019701 Z M13.2154127,17.1300013 C13.0543431,17.7158974 12.9738082,18.3017935 12.9738082,18.8876896 C12.9738082,19.4735857 13.0543431,20.0594818 13.2154127,20.6453779 L6.41525712,20.2547805 L6.41525712,17.5205987 L13.2154127,17.1300013 Z M12.0065926,18.2010836 L7.41525712,18.4648075 L7.41525712,19.3105717 L12.0065926,19.5742956 C11.9844511,19.345647 11.9738082,19.1167432 11.9738082,18.8876896 C11.9738082,18.658636 11.9844511,18.4297322 12.0065926,18.2010836 Z M26.6880964,5.2876896 L29.0040375,6.65478051 L25.9348085,12.8712367 C25.5190702,12.4356704 25.0630645,12.0714133 24.5667914,11.7784652 C24.0705183,11.4855172 23.5339778,11.2638782 22.9571698,11.1135484 L26.6880964,5.2876896 Z M27.0101693,6.63903557 L24.4729965,10.6008426 C24.6791813,10.6962319 24.8797816,10.8019946 25.0751294,10.9173076 C25.2588323,11.0257467 25.4376386,11.1424825 25.6109373,11.268383 L27.6965319,7.04419268 L27.0101693,6.63903557 Z M3.26626133,6.35955041 L3.26626133,10.1442502 L0.03686516,10.1442502 L0.03686516,6.35955041 L3.26626133,6.35955041 Z M2.26626133,7.35955041 L1.03686516,7.35955041 L1.03686516,9.1442502 L2.26626133,9.1442502 L2.26626133,7.35955041 Z" id="Combined-Shape"></path>
        </g>
    </g>
</svg>