<?xml version="1.0" encoding="UTF-8"?>
<svg viewBox="0 0 614 683" version="1.1" xmlns="http://www.w3.org/2000/svg" xmlns:xlink="http://www.w3.org/1999/xlink">
    <title>view</title>
    <g id="Page-1" stroke="none" stroke-width="1" fill="none" fill-rule="evenodd">
        <g id="shared-vision" transform="translate(-34, 0)" fill="currentColor">
            <path d="M341.333325,568.000004 C348.697121,568.000004 354.666658,573.969541 354.666658,581.333337 L354.666658,669.333337 C354.666658,676.697133 348.697121,682.66667 341.333325,682.66667 C333.969528,682.66667 327.999992,676.697133 327.999992,669.333337 L327.999992,581.333337 C327.999992,573.969541 333.969528,568.000004 341.333325,568.000004 Z M154.387687,514.944984 C159.594677,520.151974 159.594677,528.594174 154.387687,533.801164 L97.8143546,590.374496 C92.6073642,595.581486 84.1651647,595.581486 78.9581743,590.374496 C73.7511839,585.167506 73.7511839,576.725306 78.9581743,571.518316 L135.531506,514.944984 C140.738497,509.737993 149.180696,509.737993 154.387687,514.944984 Z M547.135143,514.944984 L603.708475,571.518316 C608.915466,576.725306 608.915466,585.167506 603.708475,590.374496 C598.501485,595.581486 590.059285,595.581486 584.852295,590.374496 L528.278963,533.801164 C523.071973,528.594174 523.071973,520.151974 528.278963,514.944984 C533.485953,509.737993 541.928153,509.737993 547.135143,514.944984 Z M341.333325,154.666683 C384.7472,154.666683 426.810193,164.584052 467.239009,182.943133 C501.236223,198.381568 533.174363,219.360766 562.884654,244.485748 C585.912893,263.959946 606.308302,284.801853 623.882631,305.658417 C630.048592,312.975952 635.429816,319.784695 640.000912,325.916098 C641.615242,328.081467 643.016968,330.013734 644.202844,331.691829 C644.935521,332.728617 645.445598,333.468784 645.729791,333.891256 C648.756715,338.390971 648.756715,344.27572 645.729791,348.775434 L645.673858,348.858365 C645.380969,349.291586 644.889729,350.002872 644.202844,350.974861 C643.016968,352.652957 641.615242,354.585224 640.000912,356.750593 C635.429816,362.881995 630.048592,369.690739 623.882631,377.008274 C606.308302,397.864838 585.912893,418.706745 562.884654,438.180942 C533.174363,463.305924 501.236223,484.285123 467.239009,499.723557 C426.810193,518.082639 384.7472,528.000007 341.333325,528.000007 C297.919449,528.000007 255.856457,518.082639 215.427641,499.723557 C181.430427,484.285123 149.492286,463.305924 119.781995,438.180942 C96.7537568,418.706745 76.3583477,397.864838 58.7840185,377.008274 C52.6180573,369.690739 47.2368333,362.881995 42.665738,356.750593 C41.0514079,354.585224 39.6496813,352.652957 38.4638055,350.974861 C37.7311287,349.938073 37.2210517,349.197906 36.9368585,348.775435 C33.9099349,344.27572 33.9099349,338.390971 36.9368585,333.891256 C37.2210517,333.468784 37.7311287,332.728617 38.4638055,331.691829 C39.6496813,330.013734 41.0514079,328.081467 42.665738,325.916098 C47.2368333,319.784695 52.6180573,312.975952 58.7840185,305.658417 C76.3583477,284.801853 96.7537568,263.959946 119.781995,244.485748 C149.492286,219.360766 181.430427,198.381568 215.427641,182.943133 C255.856457,164.584052 297.919449,154.666683 341.333325,154.666683 Z M341.333325,181.333349 C301.903452,181.333349 263.557593,190.374314 226.453598,207.223564 C194.846126,221.576796 164.937914,241.222596 137.001331,264.847613 C115.193113,283.290081 95.8338355,303.073173 79.1763947,322.841608 C73.5354622,329.536058 68.6110095,335.75359 64.4369278,341.333345 C68.6109998,346.913088 73.5354567,353.130625 79.1763947,359.825082 C95.8338355,379.593517 115.193113,399.376609 137.001331,417.819077 C164.937914,441.444094 194.846126,461.089894 226.453598,475.443126 C263.557593,492.292377 301.903452,501.333341 341.333325,501.333341 C380.763197,501.333341 419.109057,492.292377 456.213051,475.443126 C487.820524,461.089894 517.728736,441.444094 545.665318,417.819077 C567.473537,399.376609 586.832814,379.593517 603.490255,359.825082 C609.131193,353.130625 614.05565,346.913088 618.229722,341.333345 C614.05564,335.75359 609.131187,329.536058 603.490255,322.841608 C586.832814,303.073173 567.473537,283.290081 545.665318,264.847613 C517.728736,241.222596 487.820524,221.576796 456.213051,207.223564 C419.109057,190.374314 380.763197,181.333349 341.333325,181.333349 Z M341.333591,221.333082 C407.604053,221.333082 461.333588,275.062617 461.333588,341.333079 C461.333588,361.581126 456.301248,381.129245 446.829523,398.550446 C445.8782,400.297137 444.959217,401.903799 444.028738,403.431426 C443.534744,404.257776 443.041729,405.043082 442.420973,406.00582 C441.488415,407.465222 440.507977,408.925291 439.470015,410.405908 C439.372101,410.545785 439.29966,410.646039 439.191449,410.793402 C439.165656,410.828377 439.156069,410.841376 439.146705,410.854046 C436.914528,414.003586 434.552763,417.008299 432.124389,419.785605 C430.237498,421.974398 428.266943,424.09607 426.230846,426.130665 C424.311695,428.051379 422.400335,429.8461 420.527395,431.477008 C412.22858,438.778151 402.986398,444.895524 393.094415,449.611517 C391.468122,450.395094 389.800413,451.148036 388.044275,451.893985 C384.462008,453.408465 380.774754,454.757964 377.010367,455.932444 C373.192261,457.118947 369.358294,458.105575 365.509264,458.887145 C357.608997,460.509657 349.52107,461.333076 341.333591,461.333076 C275.06313,461.333076 221.333594,407.60354 221.333594,341.333079 C221.333594,340.333187 221.347409,339.33423 221.37598,338.348359 C221.391428,337.468669 221.420821,336.618838 221.466571,335.769617 C221.494354,335.063029 221.532043,334.352582 221.589792,333.406159 L221.629792,332.806159 L221.646318,332.585806 C221.657397,332.45285 221.666693,332.333065 221.688369,332.046698 C221.700797,331.88249 221.700797,331.88249 221.71473,331.701458 C221.749021,331.259584 221.780329,330.896112 221.818477,330.522047 C221.821263,330.489233 221.82339,330.464379 221.827758,330.413352 C221.833889,330.340161 221.834681,330.330405 221.83627,330.309213 L221.85198,330.118176 C221.924633,329.306168 222.007532,328.508919 222.103118,327.732967 C222.109687,327.651767 222.118253,327.570739 222.127563,327.489785 C222.260344,326.335162 222.353694,325.586167 222.475798,324.761832 C222.59794,323.847865 222.671275,323.336109 222.776953,322.722193 C222.884538,321.944846 223.011781,321.172995 223.166952,320.333608 C223.194471,320.150199 223.224329,319.971239 223.256775,319.790009 C223.282181,319.648101 223.308423,319.5094 223.331216,319.390856 C223.333733,319.377565 223.333733,319.377565 223.335299,319.369232 C224.692362,312.131561 231.65977,307.364387 238.897441,308.72145 C246.135112,310.078513 250.902286,317.045922 249.545223,324.283593 C249.53755,324.324412 249.53755,324.324412 249.530813,324.359981 C249.528637,324.371422 249.526641,324.38192 249.52483,324.391441 C249.499383,324.567665 249.46997,324.7433 249.437045,324.918305 C249.313262,325.576252 249.227092,326.096818 249.163299,326.575262 C249.137812,326.766414 249.108181,326.95699 249.074427,327.146857 C249.030481,327.394054 248.99121,327.665931 248.896632,328.375262 L248.866078,328.590952 C248.798477,329.041629 248.738205,329.514395 248.64694,330.300145 C248.63475,330.431478 248.620331,330.562616 248.603965,330.693542 C248.535178,331.243845 248.473019,331.826156 248.418214,332.433997 C248.412911,332.500931 248.407196,332.569947 248.399097,332.666139 C248.387946,332.796658 248.387946,332.796658 248.380871,332.880352 C248.372488,332.980945 248.362963,333.081439 248.352298,333.181816 C248.338011,333.316284 248.322683,333.491198 248.301458,333.764699 C248.290761,333.903667 248.290761,333.903667 248.278967,334.059459 C248.256884,334.351192 248.244323,334.514318 248.230182,334.687494 L248.202364,335.102043 C248.158454,335.824428 248.12972,336.3701 248.110409,336.872187 C248.10753,336.947057 248.104019,337.021901 248.099878,337.096712 C248.069071,337.653215 248.048957,338.21847 248.038135,338.824469 L248.034497,338.978399 C248.011741,339.752102 248.00026,340.541404 248.00026,341.333079 C248.00026,392.875947 289.790723,434.66641 341.333591,434.66641 C347.717406,434.66641 354.007958,434.025979 360.173543,432.759759 C363.162526,432.152801 366.12707,431.38991 369.082389,430.471533 C372.00742,429.558923 374.879764,428.507673 377.639348,427.34102 C378.997176,426.764244 380.282585,426.183904 381.568873,425.564272 C389.274876,421.890346 396.453622,417.138756 402.963603,411.411621 C404.402353,410.158622 405.867349,408.783025 407.374298,407.274856 C408.949631,405.70068 410.470492,404.063188 411.987307,402.304172 C413.868186,400.152655 415.66662,397.865182 417.376745,395.452982 C417.476503,395.310546 417.560881,395.194604 417.67192,395.044335 C418.48712,393.880413 419.242423,392.754646 419.979022,391.602103 C420.481177,390.823145 420.82978,390.267868 421.144837,389.741233 L421.205145,389.641419 C421.911646,388.483571 422.636432,387.217846 423.4063,385.804325 C430.760832,372.277238 434.666922,357.104037 434.666922,341.333079 C434.666922,289.79021 392.87646,247.999748 341.333591,247.999748 C340.53732,247.999748 339.736113,248.011321 338.965579,248.033984 L338.807474,248.037696 C338.210688,248.048166 337.62384,248.069032 336.938309,248.105415 C336.498478,248.125825 336.377846,248.13154 336.184626,248.141413 C335.917945,248.155039 335.702202,248.167681 335.514902,248.180749 C335.358897,248.191633 335.202713,248.199772 335.046422,248.205161 C334.951948,248.208419 334.855148,248.21497 334.784247,248.222305 C334.521447,248.249491 334.257897,248.26886 333.993946,248.280386 C333.993686,248.280398 333.912554,248.28657 333.653889,248.309166 C333.576503,248.315926 333.49906,248.322009 333.421569,248.327416 C333.034565,248.354416 332.652804,248.38952 332.30027,248.430513 L332.086975,248.453577 L331.22438,248.539687 C331.050026,248.556292 330.853849,248.577019 330.618643,248.60362 C330.430468,248.624902 330.268603,248.643886 329.917113,248.685703 C329.30884,248.763799 329.056372,248.798175 328.813093,248.836587 C328.671001,248.859023 328.528567,248.879155 328.385798,248.896574 C328.267188,248.916069 328.148262,248.933566 328.029115,248.949452 C327.317893,249.044282 327.044923,249.083688 326.794241,249.128153 C326.565528,249.168721 326.335797,249.203305 326.1052,249.231255 C325.929283,249.267467 325.7525,249.299266 325.575126,249.327485 C325.215595,249.384683 324.888689,249.442263 324.037396,249.596862 C323.559174,249.681254 323.075873,249.777433 322.571749,249.88834 C322.461644,249.912564 322.351235,249.935389 322.240551,249.956812 C321.980387,250.007166 321.689619,250.067915 321.332356,250.146339 C321.172239,250.181486 320.999851,250.219921 320.786888,250.26787 C320.655771,250.297392 320.492849,250.334228 320.190955,250.402484 C319.44419,250.571947 318.690778,250.754662 317.88231,250.962824 C317.206106,251.134559 316.543298,251.316296 315.893825,251.507944 C315.794183,251.537347 315.694201,251.565584 315.593899,251.592649 C315.087035,251.729422 314.630317,251.865154 313.603925,252.17948 C313.073533,252.345228 312.526811,252.523692 312.003776,252.701746 L311.820322,252.762718 C311.37339,252.907669 311.055861,253.014972 310.782185,253.113799 L310.658265,253.157859 C310.393993,253.250332 310.283196,253.289164 310.152452,253.335249 C309.812634,253.455029 309.563562,253.544972 309.34552,253.626942 L309.182185,253.687133 C308.944731,253.772858 308.847293,253.808095 308.732352,253.849918 C308.442257,253.955471 308.234174,254.033181 308.057896,254.101925 C301.197316,256.77736 293.46685,253.38463 290.791415,246.524051 C288.11598,239.663472 291.50871,231.933005 298.369289,229.25757 C298.76473,229.103359 299.14929,228.959743 299.61424,228.790566 C299.743604,228.743495 299.856935,228.702482 300.054978,228.630976 C300.440728,228.486725 300.825903,228.34793 301.287473,228.185234 C301.436511,228.132701 301.565655,228.087424 301.808343,228.002502 C302.349404,227.808122 302.882875,227.627813 303.519502,227.420895 C304.220144,227.183057 304.945333,226.946877 305.720232,226.704924 C307.041161,226.300123 307.69338,226.105739 308.527683,225.879093 C309.445773,225.609853 310.373536,225.356593 311.274469,225.127858 C312.285844,224.867353 313.289219,224.624018 314.303447,224.393868 C314.606835,224.325267 314.784468,224.285105 314.929463,224.252459 C315.185335,224.194848 315.401939,224.146555 315.614828,224.099824 C316.115932,223.989825 316.570002,223.894419 317.020049,223.806259 C317.820048,223.631885 318.605103,223.476807 319.33512,223.348149 C320.186506,223.193352 320.641716,223.112552 321.154037,223.02922 C321.581911,222.946354 322.01347,222.876013 322.446238,222.817613 C323.000988,222.723284 323.485747,222.653388 324.28574,222.546011 C324.35102,222.535425 324.42267,222.524074 324.494365,222.513164 C324.647815,222.489813 324.801366,222.468297 324.958672,222.449122 C325.414981,222.380066 325.837219,222.323828 326.584734,222.227993 L326.704087,222.213238 C327.150014,222.160151 327.353952,222.136176 327.621874,222.105876 C328.002668,222.06281 328.350491,222.026061 328.633542,221.999252 L329.391615,221.923445 C330.050837,221.848466 330.724329,221.786506 331.397647,221.73807 C331.835118,221.700045 332.135043,221.676251 332.457443,221.657802 C332.915403,221.616315 333.378405,221.585809 333.837914,221.566758 C334.15097,221.545851 334.471413,221.527497 334.823854,221.509489 C335.075255,221.496644 335.215861,221.489982 335.606995,221.472173 C336.464069,221.426258 337.318385,221.394991 338.181618,221.379323 C338.215624,221.377844 338.249675,221.37686 338.284758,221.376589 C338.302928,221.375785 338.321317,221.375456 338.339709,221.375133 C339.322828,221.346921 340.331404,221.333082 341.333591,221.333082 Z M341.333326,288.000011 C370.750454,288.000011 394.666659,311.916216 394.666659,341.333344 C394.666659,370.750474 370.750455,394.666677 341.333326,394.666677 C311.916196,394.666677 287.999993,370.750474 287.999993,341.333344 C287.999993,311.916215 311.916196,288.000011 341.333326,288.000011 Z M341.333326,314.666677 C326.643789,314.666677 314.666659,326.643808 314.666659,341.333344 C314.666659,356.022882 326.643788,368.000011 341.333326,368.000011 C356.022862,368.000011 367.999993,356.022881 367.999993,341.333344 C367.999993,326.643809 356.022861,314.666677 341.333326,314.666677 Z M261.33386,261.333081 C263.959193,261.333081 266.41386,262.093081 268.480527,263.426414 C272.200527,265.786414 274.667193,269.93308 274.667193,274.666414 C274.667193,282.026413 268.692527,287.999747 261.33386,287.999747 C257.46586,287.999747 253.987194,286.359747 251.547194,283.719747 C249.34586,281.346413 248.000527,278.159747 248.000527,274.666414 C248.000527,267.306414 253.97386,261.333081 261.33386,261.333081 Z M97.8147546,105.625261 L154.388087,162.198593 C159.595077,167.405583 159.595077,175.847783 154.388087,181.054773 C149.181096,186.261763 140.738897,186.261763 135.531906,181.054773 L78.9585743,124.481441 C73.7515839,119.274451 73.7515839,110.832251 78.9585743,105.625261 C84.1655647,100.41827 92.6077642,100.41827 97.8147546,105.625261 Z M603.708075,105.625261 C608.915066,110.832251 608.915066,119.274451 603.708075,124.481441 L547.134743,181.054773 C541.927753,186.261763 533.485553,186.261763 528.278563,181.054773 C523.071573,175.847783 523.071573,167.405583 528.278563,162.198593 L584.851895,105.625261 C590.058885,100.41827 598.501085,100.41827 603.708075,105.625261 Z M341.333325,1.81999999e-05 C348.697121,1.81999999e-05 354.666658,5.96955472 354.666658,13.3333512 L354.666658,101.333351 C354.666658,108.697148 348.697121,114.666684 341.333325,114.666684 C333.969528,114.666684 327.999992,108.697148 327.999992,101.333351 L327.999992,13.3333512 C327.999992,5.96955472 333.969528,1.81999999e-05 341.333325,1.81999999e-05 Z" id="view"></path>
        </g>
    </g>
</svg>