<?xml version="1.0" encoding="UTF-8"?>
<svg viewBox="0 0 683 683" version="1.1" xmlns="http://www.w3.org/2000/svg" xmlns:xlink="http://www.w3.org/1999/xlink">
    <title>Combined Shape</title>
    <g id="Page-1" stroke="none" stroke-width="1" fill="none" fill-rule="evenodd">
        <g id="network(2)" fill="currentColor">
            <path d="M341.333325,2.04000002e-05 C362.863203,2.04000002e-05 380.726044,15.7017012 384.095236,36.2784521 C436.251743,43.5266561 485.178778,63.9781023 526.78536,95.4025002 C543.717519,83.2214268 567.4625,84.7451101 582.69193,99.9743788 C597.922534,115.203583 599.44662,138.948392 587.264458,155.881606 C618.69009,197.488757 639.139704,246.415273 646.38737,298.570881 C666.963967,301.939487 682.66665,319.80278 682.66665,341.333345 C682.66665,362.86391 666.963967,380.727203 646.38625,384.095578 C639.140052,436.252351 618.687707,485.179853 587.264755,526.785148 C599.446179,543.717787 597.922245,567.463041 582.691949,582.691778 C567.463461,597.921825 543.717862,599.445367 526.783088,587.262668 C517.530495,594.253998 507.884261,600.720052 497.89449,606.627289 C493.140598,609.438401 487.00795,607.863466 484.196838,603.109574 C481.385726,598.355682 482.96066,592.223034 487.714552,589.411922 C496.662767,584.120588 505.31659,578.349529 513.635989,572.128165 C506.500259,558.482477 507.129378,541.836263 515.522492,528.722041 L487.797204,500.998922 C451.521137,534.293244 403.86566,555.385792 351.334635,557.77259 L351.334148,597.159766 C366.238469,600.680787 378.169082,611.898266 382.699106,626.38532 C404.911533,623.19213 426.531053,617.431321 447.213461,609.249912 C452.349098,607.218391 458.159227,609.734774 460.190748,614.870411 C462.222269,620.006048 459.705886,625.816177 454.57025,627.847698 C431.990352,636.779704 408.366293,643.015325 384.09483,646.387544 C380.727183,666.963988 362.86389,682.66667 341.333325,682.66667 C319.80311,682.66667 301.940047,666.964498 298.571256,646.387273 C246.407823,639.138659 197.479484,618.682164 155.881924,587.26366 C138.949047,599.445315 115.203989,597.921599 99.9748918,582.692502 C84.7438345,567.463005 83.2199229,543.717454 95.402893,526.784109 C63.9780832,485.179127 43.5263305,436.252437 36.2794116,384.094237 C15.7021904,380.726644 1.77635684e-14,362.863573 1.42108547e-14,341.333345 C1.24344979e-14,319.803117 15.7021904,301.940046 36.2794334,298.57127 C43.5272833,246.415794 63.9769089,197.489262 95.4028245,155.881079 C83.2205087,138.948313 84.7445938,115.203459 99.9747009,99.9749123 C115.202591,84.7454619 138.946926,83.2214425 155.881306,95.4023261 C169.419703,85.1778073 183.782459,76.0811794 198.825815,68.21666 C203.720176,65.6579357 209.762096,67.5513436 212.32082,72.445705 C214.879544,77.3400663 212.986136,83.381986 208.091775,85.9407103 C194.431326,93.0822594 181.369622,101.311384 169.029586,110.539323 C176.166315,124.183076 175.537525,140.829546 167.144548,153.94404 L194.86743,181.66973 C231.143876,148.374266 278.80019,127.280896 331.331899,124.894092 L331.332884,85.5070149 C316.428011,81.9860072 304.497007,70.7679857 299.967203,56.2802794 C282.47046,58.7962618 265.33597,62.905999 248.72699,68.5430779 C243.497152,70.318082 237.818606,67.5173859 236.043602,62.2875481 C234.268597,57.0577103 237.069294,51.379164 242.299131,49.6041599 C260.529893,43.4166494 279.351819,38.9491094 298.571885,36.2792178 C301.940606,15.7017012 319.803446,2.04000002e-05 341.333325,2.04000002e-05 Z M341.333325,616.000005 C328.446839,616.000005 317.999992,626.446852 317.999992,639.333338 C317.999992,652.219823 328.446839,662.666671 341.333325,662.666671 C354.21981,662.666671 364.666658,652.219823 364.666658,639.333338 C364.666658,626.446852 354.21981,616.000005 341.333325,616.000005 Z M195.837368,501.914264 L167.864011,529.887972 C175.567045,542.812511 175.956096,558.883522 169.031162,572.125892 C207.325482,600.767864 252.170966,619.511769 299.968022,626.386354 C304.497658,611.898431 316.428225,600.680791 331.33256,597.159758 L331.332467,557.770805 C279.891362,555.416185 232.354636,534.983758 195.837368,501.914264 Z M114.116303,535.552504 C105.003362,544.664511 105.003362,559.437636 114.116665,568.550005 C123.228755,577.662095 138.002438,577.662095 147.114529,568.550005 C156.226619,559.437915 156.226619,544.664232 147.114529,535.552141 C138.002438,526.440051 123.228755,526.440051 114.116303,535.552504 Z M535.551588,535.552141 C526.439498,544.664232 526.439498,559.437915 535.551226,568.549643 C544.664611,577.662095 559.438294,577.662095 568.549813,568.549643 C577.662754,559.437636 577.662754,544.664511 568.549813,535.552504 C559.438294,526.440051 544.664611,526.440051 535.551588,535.552141 Z M331.333,455.66602 L265.806834,455.668002 C281.173935,500.080307 305.003587,530.577837 331.332972,536.817442 L331.333,455.66602 Z M351.333,455.66602 L351.333902,536.817389 C377.663198,530.577664 401.492758,500.080181 416.859815,455.668002 L351.333,455.66602 Z M437.971133,455.668832 C428.185402,486.238132 414.514259,511.77384 398.081312,529.690685 C440.194837,517.018267 476.360086,490.609013 501.367314,455.669172 L437.971133,455.668832 Z M181.264494,455.668912 C206.497058,490.963005 242.841013,517.087385 284.559825,529.655134 C268.136629,511.744395 254.475606,486.220509 244.695516,455.668832 L181.264494,455.668912 Z M144.916348,351.33317 C145.226983,357.539268 145.82672,363.702246 146.711383,369.80984 C147.503086,375.275647 143.713975,380.348362 138.248168,381.140064 C132.78236,381.931767 127.709646,378.142656 126.917944,372.676849 C125.896167,365.622639 125.219684,358.50292 124.893646,351.334194 L85.5069042,351.334168 C81.9859516,366.2382 70.76884,378.168639 56.2821935,382.698862 C63.153346,430.48988 81.8927055,475.333289 110.53831,513.63603 C124.183199,506.500764 140.829968,507.129632 153.944394,515.52281 L181.645946,487.819699 C163.78429,468.364496 149.347778,445.507067 139.42391,420.078997 C137.415994,414.934085 139.959031,409.135573 145.103943,407.127657 C150.248854,405.119741 156.047367,407.662778 158.055283,412.80769 C161.14004,420.711807 164.705184,428.342301 168.711071,435.668855 L239.030427,435.669549 C232.634913,409.933842 228.811999,381.397405 228.115583,351.334687 L144.916348,351.33317 Z M597.159699,351.333923 L557.772837,351.334354 C555.407608,403.39074 534.673086,450.659414 501.89849,486.811049 L529.887794,514.802752 C542.812897,507.099682 558.883971,506.710518 572.125865,513.635471 C600.773133,475.334146 619.513285,430.489391 626.386126,382.697377 C611.897977,378.168277 600.680624,366.237976 597.159699,351.333923 Z M248.12228,351.333901 C248.870376,381.857947 253.019978,410.46278 259.718363,435.669265 L331.333,435.66602 L331.333,351.33302 L248.12228,351.333901 Z M351.333,351.33302 L351.333,435.66602 L422.948286,435.669265 C429.646672,410.46278 433.796273,381.857947 434.54437,351.333901 L351.333,351.33302 Z M454.551066,351.334687 C453.854651,381.397405 450.031736,409.933842 443.636223,435.669549 L513.939386,435.669319 C527.773231,410.411254 536.224388,381.785187 537.749674,351.334327 L454.551066,351.334687 Z M43.3333323,318.000012 C30.4468467,318.000012 19.9999995,328.44686 19.9999995,341.333345 C19.9999995,354.219831 30.4468467,364.666678 43.3333323,364.666678 C56.2198178,364.666678 66.666665,354.219831 66.666665,341.333345 C66.666665,328.44686 56.2198178,318.000012 43.3333323,318.000012 Z M639.333317,318.000012 C626.446832,318.000012 615.999985,328.44686 615.999985,341.333345 C615.999985,354.219831 626.446832,364.666678 639.333317,364.666678 C652.219803,364.666678 662.66665,354.219831 662.66665,341.333345 C662.66665,328.44686 652.219803,318.000012 639.333317,318.000012 Z M168.726872,246.997886 C154.892907,272.256124 146.441704,300.882358 144.916532,331.333318 L228.115564,331.33282 C228.811921,301.270168 232.634762,272.733777 239.030193,246.998083 L168.726872,246.997886 Z M259.718388,246.997335 C253.019988,272.203842 248.870377,300.808707 248.12228,331.332789 L331.333,331.33302 L331.333,246.99902 L259.718388,246.997335 Z M422.948197,246.997089 L351.333,246.99902 L351.333,331.33302 L434.54437,331.332789 C433.79627,300.808608 429.646635,272.203656 422.948197,246.997089 Z M528.721867,167.143632 L501.019906,194.846147 C519.43286,214.899936 534.201957,238.563384 544.137191,264.918589 C546.085334,270.08643 543.475253,275.855075 538.307412,277.803218 C533.13957,279.751361 527.370926,277.14128 525.422783,271.973439 C522.158924,263.315398 518.320267,254.977359 513.958027,246.998832 L443.636396,246.998405 C450.031899,272.733861 453.854729,301.270213 454.551085,331.33282 L537.749931,331.333149 C537.477343,325.886235 536.982109,320.472603 536.267052,315.101729 C535.538193,309.627187 539.385328,304.598337 544.85987,303.869478 C550.334412,303.140619 555.363262,306.987755 556.092121,312.462296 C556.923371,318.705904 557.484726,325.000415 557.772668,331.333057 L597.159655,331.332904 C600.680494,316.428747 611.897607,304.498174 626.384303,299.967876 C619.512752,252.177372 600.775017,207.333799 572.127083,169.028931 C558.482262,176.165957 541.835937,175.53678 528.721867,167.143632 Z M152.777793,167.864576 C139.852369,175.56735 123.781108,175.956089 110.539583,169.030791 C81.8919465,207.334359 63.1541968,252.177974 56.2807311,299.968261 C70.7686489,304.498149 81.986011,316.428616 85.5069456,331.332734 L124.893414,331.332372 C127.258703,279.275314 147.99404,232.005957 180.769672,195.854052 L152.777793,167.864576 Z M284.586255,152.975006 L282.112381,153.740371 C241.055547,166.689194 205.815348,192.744112 181.299156,226.997752 L244.694935,226.999673 C254.480889,196.429 268.152574,170.892255 284.586255,152.975006 Z M331.332972,145.849249 C305.003472,152.08888 281.173726,182.58665 265.806633,226.999271 L331.332,226.99902 L331.332972,145.849249 Z M351.333902,145.849302 L351.333,226.99902 L416.860069,226.999423 C401.493021,182.586846 377.663343,152.089061 351.333902,145.849302 Z M398.11103,153.013384 C414.530925,170.926951 428.1914,196.449058 437.971138,226.998864 L501.404601,226.999319 C476.182031,191.721321 439.841712,165.586603 398.11103,153.013384 Z M382.699314,56.2807005 L382.523225,56.8308649 C377.866047,71.0516592 366.049485,82.0305496 351.334148,85.5069246 L351.333865,124.895886 C402.791347,127.251267 450.322484,147.695405 486.828654,180.752853 L514.802315,152.778175 C507.099375,139.853364 506.710629,123.782075 513.636075,110.539675 C475.333103,81.8929597 430.490023,63.1540117 382.699314,56.2807005 Z M114.116836,114.117047 C105.003895,123.229055 105.003895,138.002179 114.11756,147.114911 C123.228355,156.226639 138.002038,156.226639 147.115062,147.114549 C156.227091,138.00252 156.227152,123.228973 147.115233,114.116875 C138.001841,105.004595 123.228294,105.004656 114.116836,114.117047 Z M535.552121,114.116685 C526.440031,123.228776 526.440031,138.002459 535.552121,147.114549 C544.664211,156.226639 559.437894,156.226639 568.550347,147.114187 C577.663287,138.002179 577.663287,123.229055 568.550347,114.117047 C559.437894,105.004595 544.664211,105.004595 535.552121,114.116685 Z M341.333325,20.0000199 C328.446839,20.0000199 317.999992,30.4468671 317.999992,43.3333527 C317.999992,56.2198382 328.446839,66.6666854 341.333325,66.6666854 C354.21981,66.6666854 364.666658,56.2198382 364.666658,43.3333527 C364.666658,30.4468671 354.21981,20.0000199 341.333325,20.0000199 Z" id="Combined-Shape"></path>
        </g>
    </g>
</svg>