<?xml version="1.0" encoding="UTF-8"?>
<svg viewBox="0 0 36 35" version="1.1" xmlns="http://www.w3.org/2000/svg" xmlns:xlink="http://www.w3.org/1999/xlink">
    <title>bitcoin</title>
    <g id="Logos" stroke="none" stroke-width="1" fill="none" fill-rule="evenodd">
        <g id="Artboard" transform="translate(-251, -65)" fill="currentColor" fill-rule="nonzero">
            <path d="M268.889612,65 C273.564026,65 277.958645,66.8203418 281.264026,70.1255859 C284.56927,73.4309668 286.389612,77.8255859 286.389612,82.5 C286.389612,87.1744141 284.56927,91.5690332 281.264026,94.8744141 C277.958645,98.1796582 273.564026,100 268.889612,100 C264.215198,100 259.820579,98.1796582 256.515198,94.8744141 C253.209954,91.5690332 251.389612,87.1744141 251.389612,82.5 C251.389612,79.3452832 252.23843,76.2527734 253.844397,73.5568164 C255.403538,70.9391992 257.628499,68.7624316 260.278723,67.2616699 C260.525227,67.1222852 260.83804,67.2088281 260.977493,67.4551953 C261.117014,67.7015625 261.030335,68.0144434 260.783967,68.1539648 C258.288508,69.5670215 256.19343,71.6167773 254.725276,74.081543 C253.213919,76.6188379 252.415003,79.5299219 252.415003,82.5 C252.415003,86.9005664 254.128635,91.0376758 257.240286,94.1493262 C260.351936,97.2609766 264.489046,98.9746094 268.889612,98.9746094 C273.290178,98.9746094 277.427288,97.2609766 280.538938,94.1493262 C283.650588,91.0376758 285.364221,86.9005664 285.364221,82.5 C285.364221,78.0994336 283.650588,73.9623242 280.538938,70.8506738 C277.427288,67.7390234 273.290178,66.0253906 268.889612,66.0253906 C266.728362,66.0253906 264.627542,66.4373242 262.645598,67.2497754 C262.383577,67.3570996 262.084163,67.2317969 261.97677,66.9697754 C261.869309,66.7077539 261.99468,66.4083398 262.256702,66.3009473 C264.362649,65.4377051 266.594309,65 268.889612,65 Z M268.889612,67.1953613 C272.977639,67.1953613 276.82094,68.7873145 279.711653,71.677959 C282.602297,74.5686719 284.194251,78.4119727 284.194251,82.5 C284.194251,86.5880273 282.602297,90.4313281 279.711653,93.322041 C276.82094,96.2126855 272.977639,97.8046387 268.889612,97.8046387 C267.11179,97.8046387 265.369651,97.5024219 263.711526,96.9063281 C263.445061,96.8105566 263.306702,96.5168848 263.402473,96.2504883 C263.498245,95.9839551 263.791917,95.8456641 264.058381,95.9414355 C265.604944,96.497334 267.230393,96.779248 268.889612,96.779248 C276.763176,96.779248 283.16886,90.3735645 283.16886,82.5 C283.16886,74.6264355 276.763176,68.220752 268.889612,68.220752 C261.016047,68.220752 254.610364,74.6264355 254.610364,82.5 C254.610364,87.7407715 257.473938,92.5519727 262.083616,95.0561133 C262.332376,95.1912598 262.424524,95.5025 262.289378,95.7513281 C262.154231,96.0000879 261.842991,96.0922363 261.594163,95.9570898 C256.653899,93.2734375 253.584973,88.1169531 253.584973,82.5 C253.584973,78.4119727 255.176926,74.5686719 258.067571,71.677959 C260.958284,68.7873145 264.801585,67.1953613 268.889612,67.1953613 Z M273.327448,70.4999999 C273.645807,70.4991918 273.951327,70.6248318 274.176926,70.8493038 L280.512923,77.1527908 C280.738522,77.3772508 280.865842,77.6821468 280.866563,78.0004108 L280.889612,86.9378368 C280.890444,87.2561958 280.764803,87.5617158 280.540285,87.7873148 L274.236808,94.1233108 C274.012407,94.3489108 273.707488,94.4762308 273.389247,94.4769518 L264.451726,94.4999999 C264.133462,94.5008318 263.827919,94.3751908 263.602295,94.1506728 L257.266275,87.8471958 C257.040651,87.6227958 256.913439,87.3178768 256.912624,86.9996358 L256.889612,78.0621148 C256.888804,77.7438508 257.014444,77.4383068 257.238915,77.2126838 L263.542403,70.8766638 C263.766863,70.6510398 264.071758,70.5238278 264.390022,70.5230118 L273.327448,70.4999999 Z M268.889611,86.3443918 C267.827982,86.3443918 266.967415,87.2049588 266.967415,88.2665888 C266.967415,89.3282178 267.827982,90.1887848 268.889611,90.1887848 C269.951241,90.1887848 270.811808,89.3282178 270.811808,88.2665888 C270.811808,87.2049588 269.951241,86.3443918 268.889611,86.3443918 Z M268.889611,74.8112148 C267.827982,74.8112148 266.967415,75.6718198 266.967415,76.7334108 L266.967415,82.4999998 C266.967415,83.5616298 267.827982,84.4221958 268.889611,84.4221958 C269.951241,84.4221958 270.811808,83.5616298 270.811808,82.4999998 L270.811808,76.7334108 C270.811808,75.6718198 269.951241,74.8112148 268.889611,74.8112148 Z" id="bitcoin"></path>
        </g>
    </g>
</svg>