<?xml version="1.0" encoding="UTF-8"?>
<svg width="286px" height="253px" viewBox="0 0 286 253" version="1.1" xmlns="http://www.w3.org/2000/svg" xmlns:xlink="http://www.w3.org/1999/xlink">
    <title>bitcoin-unlocked</title>
    <defs>
        <path d="M0,0 L1402,0 L1402,1002 L0,1002 L0,0 Z" id="path-1"></path>
        <filter x="-0.4%" y="-0.5%" width="100.9%" height="101.3%" filterUnits="objectBoundingBox" id="filter-2">
            <feOffset dx="1" dy="1" in="SourceAlpha" result="shadowOffsetOuter1"></feOffset>
            <feGaussianBlur stdDeviation="2" in="shadowOffsetOuter1" result="shadowBlurOuter1"></feGaussianBlur>
            <feComposite in="shadowBlurOuter1" in2="SourceAlpha" operator="out" result="shadowBlurOuter1"></feComposite>
            <feColorMatrix values="0 0 0 0 0   0 0 0 0 0   0 0 0 0 0  0 0 0 0.153846154 0" type="matrix" in="shadowBlurOuter1"></feColorMatrix>
        </filter>
    </defs>
    <g id="Argon-Commander" stroke="none" stroke-width="1" fill="none" fill-rule="evenodd">
        <g id="Frame-8" transform="translate(-444, -359.5)" xlink:href="#path-1">
            <use fill="black" fill-opacity="1" filter="url(#filter-2)" xlink:href="#path-1"></use>
            <path stroke="#979797" stroke-width="1" d="M1401.5,0.5 L1401.5,1001.5 L0.5,1001.5 L0.5,0.5 L1401.5,0.5 Z" stroke-linejoin="square"></path>
            <g id="OVERLAY" stroke-width="1" fill-rule="evenodd" transform="translate(276.5, 408)">
                <g id="bitcoin-unlocked" transform="translate(259.9992, 103.5)">
                    <path d="M152.5,-66 C163.184375,-66 173.229219,-61.8392188 180.784375,-54.284375 C188.339219,-46.7292188 192.5,-36.684375 192.5,-26 C192.5,-15.315625 188.339219,-5.27078125 180.784375,2.284375 C173.229219,9.83921875 163.184375,14 152.5,14 C141.815625,14 131.770781,9.83921875 124.215625,2.284375 C116.660781,-5.27078125 112.5,-15.315625 112.5,-26 C112.5,-33.2107812 114.440156,-40.279375 118.110938,-46.4415625 C121.674688,-52.4246875 126.760312,-57.4001563 132.817969,-60.8304688 C133.381406,-61.1490625 134.096406,-60.95125 134.415156,-60.388125 C134.734062,-59.825 134.535937,-59.1098437 133.972813,-58.7909375 C128.268906,-55.5610937 123.480156,-50.8759375 120.124375,-45.2421875 C116.669844,-39.4426562 114.84375,-32.78875 114.84375,-26 C114.84375,-15.9415625 118.760625,-6.4853125 125.872969,0.62703125 C132.985312,7.739375 142.441563,11.65625 152.5,11.65625 C162.558437,11.65625 172.014688,7.739375 179.127031,0.62703125 C186.239375,-6.4853125 190.15625,-15.9415625 190.15625,-26 C190.15625,-36.0584375 186.239375,-45.5146875 179.127031,-52.6270313 C172.014688,-59.739375 162.558437,-63.65625 152.5,-63.65625 C147.56,-63.65625 142.758125,-62.7146875 138.227969,-60.8576562 C137.629063,-60.6123438 136.944687,-60.89875 136.699219,-61.4976562 C136.453594,-62.0965625 136.740156,-62.7809375 137.339063,-63.0264063 C142.152656,-64.9995313 147.253594,-66 152.5,-66 Z M152.5,-60.9820312 C161.844063,-60.9820312 170.62875,-57.3432813 177.236094,-50.7360937 C183.843281,-44.12875 187.482031,-35.3440625 187.482031,-26 C187.482031,-16.6559375 183.843281,-7.87125 177.236094,-1.26390625 C170.62875,5.34328125 161.844063,8.98203125 152.5,8.98203125 C148.436406,8.98203125 144.454375,8.29125 140.664375,6.92875 C140.055312,6.70984375 139.739062,6.03859375 139.957969,5.4296875 C140.176875,4.82046875 140.848125,4.504375 141.457188,4.72328125 C144.992188,5.99390625 148.7075,6.63828125 152.5,6.63828125 C170.496719,6.63828125 185.138281,-8.00328125 185.138281,-26 C185.138281,-43.9967188 170.496719,-58.6382812 152.5,-58.6382812 C134.503281,-58.6382812 119.861719,-43.9967188 119.861719,-26 C119.861719,-14.0210937 126.407031,-3.0240625 136.943437,2.6996875 C137.512031,3.00859375 137.722656,3.72 137.41375,4.28875 C137.104844,4.85734375 136.393438,5.06796875 135.824688,4.7590625 C124.532656,-1.375 117.517969,-13.16125 117.517969,-26 C117.517969,-35.3440625 121.156719,-44.12875 127.763906,-50.7360937 C134.37125,-57.3432813 143.155937,-60.9820312 152.5,-60.9820312 Z M160.771944,-46.7464356 L161.055215,-45.8882411 L166.790437,-28.5128418 L173.133588,-28.5127931 L173.133588,-22.7242188 L168.701062,-22.7242481 L169.16778,-21.3106543 L173.133588,-21.3106446 L173.133588,-15.5220704 L171.078405,-15.5222168 L173.226846,-9.01324106 L173.76877,-7.37143557 L160.308255,-7.37143558 L160.039955,-8.26017981 L157.847468,-15.5222168 L148.204655,-15.5222169 L146.012376,-8.2601798 L145.744076,-7.37143556 L132.283562,-7.37143553 L132.825486,-9.01324111 L134.973874,-15.5222168 L132.918744,-15.5220704 L132.918744,-21.3106445 L136.884499,-21.3106544 L137.351062,-22.724248 L132.918744,-22.7242187 L132.918744,-28.512793 L139.261843,-28.5128419 L144.997116,-45.8882411 L145.280388,-46.7464356 L160.771944,-46.7464356 Z M159.4164,-44.8714356 L146.635775,-44.8714356 L140.514187,-26.3253419 L135.106244,-26.325293 L135.106244,-24.9118555 L140.047624,-24.9119043 L138.136843,-19.1231544 L135.106244,-19.1231445 L135.106244,-17.709707 L137.67028,-17.7097168 L134.876869,-9.24643558 L144.3514,-9.24643553 L146.906374,-17.7097169 L159.145749,-17.7097168 L161.700775,-9.24643561 L171.175306,-9.24643552 L168.381843,-17.7097169 L170.946088,-17.7097071 L170.946088,-19.1231446 L167.91528,-19.1231543 L166.004499,-24.9119043 L170.946088,-24.9118554 L170.946088,-26.3252929 L165.537937,-26.3253418 L159.4164,-44.8714356 Z M156.97153,-24.9119043 L158.71903,-19.1231543 L147.333093,-19.1231544 L149.080593,-24.9119044 L156.97153,-24.9119043 Z M155.673249,-23.2625042 L150.378874,-23.2625043 L149.778163,-20.6318164 L156.237269,-20.6318164 L155.673249,-23.2625042 Z M153.634388,-35.9664063 L153.768538,-35.5220341 L156.544812,-26.3253418 L149.507312,-26.3253419 L152.283793,-35.5220341 L152.417943,-35.9664064 L153.634388,-35.9664063 Z M153.026088,-32.4274815 L151.723413,-27.7127885 L154.46576,-27.7127885 L153.026088,-32.4274815 Z" id="argon" stroke="#FFFFFF" fill="#000000" fill-rule="nonzero"></path>
                    <path d="M-51.4999871,-66 C-40.8156121,-66 -30.7707684,-61.8392188 -23.2156121,-54.284375 C-15.6607684,-46.7292188 -11.4999871,-36.684375 -11.4999871,-26 C-11.4999871,-15.315625 -15.6607684,-5.27078125 -23.2156121,2.284375 C-30.7707684,9.83921875 -40.8156121,14 -51.4999871,14 C-62.1843621,14 -72.2292059,9.83921875 -79.7843621,2.284375 C-87.3392059,-5.27078125 -91.4999871,-15.315625 -91.4999871,-26 C-91.4999871,-33.2107812 -89.5598309,-40.279375 -85.8890496,-46.4415625 C-82.3252996,-52.4246875 -77.2396746,-57.4001563 -71.1820184,-60.8304688 C-70.6185809,-61.1490625 -69.9035809,-60.95125 -69.5848309,-60.388125 C-69.2659246,-59.825 -69.4640496,-59.1098437 -70.0271746,-58.7909375 C-75.7310809,-55.5610937 -80.5198309,-50.8759375 -83.8756121,-45.2421875 C-87.3301434,-39.4426562 -89.1562371,-32.78875 -89.1562371,-26 C-89.1562371,-15.9415625 -85.2393621,-6.4853125 -78.1270184,0.62703125 C-71.0146746,7.739375 -61.5584246,11.65625 -51.4999871,11.65625 C-41.4415496,11.65625 -31.9852996,7.739375 -24.8729559,0.62703125 C-17.7606121,-6.4853125 -13.8437371,-15.9415625 -13.8437371,-26 C-13.8437371,-36.0584375 -17.7606121,-45.5146875 -24.8729559,-52.6270313 C-31.9852996,-59.739375 -41.4415496,-63.65625 -51.4999871,-63.65625 C-56.4399871,-63.65625 -61.2418621,-62.7146875 -65.7720184,-60.8576562 C-66.3709246,-60.6123438 -67.0552996,-60.89875 -67.3007684,-61.4976562 C-67.5463934,-62.0965625 -67.2598309,-62.7809375 -66.6609246,-63.0264063 C-61.8473309,-64.9995313 -56.7463934,-66 -51.4999871,-66 Z M-51.4999871,-60.9820312 C-42.1559246,-60.9820312 -33.3712371,-57.3432813 -26.7638934,-50.7360937 C-20.1567059,-44.12875 -16.5179559,-35.3440625 -16.5179559,-26 C-16.5179559,-16.6559375 -20.1567059,-7.87125 -26.7638934,-1.26390625 C-33.3712371,5.34328125 -42.1559246,8.98203125 -51.4999871,8.98203125 C-55.5635809,8.98203125 -59.5456121,8.29125 -63.3356121,6.92875 C-63.9446746,6.70984375 -64.2609246,6.03859375 -64.0420184,5.4296875 C-63.8231121,4.82046875 -63.1518621,4.504375 -62.5427996,4.72328125 C-59.0077996,5.99390625 -55.2924871,6.63828125 -51.4999871,6.63828125 C-33.5032684,6.63828125 -18.8617059,-8.00328125 -18.8617059,-26 C-18.8617059,-43.9967188 -33.5032684,-58.6382812 -51.4999871,-58.6382812 C-69.4967059,-58.6382812 -84.1382684,-43.9967188 -84.1382684,-26 C-84.1382684,-14.0210937 -77.5929559,-3.0240625 -67.0565496,2.6996875 C-66.4879559,3.00859375 -66.2773309,3.72 -66.5862371,4.28875 C-66.8951434,4.85734375 -67.6065496,5.06796875 -68.1752996,4.7590625 C-79.4673309,-1.375 -86.4820184,-13.16125 -86.4820184,-26 C-86.4820184,-35.3440625 -82.8432684,-44.12875 -76.2360809,-50.7360937 C-69.6287371,-57.3432813 -60.8440496,-60.9820312 -51.4999871,-60.9820312 Z M-43.2280435,-46.7464356 L-42.9447722,-45.8882411 L-37.2095506,-28.5128418 L-30.8663996,-28.5127931 L-30.8663996,-22.7242188 L-35.2989256,-22.7242481 L-34.8322069,-21.3106543 L-30.8663995,-21.3106446 L-30.8663995,-15.5220704 L-32.9215818,-15.5222168 L-30.7731414,-9.01324106 L-30.2312173,-7.37143557 L-43.6917318,-7.37143558 L-43.9600318,-8.26017981 L-46.1525193,-15.5222168 L-55.7953318,-15.5222169 L-57.9876111,-8.2601798 L-58.2559112,-7.37143556 L-71.7164255,-7.37143553 L-71.1745015,-9.01324111 L-69.0261131,-15.5222168 L-71.0812433,-15.5220704 L-71.0812434,-21.3106445 L-67.115488,-21.3106544 L-66.6489256,-22.724248 L-71.0812433,-22.7242187 L-71.0812433,-28.512793 L-64.7381443,-28.5128419 L-59.0028707,-45.8882411 L-58.7195993,-46.7464356 L-43.2280435,-46.7464356 Z M-44.5835871,-44.8714356 L-57.3642121,-44.8714356 L-63.4858006,-26.3253419 L-68.8937433,-26.325293 L-68.8937433,-24.9118555 L-63.952363,-24.9119043 L-65.8631443,-19.1231544 L-68.8937434,-19.1231445 L-68.8937432,-17.709707 L-66.3297069,-17.7097168 L-69.1231183,-9.24643558 L-59.6485871,-9.24643553 L-57.093613,-17.7097169 L-44.854238,-17.7097168 L-42.2992121,-9.24643561 L-32.8246807,-9.24643552 L-35.6181443,-17.7097169 L-33.0538995,-17.7097071 L-33.0538995,-19.1231446 L-36.0847068,-19.1231543 L-37.995488,-24.9119043 L-33.0538995,-24.9118554 L-33.0538995,-26.3252929 L-38.4620506,-26.3253418 L-44.5835871,-44.8714356 Z M-47.0284568,-24.9119043 L-45.2809569,-19.1231543 L-56.6668943,-19.1231544 L-54.9193943,-24.9119044 L-47.0284568,-24.9119043 Z M-48.3267382,-23.2625042 L-53.621113,-23.2625043 L-54.2218238,-20.6318164 L-47.7627183,-20.6318164 L-48.3267382,-23.2625042 Z M-50.3655987,-35.9664063 L-50.2314487,-35.5220341 L-47.4551756,-26.3253418 L-54.4926756,-26.3253419 L-51.7161942,-35.5220341 L-51.5820441,-35.9664064 L-50.3655987,-35.9664063 Z M-50.9738995,-32.4274815 L-52.2765737,-27.7127885 L-49.5342268,-27.7127885 L-50.9738995,-32.4274815 Z" id="argon" stroke="#FFFFFF" fill="#000000" fill-rule="nonzero"></path>
                    <path d="M-0.499990358,-151 C10.1843846,-151 20.2292284,-146.839219 27.7843846,-139.284375 C35.3392284,-131.729219 39.5000096,-121.684375 39.5000096,-111 C39.5000096,-100.315625 35.3392284,-90.2707812 27.7843846,-82.715625 C20.2292284,-75.1607812 10.1843846,-71 -0.499990358,-71 C-11.1843654,-71 -21.2292091,-75.1607812 -28.7843654,-82.715625 C-36.3392091,-90.2707812 -40.4999904,-100.315625 -40.4999904,-111 C-40.4999904,-118.210781 -38.5598341,-125.279375 -34.8890529,-131.441563 C-31.3253029,-137.424688 -26.2396779,-142.400156 -20.1820216,-145.830469 C-19.6185841,-146.149063 -18.9035841,-145.95125 -18.5848341,-145.388125 C-18.2659279,-144.825 -18.4640529,-144.109844 -19.0271779,-143.790938 C-24.7310841,-140.561094 -29.5198341,-135.875937 -32.8756154,-130.242188 C-36.3301466,-124.442656 -38.1562404,-117.78875 -38.1562404,-111 C-38.1562404,-100.941563 -34.2393654,-91.4853125 -27.1270216,-84.3729687 C-20.0146779,-77.260625 -10.5584279,-73.34375 -0.499990358,-73.34375 C9.55844714,-73.34375 19.0146971,-77.260625 26.1270409,-84.3729687 C33.2393846,-91.4853125 37.1562596,-100.941563 37.1562596,-111 C37.1562596,-121.058437 33.2393846,-130.514688 26.1270409,-137.627031 C19.0146971,-144.739375 9.55844714,-148.65625 -0.499990358,-148.65625 C-5.43999036,-148.65625 -10.2418654,-147.714687 -14.7720216,-145.857656 C-15.3709279,-145.612344 -16.0553029,-145.89875 -16.3007716,-146.497656 C-16.5463966,-147.096563 -16.2598341,-147.780937 -15.6609279,-148.026406 C-10.8473341,-149.999531 -5.74639661,-151 -0.499990358,-151 Z M-0.499990358,-145.982031 C8.84407214,-145.982031 17.6287596,-142.343281 24.2361034,-135.736094 C30.8432909,-129.12875 34.4820409,-120.344063 34.4820409,-111 C34.4820409,-101.655937 30.8432909,-92.87125 24.2361034,-86.2639063 C17.6287596,-79.6567187 8.84407214,-76.0179687 -0.499990358,-76.0179687 C-4.56358411,-76.0179687 -8.54561536,-76.70875 -12.3356154,-78.07125 C-12.9446779,-78.2901562 -13.2609279,-78.9614062 -13.0420216,-79.5703125 C-12.8231154,-80.1795312 -12.1518654,-80.495625 -11.5428029,-80.2767188 C-8.00780286,-79.0060937 -4.29249036,-78.3617187 -0.499990358,-78.3617187 C17.4967284,-78.3617187 32.1382909,-93.0032812 32.1382909,-111 C32.1382909,-128.996719 17.4967284,-143.638281 -0.499990358,-143.638281 C-18.4967091,-143.638281 -33.1382716,-128.996719 -33.1382716,-111 C-33.1382716,-99.0210937 -26.5929591,-88.0240625 -16.0565529,-82.3003125 C-15.4879591,-81.9914062 -15.2773341,-81.28 -15.5862404,-80.71125 C-15.8951466,-80.1426562 -16.6065529,-79.9320312 -17.1753029,-80.2409375 C-28.4673341,-86.375 -35.4820216,-98.16125 -35.4820216,-111 C-35.4820216,-120.344063 -31.8432716,-129.12875 -25.2360841,-135.736094 C-18.6287404,-142.343281 -9.84405286,-145.982031 -0.499990358,-145.982031 Z M7.77195332,-131.746436 L8.05522457,-130.888241 L13.7904462,-113.512842 L20.1335972,-113.512793 L20.1335972,-107.724219 L15.7010712,-107.724248 L16.1677899,-106.310654 L20.1335973,-106.310645 L20.1335973,-100.52207 L18.078415,-100.522217 L20.2268554,-94.0132411 L20.7687795,-92.3714356 L7.30826503,-92.3714356 L7.03996499,-93.2601798 L4.84747752,-100.522217 L-4.79533505,-100.522217 L-6.98761428,-93.2601798 L-7.25591439,-92.3714356 L-20.7164287,-92.3714355 L-20.1745048,-94.0132411 L-18.0261163,-100.522217 L-20.0812465,-100.52207 L-20.0812466,-106.310645 L-16.1154912,-106.310654 L-15.6489288,-107.724248 L-20.0812465,-107.724219 L-20.0812465,-113.512793 L-13.7381475,-113.512842 L-8.0028739,-130.888241 L-7.71960255,-131.746436 L7.77195332,-131.746436 Z M6.41640969,-129.871436 L-6.36421535,-129.871436 L-12.4858038,-111.325342 L-17.8937465,-111.325293 L-17.8937465,-109.911856 L-12.9523662,-109.911904 L-14.8631475,-104.123154 L-17.8937466,-104.123145 L-17.8937465,-102.709707 L-15.3297101,-102.709717 L-18.1231215,-94.2464356 L-8.64859031,-94.2464355 L-6.09361625,-102.709717 L6.14575876,-102.709717 L8.70078471,-94.2464356 L18.175316,-94.2464355 L15.3818524,-102.709717 L17.9460972,-102.709707 L17.9460973,-104.123145 L14.91529,-104.123154 L13.0045088,-109.911904 L17.9460973,-109.911855 L17.9460973,-111.325293 L12.5379462,-111.325342 L6.41640969,-129.871436 Z M3.97154,-109.911904 L5.71903992,-104.123154 L-5.66689755,-104.123154 L-3.91939747,-109.911904 L3.97154,-109.911904 Z M2.67325863,-108.262504 L-2.62111624,-108.262504 L-3.22182699,-105.631816 L3.23727852,-105.631816 L2.67325863,-108.262504 Z M0.634398114,-120.966406 L0.768548116,-120.522034 L3.54482116,-111.325342 L-3.49267877,-111.325342 L-0.716197435,-120.522034 L-0.582047344,-120.966406 L0.634398114,-120.966406 Z M0.0260972895,-117.427481 L-1.27657696,-112.712789 L1.46577001,-112.712789 L0.0260972895,-117.427481 Z" id="argon" stroke="#FFFFFF" fill="#000000" fill-rule="nonzero"></path>
                    <path d="M101.500003,-151 C112.184378,-151 122.229222,-146.839219 129.784378,-139.284375 C137.339222,-131.729219 141.500003,-121.684375 141.500003,-111 C141.500003,-100.315625 137.339222,-90.2707812 129.784378,-82.715625 C122.229222,-75.1607812 112.184378,-71 101.500003,-71 C90.8156282,-71 80.7707845,-75.1607812 73.2156282,-82.715625 C65.6607845,-90.2707812 61.5000032,-100.315625 61.5000032,-111 C61.5000032,-118.210781 63.4401595,-125.279375 67.1109407,-131.441563 C70.6746907,-137.424688 75.7603157,-142.400156 81.817972,-145.830469 C82.3814095,-146.149063 83.0964095,-145.95125 83.4151595,-145.388125 C83.7340657,-144.825 83.5359407,-144.109844 82.9728157,-143.790938 C77.2689095,-140.561094 72.4801595,-135.875937 69.1243782,-130.242188 C65.669847,-124.442656 63.8437532,-117.78875 63.8437532,-111 C63.8437532,-100.941563 67.7606282,-91.4853125 74.872972,-84.3729687 C81.9853157,-77.260625 91.4415657,-73.34375 101.500003,-73.34375 C111.558441,-73.34375 121.014691,-77.260625 128.127034,-84.3729687 C135.239378,-91.4853125 139.156253,-100.941563 139.156253,-111 C139.156253,-121.058437 135.239378,-130.514688 128.127034,-137.627031 C121.014691,-144.739375 111.558441,-148.65625 101.500003,-148.65625 C96.5600032,-148.65625 91.7581282,-147.714687 87.227972,-145.857656 C86.6290657,-145.612344 85.9446907,-145.89875 85.699222,-146.497656 C85.453597,-147.096563 85.7401595,-147.780937 86.3390657,-148.026406 C91.1526595,-149.999531 96.253597,-151 101.500003,-151 Z M101.500003,-145.982031 C110.844066,-145.982031 119.628753,-142.343281 126.236097,-135.736094 C132.843284,-129.12875 136.482034,-120.344063 136.482034,-111 C136.482034,-101.655937 132.843284,-92.87125 126.236097,-86.2639063 C119.628753,-79.6567187 110.844066,-76.0179687 101.500003,-76.0179687 C97.4364095,-76.0179687 93.4543782,-76.70875 89.6643782,-78.07125 C89.0553157,-78.2901562 88.7390657,-78.9614062 88.957972,-79.5703125 C89.1768782,-80.1795312 89.8481282,-80.495625 90.4571907,-80.2767188 C93.9921907,-79.0060937 97.7075032,-78.3617187 101.500003,-78.3617187 C119.496722,-78.3617187 134.138284,-93.0032812 134.138284,-111 C134.138284,-128.996719 119.496722,-143.638281 101.500003,-143.638281 C83.5032845,-143.638281 68.861722,-128.996719 68.861722,-111 C68.861722,-99.0210937 75.4070345,-88.0240625 85.9434407,-82.3003125 C86.5120345,-81.9914062 86.7226595,-81.28 86.4137532,-80.71125 C86.104847,-80.1426562 85.3934407,-79.9320312 84.8246907,-80.2409375 C73.5326595,-86.375 66.517972,-98.16125 66.517972,-111 C66.517972,-120.344063 70.156722,-129.12875 76.7639095,-135.736094 C83.3712532,-142.343281 92.1559407,-145.982031 101.500003,-145.982031 Z M109.771947,-131.746436 L110.055218,-130.888241 L115.79044,-113.512842 L122.133591,-113.512793 L122.133591,-107.724219 L117.701065,-107.724248 L118.167783,-106.310654 L122.133591,-106.310645 L122.133591,-100.52207 L120.078409,-100.522217 L122.226849,-94.0132411 L122.768773,-92.3714356 L109.308259,-92.3714356 L109.039959,-93.2601798 L106.847471,-100.522217 L97.2046585,-100.522217 L95.0123793,-93.2601798 L94.7440792,-92.3714356 L81.2835648,-92.3714355 L81.8254888,-94.0132411 L83.9738773,-100.522217 L81.918747,-100.52207 L81.918747,-106.310645 L85.8845024,-106.310654 L86.3510647,-107.724248 L81.9187471,-107.724219 L81.9187471,-113.512793 L88.2618461,-113.512842 L93.9971197,-130.888241 L94.280391,-131.746436 L109.771947,-131.746436 Z M108.416403,-129.871436 L95.6357782,-129.871436 L89.5141898,-111.325342 L84.106247,-111.325293 L84.106247,-109.911856 L89.0476273,-109.911904 L87.1368461,-104.123154 L84.106247,-104.123145 L84.1062471,-102.709707 L86.6702835,-102.709717 L83.8768721,-94.2464356 L93.3514033,-94.2464355 L95.9063773,-102.709717 L108.145752,-102.709717 L110.700778,-94.2464356 L120.17531,-94.2464355 L117.381846,-102.709717 L119.946091,-102.709707 L119.946091,-104.123145 L116.915284,-104.123154 L115.004502,-109.911904 L119.946091,-109.911855 L119.946091,-111.325293 L114.53794,-111.325342 L108.416403,-129.871436 Z M105.971534,-109.911904 L107.719033,-104.123154 L96.333096,-104.123154 L98.0805961,-109.911904 L105.971534,-109.911904 Z M104.673252,-108.262504 L99.3788773,-108.262504 L98.7781666,-105.631816 L105.237272,-105.631816 L104.673252,-108.262504 Z M102.634392,-120.966406 L102.768542,-120.522034 L105.544815,-111.325342 L98.5073148,-111.325342 L101.283796,-120.522034 L101.417946,-120.966406 L102.634392,-120.966406 Z M102.026091,-117.427481 L100.723417,-112.712789 L103.465764,-112.712789 L102.026091,-117.427481 Z" id="argon" stroke="#FFFFFF" fill="#000000" fill-rule="nonzero"></path>
                    <path d="M105.00079,-38.5 C98.1795011,-38.0962383 92.2707559,-35.2178208 87.2745543,-29.8647476 C82.2783526,-24.5116744 78.8537645,-17.3900919 77.0007898,-8.5" id="Line-4" stroke="#000000" stroke-linecap="square"></path>
                    <path d="M22.9984204,-39 C14.8321892,-37.1552284 8.4585602,-33.7787212 3.8775335,-28.8704783 C-0.703493194,-23.9622354 -3.66319756,-17.3387427 -5.0015796,-9" id="Line-4" stroke="#000000" stroke-linecap="square" transform="translate(8.9984, -24) scale(-1, 1) translate(-8.9984, 24)"></path>
                    <path d="M79.0007898,-66 C71.8393836,-55.7420636 66.54255,-46.5374198 63.1102892,-38.3860686 C59.6780284,-30.2347174 56.9745987,-20.4393612 55,-9" id="Line-4" stroke="#000000" stroke-linecap="square"></path>
                    <path d="M40.9976306,-66.5 C35.7962266,-59.3136344 31.2141516,-51.0148457 27.2514056,-41.6036336 C23.2886596,-32.1924216 19.8704713,-21.4912104 16.9968408,-9.5" id="Line-4" stroke="#000000" stroke-linecap="square" transform="translate(28.9972, -38) scale(-1, 1) translate(-28.9972, 38)"></path>
                    <g id="VAULT" transform="translate(-1, 0)" stroke="#000000">
                        <path d="M90,0.5 C92.8994949,0.5 95.5244949,1.67525253 97.4246212,3.5753788 C99.3247475,5.47550506 100.5,8.10050506 100.5,11 L100.5,90 C100.5,92.8994949 99.3247475,95.5244949 97.4246212,97.4246212 C95.5244949,99.3247475 92.8994949,100.5 90,100.5 L11.0013931,100.5 C8.10189814,100.5 5.47689814,99.3247475 3.57677187,97.4246212 C1.67664561,95.5244949 0.501393075,92.8994949 0.501393069,89.9999213 L0.500329263,83.2403727 C0.891679648,83.6407295 1.3372369,83.9878746 1.82513314,84.2699396 C2.72994085,84.7930317 3.78026208,85.0926025 4.90057923,85.0926025 C6.59965761,85.0926025 8.13788439,84.4039149 9.25134157,83.2904577 C10.3647988,82.1770005 11.0534863,80.6387738 11.0534863,78.9396954 L11.0534863,75.9246141 C11.0534863,74.2255357 10.3647988,72.6873089 9.25134157,71.5738517 C8.13788439,70.4603945 6.59965761,69.771707 4.90057923,69.771707 C3.78022971,69.771707 2.72988016,70.0712951 1.82505472,70.5944152 C1.33705766,70.8765481 0.89141852,71.2237885 0.500012856,71.6242604 L0.500012856,28.1803599 C0.89141852,28.5808318 1.33705766,28.9280722 1.82505472,29.2102051 C2.72988016,29.7333252 3.78022971,30.0329134 4.90057923,30.0329134 C6.59965761,30.0329134 8.13788439,29.3442258 9.25134157,28.2307686 C10.3647988,27.1173114 11.0534863,25.5790846 11.0534863,23.8800062 L11.0534863,20.8649249 C11.0534863,19.1658466 10.3647988,17.6276198 9.25134157,16.5141626 C8.13788439,15.4007054 6.59965761,14.7120178 4.90057923,14.7120178 C3.78022971,14.7120178 2.72988016,15.011606 1.82505472,15.534726 C1.33717823,15.8167893 0.891638745,16.1639278 0.500302999,16.5642745 L0.501393075,11 C0.501393075,8.10050506 1.67664561,5.47550506 3.57677187,3.5753788 C5.47689814,1.67525253 8.10189814,0.5 11.0013931,0.5 Z" id="Combined-Shape" fill="#FFFFFF"></path>
                        <rect id="Rectangle" x="0.598959991" y="17.5692158" width="7.66779089" height="9.15824288"></rect>
                        <rect id="Rectangle" x="0.598959991" y="72.596029" width="7.66779089" height="9.15824288"></rect>
                        <ellipse id="Oval" cx="50.5006965" cy="50.4870275" rx="12.9437456" ry="12.943931"></ellipse>
                        <ellipse id="Oval" cx="50.5006965" cy="50.4870275" rx="7.86630251" ry="7.86641791"></ellipse>
                        <ellipse id="Oval" cx="50.5006965" cy="50.4870275" rx="5.45439548" ry="5.45447761"></ellipse>
                        <path d="M33.5511163,33.6681442 L34.2400312,45.9320823 C33.2885756,45.7157397 32.3371101,45.6077628 31.3856867,45.6077685 C30.4342672,45.6077742 29.4828045,45.7157527 28.5313502,45.9320872 L29.2204119,33.6681442 L33.5511163,33.6681442 Z" id="Rectangle" transform="translate(31.3857, 39.8763) rotate(-60) translate(-31.3857, -39.8763)"></path>
                        <path d="M71.7809811,33.2514169 L72.4700429,45.51536 C71.5185886,45.2990255 70.5671258,45.1910469 69.6157064,45.1910413 C68.664283,45.1910356 67.7128175,45.2990124 66.7613618,45.515355 L67.4502768,33.2514169 L71.7809811,33.2514169 Z" id="Rectangle" transform="translate(69.6157, 39.4596) rotate(60) translate(-69.6157, -39.4596)"></path>
                        <path d="M52.666021,65.8878201 L53.3550029,78.1518675 C52.4035593,77.9355365 51.4521066,77.8275625 50.5006965,77.8275625 C49.5492865,77.8275625 48.5978338,77.9355365 47.6463902,78.1518675 L48.3353721,65.8878201 L52.666021,65.8878201 Z" id="Rectangle" transform="translate(50.5007, 72.096) rotate(180) translate(-50.5007, -72.096)"></path>
                    </g>
                </g>
            </g>
        </g>
    </g>
</svg>