<?xml version="1.0" encoding="UTF-8"?>
<svg width="265px" height="101px" viewBox="0 0 265 101" version="1.1" xmlns="http://www.w3.org/2000/svg" xmlns:xlink="http://www.w3.org/1999/xlink">
    <title>bitcoin-unlocked</title>
    <defs>
        <path d="M0,0 L1402,0 L1402,1002 L0,1002 L0,0 Z" id="path-1"></path>
        <filter x="-0.4%" y="-0.5%" width="100.9%" height="101.3%" filterUnits="objectBoundingBox" id="filter-2">
            <feOffset dx="1" dy="1" in="SourceAlpha" result="shadowOffsetOuter1"></feOffset>
            <feGaussianBlur stdDeviation="2" in="shadowOffsetOuter1" result="shadowBlurOuter1"></feGaussianBlur>
            <feComposite in="shadowBlurOuter1" in2="SourceAlpha" operator="out" result="shadowBlurOuter1"></feComposite>
            <feColorMatrix values="0 0 0 0 0   0 0 0 0 0   0 0 0 0 0  0 0 0 0.153846154 0" type="matrix" in="shadowBlurOuter1"></feColorMatrix>
        </filter>
    </defs>
    <g id="Argon-Commander" stroke="none" stroke-width="1" fill="none" fill-rule="evenodd">
        <g id="Frame-8" transform="translate(-528, -705.5)" xlink:href="#path-1">
            <use fill="black" fill-opacity="1" filter="url(#filter-2)" xlink:href="#path-1"></use>
            <path stroke="#979797" stroke-width="1" d="M1401.5,0.5 L1401.5,1001.5 L0.5,1001.5 L0.5,0.5 L1401.5,0.5 Z" stroke-linejoin="square"></path>
            <g id="OVERLAY" stroke-width="1" fill-rule="evenodd" transform="translate(276.5, 408)">
                <g id="bitcoin-unlocked" transform="translate(230.9992, 297.5)">
                    <path d="M245.00079,14 C255.685165,14 265.730009,18.1607812 273.285165,25.715625 C280.840009,33.2707812 285.00079,43.315625 285.00079,54 C285.00079,64.684375 280.840009,74.7292188 273.285165,82.284375 C265.730009,89.8392188 255.685165,94 245.00079,94 C234.316415,94 224.271571,89.8392188 216.716415,82.284375 C209.161571,74.7292188 205.00079,64.684375 205.00079,54 C205.00079,46.7892188 206.940946,39.720625 210.611727,33.5584375 C214.175477,27.5753125 219.261102,22.5998437 225.318759,19.1695312 C225.882196,18.8509375 226.597196,19.04875 226.915946,19.611875 C227.234852,20.175 227.036727,20.8901563 226.473602,21.2090625 C220.769696,24.4389062 215.980946,29.1240625 212.625165,34.7578125 C209.170634,40.5573438 207.34454,47.21125 207.34454,54 C207.34454,64.0584375 211.261415,73.5146875 218.373759,80.6270313 C225.486102,87.739375 234.942352,91.65625 245.00079,91.65625 C255.059227,91.65625 264.515477,87.739375 271.627821,80.6270313 C278.740165,73.5146875 282.65704,64.0584375 282.65704,54 C282.65704,43.9415625 278.740165,34.4853125 271.627821,27.3729687 C264.515477,20.260625 255.059227,16.34375 245.00079,16.34375 C240.06079,16.34375 235.258915,17.2853125 230.728759,19.1423438 C230.129852,19.3876562 229.445477,19.10125 229.200009,18.5023438 C228.954384,17.9034375 229.240946,17.2190625 229.839852,16.9735937 C234.653446,15.0004687 239.754384,14 245.00079,14 Z M245.00079,19.0179688 C254.344852,19.0179688 263.12954,22.6567187 269.736884,29.2639063 C276.344071,35.87125 279.982821,44.6559375 279.982821,54 C279.982821,63.3440625 276.344071,72.12875 269.736884,78.7360937 C263.12954,85.3432813 254.344852,88.9820313 245.00079,88.9820313 C240.937196,88.9820313 236.955165,88.29125 233.165165,86.92875 C232.556102,86.7098438 232.239852,86.0385938 232.458759,85.4296875 C232.677665,84.8204688 233.348915,84.504375 233.957977,84.7232812 C237.492977,85.9939063 241.20829,86.6382813 245.00079,86.6382813 C262.997509,86.6382813 277.639071,71.9967188 277.639071,54 C277.639071,36.0032812 262.997509,21.3617188 245.00079,21.3617188 C227.004071,21.3617188 212.362509,36.0032812 212.362509,54 C212.362509,65.9789063 218.907821,76.9759375 229.444227,82.6996875 C230.012821,83.0085938 230.223446,83.72 229.91454,84.28875 C229.605634,84.8573438 228.894227,85.0679688 228.325477,84.7590625 C217.033446,78.625 210.018759,66.83875 210.018759,54 C210.018759,44.6559375 213.657509,35.87125 220.264696,29.2639063 C226.87204,22.6567187 235.656727,19.0179688 245.00079,19.0179688 Z M243.041571,32.2720312 C244.830946,31.8017187 246.692665,32.908125 247.19204,34.7379687 L247.618915,36.3023437 C252.572665,35.1590625 257.648759,38.2426562 259.02579,43.2876562 C259.495321,45.0084375 259.492821,46.7698437 259.026102,48.445625 C261.851727,49.7001562 263.973446,52.15875 264.807509,55.214375 C265.53829,57.8915625 265.186102,60.6726562 263.815946,63.0454687 C262.48829,65.3446875 260.355321,66.979375 257.810165,67.6482812 L256.283915,68.049375 L256.593759,69.1845312 C256.841415,70.0917187 256.722821,71.0326562 256.260009,71.8342187 C255.81329,72.6078125 255.09579,73.1578125 254.23954,73.3828125 C252.450477,73.8532812 250.588446,72.7467187 250.089071,70.916875 L249.77329,69.7603125 L247.359384,70.3946875 L247.669227,71.5298437 C247.916884,72.436875 247.79829,73.3779687 247.335477,74.1795312 C246.888915,74.953125 246.171259,75.503125 245.315009,75.728125 C245.036571,75.80125 244.756259,75.83625 244.47954,75.83625 C242.979227,75.83625 241.586415,74.8071875 241.164696,73.2620312 L240.848915,72.1054687 L235.949227,73.393125 C234.160321,73.863125 232.298446,72.7571875 231.798915,70.9271875 C231.551415,70.02 231.670009,69.0789062 232.132821,68.2773437 C232.579384,67.50375 233.29704,66.9539062 234.15329,66.7289062 L236.459696,66.1228125 L231.42829,47.6889062 L229.100477,48.3007812 C227.310946,48.7709375 225.44954,47.6645312 224.950165,45.8346875 C224.702509,44.9275 224.821102,43.9864062 225.284071,43.1848437 C225.730634,42.41125 226.44829,41.8614062 227.30454,41.6364062 L232.182821,40.3545312 L231.762821,38.815625 C231.515165,37.9084375 231.633759,36.9675 232.096571,36.1659375 C232.54329,35.3923437 233.26079,34.8423437 234.11704,34.6173437 C235.905946,34.1470312 237.768134,35.2532812 238.267509,37.0832812 L238.693446,38.6435937 L241.107352,38.0092187 L240.687352,36.4703125 C240.439696,35.5632812 240.55829,34.6221875 241.021102,33.820625 C241.467665,33.0470312 242.185321,32.4970312 243.041571,32.2720312 Z M244.930634,35.3551562 C244.768134,34.7603125 244.187509,34.3935937 243.63704,34.5389062 C243.390321,34.60375 243.181884,34.7648437 243.050477,34.9926562 C242.902821,35.2484375 242.866415,35.5540625 242.948134,35.8532812 L243.679696,38.5335937 C243.76204,38.8353125 243.720321,39.1573437 243.563915,39.428125 C243.407665,39.6989062 243.14954,39.8959375 242.84704,39.9754687 L238.166259,41.205625 C237.543915,41.36875 236.90704,41.0009375 236.737821,40.3807812 L236.006259,37.700625 C235.843759,37.1057812 235.26329,36.7389062 234.712665,36.884375 C234.465946,36.9492187 234.257509,37.1103125 234.126102,37.338125 C233.97829,37.5939062 233.94204,37.8995312 234.023602,38.19875 L234.755165,40.8789062 C234.837509,41.1807812 234.79579,41.5028125 234.63954,41.7735937 C234.483134,42.044375 234.225009,42.2414062 233.922509,42.3209375 L227.900165,43.9035937 C227.653446,43.9684375 227.445165,44.129375 227.313602,44.3571875 C227.165946,44.6129687 227.129696,44.9185937 227.211259,45.2178125 C227.373602,45.8126562 227.95454,46.1792187 228.504696,46.0340625 L231.955321,45.1271875 C232.57704,44.9642187 233.21454,45.3317187 233.383759,45.9520312 L239.032196,66.6470312 C239.11454,66.94875 239.072821,67.2707812 238.916571,67.5415625 C238.760165,67.8123437 238.50204,68.009375 238.19954,68.0889062 L234.748915,68.9957812 C234.502196,69.0604687 234.293915,69.2215625 234.162196,69.4495312 C234.01454,69.7051562 233.97829,70.0109375 234.059852,70.3101562 C234.222196,70.905 234.801727,71.2709375 235.35329,71.1264062 L241.37579,69.54375 C241.475634,69.5176562 241.57579,69.505 241.674384,69.505 C242.190009,69.505 242.661884,69.8478125 242.804071,70.3685937 L243.425477,72.645 C243.587821,73.2398437 244.167821,73.6065625 244.719071,73.46125 C244.96579,73.3964062 245.174227,73.2353125 245.305634,73.0075 C245.45329,72.7517187 245.489696,72.4460937 245.407977,72.146875 L244.786727,69.8703125 C244.704384,69.5685937 244.746102,69.2465625 244.902509,68.9757812 C245.058759,68.705 245.316884,68.5079687 245.619384,68.4284375 L250.300165,67.1982812 C250.92204,67.0351562 251.559384,67.4028125 251.728602,68.023125 L252.350009,70.2995312 C252.512352,70.894375 253.092196,71.260625 253.643602,71.1157812 C253.890321,71.0509375 254.098602,70.8898437 254.230165,70.6620312 C254.377821,70.40625 254.414071,70.100625 254.332509,69.8014062 L253.711102,67.525 C253.628759,67.2232812 253.670477,66.90125 253.826884,66.6304687 C253.983134,66.3596875 254.241259,66.1626562 254.543759,66.083125 L257.214227,65.3814062 C259.149852,64.8726562 260.773602,63.626875 261.786102,61.8734375 C262.841102,60.0464062 263.111102,57.900625 262.546259,55.8314062 C261.816102,53.1564062 259.81704,51.0729687 257.198915,50.2584375 C256.883759,50.1604687 256.624696,49.9342187 256.485165,49.6351562 C256.345477,49.33625 256.338446,48.9923437 256.465634,48.6878125 C257.100477,47.1685937 257.203759,45.5145312 256.764384,43.9048437 C255.699071,40.0014062 251.739696,37.6379687 247.939227,38.6371875 L247.090634,38.8601562 C246.469227,39.0234375 245.831571,38.655625 245.662196,38.0353125 L244.930634,35.3551562 Z M253.641259,52.2896875 C256.635634,51.5028125 259.741102,53.3151563 260.563915,56.3295313 C260.96579,57.8023438 260.769384,59.3370313 260.010634,60.6510938 C259.261727,61.9479688 258.054071,62.87125 256.609852,63.2507813 L242.443134,66.97375 C242.34329,66.9998438 242.243134,67.0125 242.14454,67.0125 C241.628759,67.0125 241.156884,66.6695313 241.014852,66.1489063 L238.641884,57.4545313 C238.55954,57.1528125 238.601259,56.8307813 238.757665,56.56 C238.913915,56.2892188 239.17204,56.0921875 239.47454,56.0126563 L253.641259,52.2896875 Z M258.302665,56.9467188 C257.81704,55.1671875 255.993134,54.095 254.236727,54.5565625 L241.214227,57.97875 L242.970009,64.411875 L256.013915,60.9840625 C256.848602,60.7646875 257.54704,60.2303125 257.98079,59.4792188 C258.424384,58.7109375 258.538759,57.8115625 258.302665,56.9467188 Z M248.543915,40.7676563 C251.242977,40.0584375 254.041415,41.6892188 254.78204,44.4029688 C255.143759,45.7282813 254.966727,47.1096875 254.283446,48.2928125 C253.607977,49.4625 252.518134,50.2953125 251.214852,50.6378125 L238.870009,53.8820313 C238.770165,53.908125 238.670009,53.9207812 238.571415,53.9207812 C238.05579,53.9207812 237.583915,53.5778125 237.441727,53.0571875 L235.366415,45.45375 C235.284071,45.1520313 235.32579,44.83 235.48204,44.5592188 C235.638446,44.2884375 235.896571,44.0914063 236.199071,44.011875 L248.543915,40.7676563 Z M252.520946,45.02 C252.117352,43.5414062 250.600946,42.6501562 249.13954,43.0345312 L237.938759,45.9779687 L239.39704,51.3201562 L250.619227,48.3709375 C251.312977,48.18875 251.893446,47.7446875 252.253759,47.1207812 C252.621884,46.4834375 252.716727,45.7373437 252.520946,45.02 Z" id="bitcoin" stroke="#FFFFFF" fill="#000000" fill-rule="nonzero"></path>
                    <line x1="146.50079" y1="35.5" x2="193.50079" y2="35.5" id="Line-2" stroke="#979797" stroke-linecap="square"></line>
                    <line x1="146.50079" y1="74.5" x2="193.50079" y2="74.5" id="Line-2" stroke="#979797" stroke-linecap="square"></line>
                    <line x1="162.50079" y1="55" x2="193.50079" y2="55" id="Line-2" stroke="#979797" stroke-linecap="square"></line>
                    <g id="VAULT" transform="translate(21, 0)" stroke="#000000">
                        <path d="M90,0.5 C92.8994949,0.5 95.5244949,1.67525253 97.4246212,3.5753788 C99.3247475,5.47550506 100.5,8.10050506 100.5,11 L100.5,90 C100.5,92.8994949 99.3247475,95.5244949 97.4246212,97.4246212 C95.5244949,99.3247475 92.8994949,100.5 90,100.5 L11.0013931,100.5 C8.10189814,100.5 5.47689814,99.3247475 3.57677187,97.4246212 C1.67664561,95.5244949 0.501393075,92.8994949 0.501393069,89.9999213 L0.500329263,83.2403727 C0.891679648,83.6407295 1.3372369,83.9878746 1.82513314,84.2699396 C2.72994085,84.7930317 3.78026208,85.0926025 4.90057923,85.0926025 C6.59965761,85.0926025 8.13788439,84.4039149 9.25134157,83.2904577 C10.3647988,82.1770005 11.0534863,80.6387738 11.0534863,78.9396954 L11.0534863,75.9246141 C11.0534863,74.2255357 10.3647988,72.6873089 9.25134157,71.5738517 C8.13788439,70.4603945 6.59965761,69.771707 4.90057923,69.771707 C3.78022971,69.771707 2.72988016,70.0712951 1.82505472,70.5944152 C1.33705766,70.8765481 0.89141852,71.2237885 0.500012856,71.6242604 L0.500012856,28.1803599 C0.89141852,28.5808318 1.33705766,28.9280722 1.82505472,29.2102051 C2.72988016,29.7333252 3.78022971,30.0329134 4.90057923,30.0329134 C6.59965761,30.0329134 8.13788439,29.3442258 9.25134157,28.2307686 C10.3647988,27.1173114 11.0534863,25.5790846 11.0534863,23.8800062 L11.0534863,20.8649249 C11.0534863,19.1658466 10.3647988,17.6276198 9.25134157,16.5141626 C8.13788439,15.4007054 6.59965761,14.7120178 4.90057923,14.7120178 C3.78022971,14.7120178 2.72988016,15.011606 1.82505472,15.534726 C1.33717823,15.8167893 0.891638745,16.1639278 0.500302999,16.5642745 L0.501393075,11 C0.501393075,8.10050506 1.67664561,5.47550506 3.57677187,3.5753788 C5.47689814,1.67525253 8.10189814,0.5 11.0013931,0.5 Z" id="Combined-Shape" fill="#FFFFFF"></path>
                        <rect id="Rectangle" x="0.598959991" y="17.5692158" width="7.66779089" height="9.15824288"></rect>
                        <rect id="Rectangle" x="0.598959991" y="72.596029" width="7.66779089" height="9.15824288"></rect>
                        <ellipse id="Oval" cx="50.5006965" cy="50.4870275" rx="12.9437456" ry="12.943931"></ellipse>
                        <ellipse id="Oval" cx="50.5006965" cy="50.4870275" rx="7.86630251" ry="7.86641791"></ellipse>
                        <ellipse id="Oval" cx="50.5006965" cy="50.4870275" rx="5.45439548" ry="5.45447761"></ellipse>
                        <path d="M33.5511163,33.6681442 L34.2400312,45.9320823 C33.2885756,45.7157397 32.3371101,45.6077628 31.3856867,45.6077685 C30.4342672,45.6077742 29.4828045,45.7157527 28.5313502,45.9320872 L29.2204119,33.6681442 L33.5511163,33.6681442 Z" id="Rectangle" transform="translate(31.3857, 39.8763) rotate(-60) translate(-31.3857, -39.8763)"></path>
                        <path d="M71.7809811,33.2514169 L72.4700429,45.51536 C71.5185886,45.2990255 70.5671258,45.1910469 69.6157064,45.1910413 C68.664283,45.1910356 67.7128175,45.2990124 66.7613618,45.515355 L67.4502768,33.2514169 L71.7809811,33.2514169 Z" id="Rectangle" transform="translate(69.6157, 39.4596) rotate(60) translate(-69.6157, -39.4596)"></path>
                        <path d="M52.666021,65.8878201 L53.3550029,78.1518675 C52.4035593,77.9355365 51.4521066,77.8275625 50.5006965,77.8275625 C49.5492865,77.8275625 48.5978338,77.9355365 47.6463902,78.1518675 L48.3353721,65.8878201 L52.666021,65.8878201 Z" id="Rectangle" transform="translate(50.5007, 72.096) rotate(180) translate(-50.5007, -72.096)"></path>
                    </g>
                </g>
            </g>
        </g>
    </g>
</svg>