<?xml version="1.0" encoding="UTF-8"?>
<svg viewBox="0 0 25 19" version="1.1" xmlns="http://www.w3.org/2000/svg" xmlns:xlink="http://www.w3.org/1999/xlink">
    <g id="Argon-Treasury" stroke="none" stroke-width="1" fill="none" fill-rule="evenodd">
        <g id="Frame-8" transform="translate(-1024.177, -231.5455)" fill="currentColor">
            <g id="Group" transform="translate(403.0154, 189.5455)">
                <g transform="translate(225.323, 10)" fill-rule="nonzero" id="PORTAL-BUTTON">
                    <g transform="translate(397.5, 2)">
                        <g id="Layer_1" transform="translate(-1.3887, 27.5)">
                            <path d="M19.0480784,17.9881273 L4.40278506,17.9881273 L5.27419976,18.8558043 C5.71388163,19.2936018 5.71388163,20.0034111 5.27419927,20.4412086 L5.04276215,20.6716536 C4.60309527,21.1094337 3.89026092,21.1094511 3.45057275,20.6716921 L0.377809287,17.6123987 C-0.125813189,17.1109846 -0.125833081,16.2979847 0.377764633,15.7965456 L3.45057214,12.736911 C3.89025353,12.2991145 4.60311886,12.2991145 5.04280023,12.736911 L5.27419963,12.9673193 C5.7138815,13.4051149 5.7138815,14.1149242 5.27420011,14.5527217 L4.40278445,15.4204007 L19.0477042,15.4204007 C20.352727,15.4204007 21.7716348,17.9881273 19.0480784,17.9881273 Z M18.9571594,3.32834791 L18.7257997,3.55871671 C18.2861193,3.99651357 18.2861193,4.70632204 18.7257997,5.1441188 L19.5972144,6.01179852 L4.95229365,6.01179852 C2.22560767,6.011427 3.64690124,8.57989876 4.95192157,8.57989876 L19.5968427,8.57989876 L18.725428,9.44757777 C18.2857457,9.88537428 18.2857457,10.5951831 18.725428,11.0329796 L18.9568264,11.263387 C19.3965069,11.7011835 20.1093722,11.7011835 20.5490545,11.263387 L23.6218194,8.20379627 C24.1254059,7.70236725 24.1254272,6.88939629 23.621862,6.38794294 L20.5494262,3.32838562 C20.1097516,2.89055284 19.3968572,2.89053599 18.9571594,3.32834791 Z" id="Shape"></path>
                        </g>
                    </g>
                </g>
            </g>
        </g>
    </g>
</svg>