<?xml version="1.0" encoding="UTF-8"?>
<svg width="69px" height="69px" viewBox="0 0 69 69" version="1.1" xmlns="http://www.w3.org/2000/svg" xmlns:xlink="http://www.w3.org/1999/xlink">
    <title>swap</title>
    <g id="Argon-Desktop" stroke="none" stroke-width="1" fill="none" fill-rule="evenodd" opacity="0.600000024">
        <g id="Frame-3" transform="translate(-714, -295.4545)" fill="#000000">
            <path d="M782.25,322.598038 C782.25,342.035553 766.492727,357.792832 747.055219,357.792832 L739.75,357.792832 L739.75,362.441803 C739.75,364.166639 737.707078,365.076405 736.425172,363.92253 L723.143922,351.9694 C722.26457,351.17797 722.26457,349.799243 723.143922,349.007813 L736.425172,337.054684 C737.707211,335.900808 739.75,336.810707 739.75,338.535411 L739.75,343.183319 L746.544289,343.183319 C760.511383,343.183319 773.097625,334.754371 778.415703,321.839413 C779.246578,319.821724 782.25,320.415795 782.25,322.598038 Z M760.074828,296.953263 L773.356078,308.906392 C774.23543,309.697822 774.23543,311.076549 773.356078,311.867979 L760.074828,323.821109 C758.792922,324.974984 756.75,324.065085 756.75,322.340382 L756.75,317.692474 L749.955711,317.692474 C735.988617,317.692474 723.402375,326.121422 718.084297,339.03638 C717.253422,341.054201 714.25,340.46013 714.25,338.277887 C714.25,318.84024 730.007273,303.083093 749.444781,303.083093 L756.75,303.083093 L756.75,298.43399 C756.75,296.709153 758.792922,295.799387 760.074828,296.953263 Z" id="swap"></path>
        </g>
    </g>
</svg>