<?xml version="1.0" encoding="UTF-8"?>
<svg width="36px" height="35px" viewBox="0 0 36 35" version="1.1" xmlns="http://www.w3.org/2000/svg" xmlns:xlink="http://www.w3.org/1999/xlink">
    <title>ethereum</title>
    <g id="Logos" stroke="none" stroke-width="1" fill="none" fill-rule="evenodd">
        <g id="Artboard" transform="translate(-654, -65)" fill="#000000" fill-rule="nonzero">
            <path d="M671.636763,65 C676.311177,65 680.705796,66.8203418 684.011177,70.1255859 C687.316421,73.4309668 689.136763,77.8255859 689.136763,82.5 C689.136763,87.1744141 687.316421,91.5690332 684.011177,94.8744141 C680.705796,98.1796582 676.311177,100 671.636763,100 C666.962349,100 662.56773,98.1796582 659.262349,94.8744141 C655.957105,91.5690332 654.136763,87.1744141 654.136763,82.5 C654.136763,79.3452832 654.985582,76.2527734 656.591548,73.5568164 C658.150689,70.9391992 660.37565,68.7624316 663.025874,67.2616699 C663.272378,67.1222852 663.585191,67.2088281 663.724644,67.4551953 C663.864166,67.7015625 663.777486,68.0144434 663.531119,68.1539648 C661.03566,69.5670215 658.940582,71.6167773 657.472427,74.081543 C655.96107,76.6188379 655.162154,79.5299219 655.162154,82.5 C655.162154,86.9005664 656.875787,91.0376758 659.987437,94.1493262 C663.099087,97.2609766 667.236197,98.9746094 671.636763,98.9746094 C676.03733,98.9746094 680.174439,97.2609766 683.286089,94.1493262 C686.39774,91.0376758 688.111373,86.9005664 688.111373,82.5 C688.111373,78.0994336 686.39774,73.9623242 683.286089,70.8506738 C680.174439,67.7390234 676.03733,66.0253906 671.636763,66.0253906 C669.475513,66.0253906 667.374693,66.4373242 665.392749,67.2497754 C665.130728,67.3570996 664.831314,67.2317969 664.723921,66.9697754 C664.61646,66.7077539 664.741832,66.4083398 665.003853,66.3009473 C667.1098,65.4377051 669.34146,65 671.636763,65 Z M671.636763,67.1953613 C675.724791,67.1953613 679.568091,68.7873145 682.458804,71.677959 C685.349449,74.5686719 686.941402,78.4119727 686.941402,82.5 C686.941402,86.5880273 685.349449,90.4313281 682.458804,93.322041 C679.568091,96.2126855 675.724791,97.8046387 671.636763,97.8046387 C669.858941,97.8046387 668.116802,97.5024219 666.458677,96.9063281 C666.192212,96.8105566 666.053853,96.5168848 666.149624,96.2504883 C666.245396,95.9839551 666.539068,95.8456641 666.805533,95.9414355 C668.352095,96.497334 669.977544,96.779248 671.636763,96.779248 C679.510328,96.779248 685.916011,90.3735645 685.916011,82.5 C685.916011,74.6264355 679.510328,68.220752 671.636763,68.220752 C663.763199,68.220752 657.357515,74.6264355 657.357515,82.5 C657.357515,87.7407715 660.221089,92.5519727 664.830767,95.0561133 C665.079527,95.1912598 665.171675,95.5025 665.036529,95.7513281 C664.901382,96.0000879 664.590142,96.0922363 664.341314,95.9570898 C659.40105,93.2734375 656.332124,88.1169531 656.332124,82.5 C656.332124,78.4119727 657.924078,74.5686719 660.814722,71.677959 C663.705435,68.7873145 667.548736,67.1953613 671.636763,67.1953613 Z M663.943974,84.3808174 L671.392428,88.6188365 L671.392428,94.619829 L663.943974,84.3808174 Z M679.32429,84.3808174 L671.875835,94.619829 L671.875835,88.6188365 L679.32429,84.3808174 Z M671.392428,79.6571442 L671.392428,87.1180823 L663.893539,82.8493769 L671.392428,79.6571442 Z M671.875835,79.6571442 L679.379987,82.8515079 L671.875835,87.1182954 L671.875835,79.6571442 Z M671.875835,70.380171 L679.235042,82.2770978 L671.875835,79.1442134 L671.875835,70.380171 Z M671.392428,70.3837937 L671.392428,79.1442134 L664.135188,82.2334123 L671.392428,70.3837937 Z" id="ethereum"></path>
        </g>
    </g>
</svg>