<?xml version="1.0" encoding="UTF-8"?>
<svg width="36px" height="35px" viewBox="0 0 36 35" version="1.1" xmlns="http://www.w3.org/2000/svg" xmlns:xlink="http://www.w3.org/1999/xlink">
    <title>ethereum</title>
    <g id="Logos" stroke="none" stroke-width="1" fill="none" fill-rule="evenodd">
        <g id="Artboard" transform="translate(-706, -65)" fill="#000000" fill-rule="nonzero">
            <path d="M724.055165,65 C728.729579,65 733.124198,66.8203418 736.429579,70.1255859 C739.734823,73.4309668 741.555165,77.8255859 741.555165,82.5 C741.555165,87.1744141 739.734823,91.5690332 736.429579,94.8744141 C733.124198,98.1796582 728.729579,100 724.055165,100 C719.380751,100 714.986132,98.1796582 711.680751,94.8744141 C708.375507,91.5690332 706.555165,87.1744141 706.555165,82.5 C706.555165,79.3452832 707.403983,76.2527734 709.00995,73.5568164 C710.569091,70.9391992 712.794052,68.7624316 715.444276,67.2616699 C715.69078,67.1222852 716.003593,67.2088281 716.143046,67.4551953 C716.282567,67.7015625 716.195888,68.0144434 715.94952,68.1539648 C713.454061,69.5670215 711.358983,71.6167773 709.890829,74.081543 C708.379472,76.6188379 707.580556,79.5299219 707.580556,82.5 C707.580556,86.9005664 709.294188,91.0376758 712.405839,94.1493262 C715.517489,97.2609766 719.654599,98.9746094 724.055165,98.9746094 C728.455731,98.9746094 732.592841,97.2609766 735.704491,94.1493262 C738.816141,91.0376758 740.529774,86.9005664 740.529774,82.5 C740.529774,78.0994336 738.816141,73.9623242 735.704491,70.8506738 C732.592841,67.7390234 728.455731,66.0253906 724.055165,66.0253906 C721.893915,66.0253906 719.793095,66.4373242 717.811151,67.2497754 C717.54913,67.3570996 717.249716,67.2317969 717.142323,66.9697754 C717.034862,66.7077539 717.160233,66.4083398 717.422255,66.3009473 C719.528202,65.4377051 721.759862,65 724.055165,65 Z M724.055165,67.1953613 C728.143192,67.1953613 731.986493,68.7873145 734.877206,71.677959 C737.76785,74.5686719 739.359804,78.4119727 739.359804,82.5 C739.359804,86.5880273 737.76785,90.4313281 734.877206,93.322041 C731.986493,96.2126855 728.143192,97.8046387 724.055165,97.8046387 C722.277343,97.8046387 720.535204,97.5024219 718.877079,96.9063281 C718.610614,96.8105566 718.472255,96.5168848 718.568026,96.2504883 C718.663798,95.9839551 718.95747,95.8456641 719.223934,95.9414355 C720.770497,96.497334 722.395946,96.779248 724.055165,96.779248 C731.928729,96.779248 738.334413,90.3735645 738.334413,82.5 C738.334413,74.6264355 731.928729,68.220752 724.055165,68.220752 C716.1816,68.220752 709.775917,74.6264355 709.775917,82.5 C709.775917,87.7407715 712.639491,92.5519727 717.249169,95.0561133 C717.497929,95.1912598 717.590077,95.5025 717.454931,95.7513281 C717.319784,96.0000879 717.008544,96.0922363 716.759716,95.9570898 C711.819452,93.2734375 708.750526,88.1169531 708.750526,82.5 C708.750526,78.4119727 710.342479,74.5686719 713.233124,71.677959 C716.123837,68.7873145 719.967138,67.1953613 724.055165,67.1953613 Z M729.957252,85.5975558 C729.957252,82.5446334 728.099188,81.4890542 724.369396,81.0650372 C721.714368,80.7079702 721.181541,80.0250797 721.181541,78.7909671 C721.181541,77.5568544 722.076417,76.7824655 723.850231,76.7824655 C725.160705,76.5814639 726.418553,77.3691832 726.783059,78.6191286 C726.877887,78.8821701 727.129204,79.0600102 727.413799,79.0654623 L728.809624,79.0654623 C729.143925,79.0667858 729.418038,78.8060656 729.426702,78.4785335 L729.426702,78.4383634 C729.076705,76.4967425 727.435424,75.0302332 725.430497,74.8676939 L725.430497,72.6985122 C725.430497,72.3548353 725.16636,72.0959617 724.720061,72 L723.321958,72 C722.973571,72 722.707157,72.2588735 722.622907,72.6985122 L722.622907,74.7070138 C720.258482,74.7969986 718.361413,76.6523816 718.264653,78.9695005 C718.264653,81.8461211 720.038467,82.9865037 723.768258,83.4194474 C726.254785,83.8434644 727.065412,84.3790648 727.065412,85.7604676 C727.065412,87.1418704 725.822148,88.1171095 724.132584,88.1171095 C721.812281,88.1171095 721.017594,87.157492 720.75118,85.8564293 C720.696458,85.5575796 720.432501,85.3391865 720.122717,85.3364506 L718.669966,85.3364506 C718.510522,85.3328587 718.356157,85.3915115 718.240851,85.4994979 C718.125544,85.6074844 718.058747,85.7559527 718.055165,85.912221 L718.055165,86.0215728 C718.385521,88.3607046 720.383488,90.1286939 722.791408,90.2126461 L722.791408,92.3148778 C722.791408,92.6585547 723.055544,92.9174283 723.504121,93 L724.899947,93 C725.279906,92.9806674 725.585585,92.6868227 725.61266,92.3148778 L725.61266,90.2215728 C728.071886,90.0069386 729.979601,88.025111 730.055165,85.6064825 L729.957252,85.5975558 Z" id="ethereum"></path>
        </g>
    </g>
</svg>