<?xml version="1.0" encoding="UTF-8"?>
<svg viewBox="0 0 36 36" version="1.1" xmlns="http://www.w3.org/2000/svg" xmlns:xlink="http://www.w3.org/1999/xlink">
    <title>tether</title>
    <g id="Logos" stroke="none" stroke-width="1" fill="none" fill-rule="evenodd">
        <g id="Artboard" transform="translate(-706, -111)" fill="currentColor" fill-rule="nonzero">
            <path d="M724.055165,111.976962 C728.729579,111.976962 733.124198,113.797303 736.429579,117.102548 C739.734823,120.407928 741.555165,124.802548 741.555165,129.476962 C741.555165,134.151376 739.734823,138.545995 736.429579,141.851376 C733.124198,145.15662 728.729579,146.976962 724.055165,146.976962 C719.380751,146.976962 714.986132,145.15662 711.680751,141.851376 C708.375507,138.545995 706.555165,134.151376 706.555165,129.476962 C706.555165,126.322245 707.403983,123.229735 709.00995,120.533778 C710.569091,117.916161 712.794052,115.739393 715.444276,114.238632 C715.69078,114.099247 716.003593,114.18579 716.143046,114.432157 C716.282567,114.678524 716.195888,114.991405 715.94952,115.130926 C713.454061,116.543983 711.358983,118.593739 709.890829,121.058505 C708.379472,123.595799 707.580556,126.506883 707.580556,129.476962 C707.580556,133.877528 709.294188,138.014637 712.405839,141.126288 C715.517489,144.237938 719.654599,145.951571 724.055165,145.951571 C728.455731,145.951571 732.592841,144.237938 735.704491,141.126288 C738.816141,138.014637 740.529774,133.877528 740.529774,129.476962 C740.529774,125.076395 738.816141,120.939286 735.704491,117.827635 C732.592841,114.715985 728.455731,113.002352 724.055165,113.002352 C721.893915,113.002352 719.793095,113.414286 717.811151,114.226737 C717.54913,114.334061 717.249716,114.208758 717.142323,113.946737 C717.034862,113.684715 717.160233,113.385301 717.422255,113.277909 C719.528202,112.414667 721.759862,111.976962 724.055165,111.976962 Z M724.055165,114.172323 C728.143192,114.172323 731.986493,115.764276 734.877206,118.654921 C737.76785,121.545633 739.359804,125.388934 739.359804,129.476962 C739.359804,133.564989 737.76785,137.40829 734.877206,140.299003 C731.986493,143.189647 728.143192,144.7816 724.055165,144.7816 C722.277343,144.7816 720.535204,144.479383 718.877079,143.88329 C718.610614,143.787518 718.472255,143.493846 718.568026,143.22745 C718.663798,142.960917 718.95747,142.822626 719.223934,142.918397 C720.770497,143.474296 722.395946,143.75621 724.055165,143.75621 C731.928729,143.75621 738.334413,137.350526 738.334413,129.476962 C738.334413,121.603397 731.928729,115.197714 724.055165,115.197714 C716.1816,115.197714 709.775917,121.603397 709.775917,129.476962 C709.775917,134.717733 712.639491,139.528934 717.249169,142.033075 C717.497929,142.168221 717.590077,142.479462 717.454931,142.72829 C717.319784,142.977049 717.008544,143.069198 716.759716,142.934051 C711.819452,140.250399 708.750526,135.093915 708.750526,129.476962 C708.750526,125.388934 710.342479,121.545633 713.233124,118.654921 C716.123837,115.764276 719.967138,114.172323 724.055165,114.172323 Z M726.172812,127.374609 L726.172812,125.712256 L730.937518,125.712256 C731.229904,125.712256 731.46693,125.47523 731.46693,125.182844 L731.46693,122.006373 C731.46693,121.713987 731.229904,121.476962 730.937518,121.476962 L717.172812,121.476962 C716.880426,121.476962 716.6434,121.713987 716.6434,122.006373 L716.6434,125.182844 C716.6434,125.47523 716.880426,125.712256 717.172812,125.712256 L721.937518,125.712256 L721.937518,127.375138 C718.833577,127.582667 715.055165,128.269315 715.055165,129.94755 C715.055165,131.625785 718.834106,132.313491 721.937518,132.52102 L721.937518,138.94755 C721.937518,139.239936 722.174544,139.476962 722.46693,139.476962 L725.6434,139.476962 C725.935786,139.476962 726.172812,139.239936 726.172812,138.94755 L726.172812,132.52102 C729.276224,132.313491 733.055165,131.625256 733.055165,129.94755 C733.055165,128.269844 729.276753,127.582138 726.172812,127.374609 Z M717.702224,124.653432 L717.702224,122.535785 L730.408106,122.535785 L730.408106,124.653432 L725.6434,124.653432 C725.351014,124.653432 725.113988,124.890458 725.113988,125.182844 L725.113988,131.518315 C724.771988,131.528903 724.420988,131.535785 724.055165,131.535785 C723.689341,131.535785 723.338341,131.528903 722.996341,131.518315 L722.996341,125.182844 C722.996341,124.890458 722.759316,124.653432 722.46693,124.653432 L717.702224,124.653432 Z M716.113988,129.94755 C716.113988,129.554726 718.149577,128.685432 721.937518,128.43502 L721.937518,131.465903 C718.143753,131.218138 716.113988,130.340373 716.113988,129.94755 Z M725.113988,138.418138 L722.996341,138.418138 L722.996341,132.57502 C723.372753,132.588256 723.729577,132.594609 724.055165,132.594609 C724.380753,132.594609 724.737577,132.588256 725.113988,132.57502 L725.113988,138.418138 Z M726.172812,131.465903 L726.172812,128.431315 C729.964988,128.681197 731.996341,129.554726 731.996341,129.94755 C731.996341,130.340373 729.966577,131.218138 726.172812,131.465903 Z" id="tether"></path>
        </g>
    </g>
</svg>